<?xml version="1.0" encoding="UTF-8" standalone="no"?>
<!-- Created with Inkscape (http://www.inkscape.org/) -->

<svg
   xmlns:dc="http://purl.org/dc/elements/1.1/"
   xmlns:cc="http://creativecommons.org/ns#"
   xmlns:rdf="http://www.w3.org/1999/02/22-rdf-syntax-ns#"
   xmlns:svg="http://www.w3.org/2000/svg"
   xmlns="http://www.w3.org/2000/svg"
   xmlns:sodipodi="http://sodipodi.sourceforge.net/DTD/sodipodi-0.dtd"
   xmlns:inkscape="http://www.inkscape.org/namespaces/inkscape"
   version="1.1"
   width="251.77612"
   height="51.0527"
   id="svg3921"
   inkscape:version="0.48.4 r9939"
   sodipodi:docname="ar_bw.svg">
  <sodipodi:namedview
     pagecolor="#ffffff"
     bordercolor="#666666"
     borderopacity="1"
     objecttolerance="10"
     gridtolerance="10"
     guidetolerance="10"
     inkscape:pageopacity="0"
     inkscape:pageshadow="2"
     inkscape:window-width="1920"
     inkscape:window-height="1056"
     id="namedview3532"
     showgrid="false"
     fit-margin-top="10"
     fit-margin-left="10"
     fit-margin-right="10"
     fit-margin-bottom="10"
     inkscape:zoom="4.5310636"
     inkscape:cx="177.34784"
     inkscape:cy="6.6290474"
     inkscape:window-x="0"
     inkscape:window-y="24"
     inkscape:window-maximized="1"
     inkscape:current-layer="svg3921" />
  <defs
     id="defs3923">
    <clipPath
       id="clipPath3276">
      <path
         d="m 0,898.583 1247.24,0 0,-898.5830152588 -1247.24,0 L 0,898.583 z"
         id="path3278"
         inkscape:connector-curvature="0" />
    </clipPath>
    <clipPath
       id="clipPath3284">
      <path
         d="m 623.622,799.37 283.465,0 0,70.865 -283.465,0 0,-70.865 z"
         id="path3286"
         inkscape:connector-curvature="0" />
    </clipPath>
  </defs>
  <metadata
     id="metadata3926">
    <rdf:RDF>
      <cc:Work
         rdf:about="">
        <dc:format>image/svg+xml</dc:format>
        <dc:type
           rdf:resource="http://purl.org/dc/dcmitype/StillImage" />
        <dc:title />
      </cc:Work>
    </rdf:RDF>
  </metadata>
  <g
     transform="translate(-262.11194,-506.83583)"
     id="layer1">
    <g
       transform="matrix(1.25,0,0,-1.25,-583.90781,1577.5564)"
       id="g3270">
      <g
         id="g3272">
        <g
           clip-path="url(#clipPath3276)"
           id="g3274">
          <g
             id="g3280">
            <g
               clip-path="url(#clipPath3284)"
               id="g3282">
              <g
                 transform="translate(664.1287,836.2198)"
                 id="g3288" />
              <g
                 transform="translate(676.179,836.2198)"
                 id="g3292" />
              <g
                 transform="translate(697.0076,837.9738)"
                 id="g3296" />
              <g
                 transform="translate(730.4167,839.9224)"
                 id="g3300" />
              <g
                 transform="translate(777.6677,836.3732)"
                 id="g3304">
                <path
                   d="m 0,0 c -0.201,0 -0.391,0 -0.514,0.123 -0.075,0.075 -0.111,0.183 -0.111,0.328 l 0,7.084 c 0,0.004 -0.001,0.002 -0.001,0.006 -0.023,-0.011 -0.04,-0.02 -0.064,-0.033 0,0 -0.076,-0.042 -0.074,-0.041 -0.223,-0.128 -0.624,-0.296 -0.998,-0.423 0.374,-0.11 0.543,-0.211 0.543,-0.883 l 0,-5.71 C -1.219,0.302 -1.256,0.192 -1.33,0.118 -1.448,0 -1.622,0 -1.824,0 l -0.082,0 0,-0.038 c 0.343,0.009 0.672,0.018 1.004,0.018 0.189,0 0.376,-0.005 0.557,-0.01 0.14,-0.004 0.273,-0.007 0.406,-0.008 L 0.061,0 0,0 z"
                   id="path3306"
                   style="fill:#ffffff;fill-opacity:1;fill-rule:nonzero;stroke:none"
                   inkscape:connector-curvature="0" />
              </g>
              <g
                 transform="translate(783.2019,835.8506)"
                 id="g3308">
                <path
                   d="m 0,0 c 0,-0.305 -0.453,-1.855 -2.604,-1.855 -0.696,0 -1.255,0.176 -1.575,0.496 -0.163,0.163 -0.249,0.349 -0.249,0.539 0,0.627 0.573,0.963 1.108,1.068 l 0.091,0.018 0,0.093 0,0.02 0,0.085 -0.082,0.024 c -0.396,0.113 -0.82,0.378 -0.82,0.783 0,0.094 0.006,0.179 0.03,0.256 0.088,0.052 0.184,0.107 0.282,0.161 0.208,0.116 0.397,0.224 0.509,0.316 -0.13,-0.126 -0.227,-0.267 -0.227,-0.487 0,-0.058 0,-0.235 0.144,-0.378 0.137,-0.137 0.368,-0.206 0.687,-0.206 l 0.777,-0.006 0.637,-0.005 c 0.524,0 0.876,-0.097 1.076,-0.296 C -0.071,0.48 0,0.275 0,0 m -0.502,4.623 c -0.405,0 -0.689,0.082 -0.963,0.16 0,0 -0.062,0.018 -0.063,0.019 -0.298,0.087 -0.624,0.139 -0.87,0.139 -0.611,0 -1.102,-0.168 -1.419,-0.485 -0.252,-0.252 -0.385,-0.592 -0.385,-0.981 0,-0.557 0.27,-0.935 0.902,-1.263 l 0.133,-0.069 0.024,0.018 0.049,-0.01 c 0.189,-0.038 0.386,-0.06 0.542,-0.06 1.171,0 1.783,0.738 1.783,1.466 0,0.26 -0.088,0.519 -0.241,0.708 l -0.157,0.194 0.249,-0.01 0.897,-0.036 0,0.246 C -0.198,4.635 -0.341,4.623 -0.502,4.623 M -2.091,0.482 c -0.679,0 -1.815,0 -1.815,-1.077 0,-0.295 0.104,-0.554 0.301,-0.751 0.262,-0.262 0.677,-0.407 1.166,-0.407 0.484,0 1.192,0.143 1.596,0.547 0.206,0.206 0.31,0.456 0.31,0.745 0,0.23 -0.076,0.423 -0.226,0.573 -0.249,0.249 -0.685,0.37 -1.332,0.37 m 0.301,4.113 c 0.267,-0.268 0.427,-0.697 0.427,-1.151 0,-0.426 -0.128,-0.789 -0.362,-1.023 -0.192,-0.192 -0.443,-0.289 -0.745,-0.289 -0.257,0 -0.478,0.09 -0.656,0.269 -0.264,0.263 -0.421,0.718 -0.421,1.218 0,0.636 0.349,1.281 1.015,1.281 0.286,0 0.542,-0.105 0.742,-0.305"
                   id="path3310"
                   style="fill:#ffffff;fill-opacity:1;fill-rule:nonzero;stroke:none"
                   inkscape:connector-curvature="0" />
              </g>
              <g
                 transform="translate(786.4836,836.5679)"
                 id="g3312">
                <path
                   d="m 0,0 c 0.573,0 1.006,0.302 1.315,0.584 -0.537,-0.66 -1.063,-0.973 -1.684,-0.973 -0.501,0 -0.913,0.158 -1.225,0.469 -0.458,0.458 -0.62,1.176 -0.62,1.653 0,0.825 0.229,1.473 0.682,1.925 0.416,0.417 0.932,0.565 1.276,0.565 0.773,0 1.609,-0.468 1.619,-1.497 0,-0.042 -0.003,-0.081 -0.006,-0.121 l -0.018,-0.011 -2.846,0 -0.091,0 -0.019,-0.089 C -1.64,2.401 -1.641,2.243 -1.62,1.88 -1.552,0.808 -0.856,0 0,0 m 0.411,3.847 c -0.179,0.179 -0.424,0.274 -0.708,0.274 -0.673,0 -1.156,-0.483 -1.291,-1.293 l -0.022,-0.132 0.134,0 1.783,0 c 0.139,0 0.24,0.033 0.308,0.102 0.083,0.083 0.093,0.192 0.093,0.267 0,0.313 -0.106,0.591 -0.297,0.782"
                   id="path3314"
                   style="fill:#ffffff;fill-opacity:1;fill-rule:nonzero;stroke:none"
                   inkscape:connector-curvature="0" />
              </g>
              <g
                 transform="translate(796.6929,836.3732)"
                 id="g3316">
                <path
                   d="m 0,0 c -0.201,0 -0.391,0 -0.514,0.123 -0.075,0.076 -0.111,0.183 -0.111,0.328 l 0,2.635 c 0,0.452 -0.126,0.826 -0.354,1.054 -0.185,0.184 -0.438,0.278 -0.753,0.278 -0.591,0 -1.009,-0.291 -1.452,-0.599 C -3.264,3.763 -3.348,3.704 -3.433,3.648 L -3.564,3.56 -3.604,3.712 c -0.158,0.584 -0.619,0.706 -0.978,0.706 -0.659,0 -1.099,-0.314 -1.609,-0.678 L -6.29,3.67 c 0,0 -0.071,-0.05 -0.124,-0.088 0.258,0.178 0.845,0.508 1.268,0.508 0.288,0 0.518,-0.083 0.682,-0.248 0.289,-0.289 0.323,-0.781 0.323,-1.125 l 0,-2.266 C -4.141,0.302 -4.177,0.192 -4.252,0.118 -4.37,0 -4.544,0 -4.746,0 l -0.072,0 0,-0.038 c 0.328,0.009 0.663,0.018 0.995,0.018 0.187,0 0.376,-0.005 0.559,-0.01 0.14,-0.004 0.283,-0.007 0.424,-0.008 L -2.84,0 -2.911,0 C -3.116,0 -3.309,0 -3.435,0.126 -3.51,0.201 -3.547,0.308 -3.547,0.451 l 0,3.034 0,0.059 0.049,0.034 c 0.254,0.177 0.848,0.512 1.273,0.512 0.288,0 0.518,-0.083 0.683,-0.248 0.289,-0.289 0.323,-0.781 0.323,-1.125 l 0,-2.266 C -1.219,0.302 -1.256,0.192 -1.33,0.118 -1.448,0 -1.623,0 -1.825,0 l -0.071,0 0,-0.038 c 0.327,0.009 0.662,0.018 0.994,0.018 0.191,0 0.38,-0.005 0.562,-0.011 0.133,-0.004 0.257,-0.006 0.381,-0.007 L 0.041,0 0,0 z"
                   id="path3318"
                   style="fill:#ffffff;fill-opacity:1;fill-rule:nonzero;stroke:none"
                   inkscape:connector-curvature="0" />
              </g>
              <g
                 transform="translate(790.2244,839.9175)"
                 id="g3320">
                <path
                   d="M 0,0 0,0.218 0,0.843 C 0,0.857 -0.001,0.854 -0.002,0.861 -0.027,0.858 -0.049,0.859 -0.085,0.838 -0.152,0.798 -0.686,0.617 -1.127,0.483 l 0,-0.013 c 0.343,-0.185 0.533,-0.292 0.533,-0.785 l 0,-2.778 c 0,-0.15 -0.036,-0.259 -0.111,-0.333 -0.118,-0.118 -0.292,-0.118 -0.494,-0.118 l -0.102,0 0,-0.038 c 0.354,0.009 0.69,0.018 1.024,0.018 0.188,0 0.374,-0.005 0.555,-0.011 0.138,-0.004 0.279,-0.006 0.419,-0.007 l 0,0.038 -0.071,0 c -0.201,0 -0.391,0 -0.514,0.123 C 0.037,-3.346 0,-3.239 0,-3.093 l 0,3.034 0,0.058 c 0,0 0.025,0.018 0.055,0.039 C 0.053,0.037 0.05,0.035 0.049,0.034 L 0,0 z"
                   id="path3322"
                   style="fill:#ffffff;fill-opacity:1;fill-rule:nonzero;stroke:none"
                   inkscape:connector-curvature="0" />
              </g>
              <g
                 transform="translate(799.8946,836.5679)"
                 id="g3324">
                <path
                   d="m 0,0 c 0.573,0 1.006,0.302 1.315,0.584 -0.537,-0.661 -1.063,-0.973 -1.684,-0.973 -0.501,0 -0.914,0.158 -1.225,0.469 -0.458,0.458 -0.62,1.176 -0.62,1.653 0,0.825 0.229,1.473 0.681,1.925 0.417,0.417 0.933,0.565 1.277,0.565 0.773,0 1.609,-0.468 1.619,-1.497 0,-0.042 -0.003,-0.081 -0.006,-0.121 l -0.018,-0.011 -2.846,0 -0.091,0 -0.019,-0.089 C -1.64,2.401 -1.641,2.243 -1.62,1.88 -1.552,0.808 -0.856,0 0,0 m 0.307,2.696 c 0.139,0 0.24,0.033 0.308,0.102 0.083,0.083 0.092,0.192 0.092,0.267 0,0.313 -0.105,0.591 -0.296,0.782 -0.179,0.179 -0.424,0.274 -0.708,0.274 -0.673,0 -1.156,-0.483 -1.291,-1.293 l -0.022,-0.132 0.134,0 1.783,0 z"
                   id="path3326"
                   style="fill:#ffffff;fill-opacity:1;fill-rule:nonzero;stroke:none"
                   inkscape:connector-curvature="0" />
              </g>
              <g
                 transform="translate(807.321,836.3732)"
                 id="g3328">
                <path
                   d="m 0,0 c -0.201,0 -0.391,0 -0.514,0.123 -0.075,0.075 -0.111,0.183 -0.111,0.328 l 0,2.645 c 0,0.475 -0.116,0.842 -0.333,1.06 -0.175,0.174 -0.421,0.262 -0.733,0.262 -0.669,0 -1.173,-0.363 -1.708,-0.748 L -3.514,3.588 c 0.354,0.234 0.884,0.502 1.238,0.502 0.347,0 0.616,-0.093 0.8,-0.277 0.17,-0.17 0.256,-0.408 0.256,-0.707 l 0,-2.655 C -1.22,0.302 -1.256,0.192 -1.33,0.118 -1.448,0 -1.623,0 -1.825,0 l -0.071,0 0,-0.038 c 0.327,0.009 0.662,0.018 0.994,0.018 0.187,0 0.374,-0.005 0.554,-0.01 0.138,-0.004 0.279,-0.007 0.42,-0.008 L 0.072,0 0,0 z"
                   id="path3330"
                   style="fill:#ffffff;fill-opacity:1;fill-rule:nonzero;stroke:none"
                   inkscape:connector-curvature="0" />
              </g>
              <g
                 transform="translate(804.3687,836.3732)"
                 id="g3332">
                <path
                   d="m 0,0 c -0.201,0 -0.39,0 -0.514,0.123 -0.075,0.075 -0.111,0.183 -0.111,0.328 l 0,3.034 0,0.057 0.064,0.046 C -0.565,3.585 -0.571,3.582 -0.575,3.58 l -0.05,-0.034 0,0.216 0,0.628 C -1.05,4.209 -1.425,4.083 -1.814,3.957 l 0,-0.041 c 0.443,-0.187 0.595,-0.331 0.595,-0.748 l 0,-2.717 C -1.219,0.302 -1.256,0.192 -1.33,0.118 -1.448,0 -1.623,0 -1.824,0 l -0.072,0 0,-0.038 c 0.328,0.009 0.662,0.018 0.994,0.018 0.188,0 0.374,-0.005 0.554,-0.01 0.138,-0.004 0.28,-0.007 0.42,-0.008 L 0.072,0 0,0 z"
                   id="path3334"
                   style="fill:#ffffff;fill-opacity:1;fill-rule:nonzero;stroke:none"
                   inkscape:connector-curvature="0" />
              </g>
              <g
                 transform="translate(810.6118,836.5679)"
                 id="g3336">
                <path
                   d="m 0,0 c 0.574,0 1.007,0.302 1.315,0.584 -0.537,-0.661 -1.062,-0.973 -1.684,-0.973 -0.501,0 -0.913,0.158 -1.224,0.469 -0.458,0.458 -0.621,1.176 -0.621,1.653 0,0.825 0.229,1.473 0.682,1.925 0.416,0.417 0.932,0.565 1.276,0.565 0.773,0 1.61,-0.468 1.619,-1.497 0,-0.042 -0.003,-0.081 -0.006,-0.121 l -0.018,-0.011 -2.846,0 -0.09,0 -0.02,-0.089 C -1.64,2.401 -1.641,2.243 -1.62,1.88 -1.552,0.808 -0.856,0 0,0 m 0.308,2.696 c 0.138,0 0.239,0.033 0.307,0.102 0.083,0.083 0.093,0.192 0.093,0.267 0,0.313 -0.106,0.591 -0.297,0.782 -0.179,0.179 -0.424,0.274 -0.708,0.274 -0.673,0 -1.156,-0.483 -1.291,-1.293 l -0.021,-0.132 0.133,0 1.784,0 z"
                   id="path3338"
                   style="fill:#ffffff;fill-opacity:1;fill-rule:nonzero;stroke:none"
                   inkscape:connector-curvature="0" />
              </g>
              <g
                 transform="translate(821.8555,836.3892)"
                 id="g3340">
                <path
                   d="m 0,0 0,-0.054 c -0.089,0.002 -0.179,0.004 -0.267,0.008 -0.127,0.005 -0.258,0.01 -0.389,0.01 -0.278,0 -0.561,-0.01 -0.82,-0.019 -0.743,0.826 -1.343,1.781 -1.922,2.706 l -0.392,0.623 -0.033,0.053 -0.062,-10e-4 -0.933,0 -0.113,0 0,-0.113 0,-2.378 c 0,-0.773 0.44,-0.835 0.933,-0.848 l 0,-0.042 c -0.208,0.001 -0.412,0.005 -0.606,0.009 -0.228,0.005 -0.443,0.01 -0.665,0.01 -0.456,0 -0.902,-0.009 -1.373,-0.018 l 0,0.047 c 0.315,-0.001 0.56,0.058 0.715,0.204 0.145,0.136 0.218,0.333 0.218,0.587 l 0,5.197 c 0,0.773 -0.44,0.835 -0.933,0.848 l 0,0.042 0.083,-0.002 c 0.493,-0.009 0.918,-0.017 1.362,-0.017 0.154,0 0.307,0.004 0.483,0.008 0.242,0.006 0.515,0.013 0.891,0.013 0.816,0 1.425,-0.196 1.81,-0.581 0.387,-0.387 0.445,-0.868 0.445,-1.121 0,-0.753 -0.54,-1.398 -1.375,-1.645 L -3.091,3.483 C -3.09,3.482 -3.004,3.355 -3.004,3.355 L -2.229,2.202 C -1.75,1.482 -1.434,1.007 -1.13,0.667 -0.832,0.333 -0.513,0.042 0,0 m -4.202,6.771 c -0.257,0 -0.439,-0.031 -0.615,-0.06 l -0.019,-0.003 -0.095,-0.017 0,-0.095 0,-3.004 0,-0.092 0.091,-0.018 c 0.163,-0.033 0.384,-0.054 0.566,-0.054 0.582,0 1.065,0.176 1.396,0.507 0.303,0.303 0.469,0.72 0.469,1.174 0,0.511 -0.144,0.914 -0.429,1.199 -0.308,0.307 -0.766,0.463 -1.364,0.463"
                   id="path3342"
                   style="fill:#ffffff;fill-opacity:1;fill-rule:nonzero;stroke:none"
                   inkscape:connector-curvature="0" />
              </g>
              <g
                 transform="translate(824.8088,836.5679)"
                 id="g3344">
                <path
                   d="m 0,0 c 0.573,0 1.006,0.302 1.315,0.584 -0.537,-0.661 -1.063,-0.973 -1.684,-0.973 -0.501,0 -0.913,0.158 -1.224,0.469 -0.458,0.458 -0.621,1.176 -0.621,1.653 0,0.825 0.229,1.473 0.682,1.925 0.417,0.417 0.932,0.565 1.276,0.565 0.773,0 1.61,-0.468 1.619,-1.497 0,-0.042 -0.003,-0.081 -0.006,-0.121 l -0.018,-0.011 -2.846,0 -0.091,0 -0.019,-0.089 C -1.64,2.401 -1.641,2.243 -1.62,1.88 -1.552,0.808 -0.855,0 0,0 m 0.308,2.696 c 0.138,0 0.239,0.033 0.307,0.102 0.083,0.083 0.093,0.192 0.093,0.267 0,0.313 -0.106,0.591 -0.297,0.782 -0.179,0.179 -0.424,0.274 -0.708,0.274 -0.673,0 -1.156,-0.483 -1.291,-1.293 l -0.021,-0.132 0.133,0 1.784,0 z"
                   id="path3346"
                   style="fill:#ffffff;fill-opacity:1;fill-rule:nonzero;stroke:none"
                   inkscape:connector-curvature="0" />
              </g>
              <g
                 transform="translate(831.2749,836.8921)"
                 id="g3348">
                <path
                   d="m 0,0 -1.732,1.917 -0.076,0.084 0.084,0.076 c 0,0 1.138,1.025 1.137,1.024 0.377,0.346 0.727,0.562 1.234,0.592 l 0,0.05 C 0.37,3.734 0.088,3.725 -0.193,3.725 c -0.327,0 -0.663,0.009 -0.974,0.017 l 0,-0.045 c 0.164,-0.006 0.328,-0.025 0.426,-0.122 0.05,-0.05 0.077,-0.115 0.077,-0.188 0,-0.202 -0.307,-0.493 -0.439,-0.608 L -2.209,1.805 -2.233,1.785 -2.263,1.779 -2.591,1.718 -2.653,1.706 l 0.041,0 0.205,0 0.051,0 0.033,-0.038 c 0,0 1.63,-1.845 1.632,-1.847 0.107,-0.127 0.204,-0.253 0.295,-0.378 0.193,0.009 0.418,0.018 0.634,0.018 0.297,0 0.469,-0.007 0.668,-0.015 l 0.018,-0.001 0,0.025 C 0.516,-0.502 0.388,-0.427 0,0"
                   id="path3350"
                   style="fill:#ffffff;fill-opacity:1;fill-rule:nonzero;stroke:none"
                   inkscape:connector-curvature="0" />
              </g>
              <g
                 transform="translate(828.5497,838.7208)"
                 id="g3352">
                <path
                   d="m 0,0 0,5.187 c 0,0.005 -0.001,0.002 -0.001,0.007 -0.022,-0.012 -0.04,-0.02 -0.064,-0.034 0,0 -0.075,-0.041 -0.073,-0.04 C -0.362,4.992 -0.763,4.823 -1.137,4.697 -0.762,4.586 -0.594,4.486 -0.594,3.813 l 0,-5.709 c 0,-0.15 -0.036,-0.259 -0.111,-0.333 -0.118,-0.119 -0.292,-0.119 -0.494,-0.119 l -0.071,0 0,-0.038 c 0.327,0.009 0.662,0.018 0.993,0.018 0.188,0 0.374,-0.005 0.555,-0.01 0.137,-0.004 0.279,-0.006 0.419,-0.008 l 0,0.038 -0.071,0 c -0.201,0 -0.391,0 -0.514,0.124 C 0.036,-2.15 0,-2.042 0,-1.896 l 0,1.66 0,0.1 0.072,0.013 L 0,-0.123 0,0 z"
                   id="path3354"
                   style="fill:#ffffff;fill-opacity:1;fill-rule:nonzero;stroke:none"
                   inkscape:connector-curvature="0" />
              </g>
              <g
                 transform="translate(835.162,836.5679)"
                 id="g3356">
                <path
                   d="m 0,0 c 0.574,0 1.007,0.302 1.315,0.584 -0.537,-0.66 -1.062,-0.973 -1.684,-0.973 -0.501,0 -0.913,0.158 -1.224,0.469 -0.458,0.458 -0.621,1.176 -0.621,1.653 0,0.825 0.229,1.473 0.682,1.925 0.416,0.417 0.932,0.565 1.276,0.565 0.773,0 1.609,-0.468 1.619,-1.497 0,-0.042 -0.003,-0.081 -0.006,-0.121 l -0.018,-0.011 -2.846,0 -0.09,0 -0.02,-0.089 C -1.64,2.401 -1.641,2.243 -1.62,1.88 -1.552,0.808 -0.856,0 0,0 m 0.308,2.696 c 0.138,0 0.239,0.033 0.308,0.102 0.082,0.083 0.092,0.192 0.092,0.267 0,0.313 -0.106,0.591 -0.297,0.782 -0.179,0.179 -0.424,0.274 -0.708,0.274 -0.673,0 -1.156,-0.483 -1.291,-1.293 l -0.021,-0.132 0.133,0 1.784,0 z"
                   id="path3358"
                   style="fill:#ffffff;fill-opacity:1;fill-rule:nonzero;stroke:none"
                   inkscape:connector-curvature="0" />
              </g>
              <g
                 transform="translate(842.5886,836.3732)"
                 id="g3360">
                <path
                   d="m 0,0 c -0.201,0 -0.391,0 -0.514,0.123 -0.075,0.075 -0.111,0.183 -0.111,0.328 l 0,2.645 c 0,0.475 -0.116,0.842 -0.333,1.06 -0.175,0.174 -0.421,0.262 -0.733,0.262 -0.669,0 -1.174,-0.363 -1.708,-0.748 L -3.513,3.588 c 0.353,0.234 0.883,0.502 1.237,0.502 0.347,0 0.616,-0.093 0.8,-0.277 0.17,-0.17 0.256,-0.408 0.256,-0.707 l 0,-2.655 C -1.22,0.302 -1.256,0.192 -1.33,0.118 -1.448,0 -1.623,0 -1.825,0 l -0.071,0 0,-0.038 c 0.327,0.009 0.662,0.018 0.994,0.018 0.187,0 0.374,-0.005 0.554,-0.01 0.138,-0.004 0.279,-0.007 0.42,-0.008 L 0.072,0 0,0 z"
                   id="path3362"
                   style="fill:#ffffff;fill-opacity:1;fill-rule:nonzero;stroke:none"
                   inkscape:connector-curvature="0" />
              </g>
              <g
                 transform="translate(839.011,839.919)"
                 id="g3364">
                <path
                   d="M 0,0 0,0.216 0,0.844 C -0.425,0.664 -0.799,0.538 -1.189,0.411 l 0,-0.04 c 0.443,-0.188 0.595,-0.332 0.595,-0.749 l 0,-2.717 c 0,-0.149 -0.036,-0.258 -0.111,-0.333 -0.118,-0.118 -0.292,-0.118 -0.494,-0.118 l -0.072,0 0,-0.038 c 0.328,0.009 0.663,0.018 0.994,0.018 0.188,0 0.374,-0.005 0.555,-0.01 0.137,-0.004 0.279,-0.006 0.419,-0.008 l 0,0.038 -0.072,0 c -0.2,0 -0.39,0 -0.513,0.124 C 0.036,-3.348 0,-3.24 0,-3.095 l 0,3.034 0,0.057 0.064,0.046 C 0.06,0.039 0.054,0.037 0.05,0.034 L 0,0 z"
                   id="path3366"
                   style="fill:#ffffff;fill-opacity:1;fill-rule:nonzero;stroke:none"
                   inkscape:connector-curvature="0" />
              </g>
              <g
                 transform="translate(844.7104,838.7208)"
                 id="g3368">
                <path
                   d="M 0,0 0,5.187 C 0,5.192 0,5.189 0,5.194 -0.023,5.182 -0.041,5.174 -0.065,5.16 c 0,0 -0.075,-0.041 -0.073,-0.04 C -0.362,4.992 -0.762,4.823 -1.136,4.697 -0.762,4.586 -0.594,4.486 -0.594,3.813 l 0,-5.709 c 0,-0.15 -0.036,-0.259 -0.111,-0.333 -0.118,-0.119 -0.292,-0.119 -0.494,-0.119 l -0.071,0 0,-0.038 c 0.327,0.009 0.662,0.018 0.994,0.018 0.187,0 0.374,-0.005 0.554,-0.01 0.138,-0.004 0.279,-0.006 0.419,-0.008 l 0,0.038 -0.072,0 c -0.2,0 -0.39,0 -0.513,0.124 C 0.037,-2.15 0,-2.042 0,-1.896 l 0,1.66 0,0.1 0.072,0.013 L 0,-0.123 0,0 z"
                   id="path3370"
                   style="fill:#ffffff;fill-opacity:1;fill-rule:nonzero;stroke:none"
                   inkscape:connector-curvature="0" />
              </g>
              <g
                 transform="translate(847.4355,836.8921)"
                 id="g3372">
                <path
                   d="m 0,0 -1.732,1.917 -0.076,0.084 0.084,0.076 c 0,0 1.138,1.025 1.137,1.024 0.377,0.346 0.727,0.562 1.234,0.592 l 0,0.05 C 0.371,3.734 0.088,3.725 -0.193,3.725 c -0.327,0 -0.663,0.009 -0.974,0.017 l 0,-0.045 c 0.165,-0.006 0.329,-0.025 0.426,-0.122 0.051,-0.05 0.077,-0.115 0.077,-0.188 0,-0.202 -0.307,-0.493 -0.438,-0.608 L -2.209,1.805 -2.232,1.785 -2.263,1.779 -2.591,1.718 -2.653,1.706 l 0.041,0 0.205,0 0.051,0 0.034,-0.038 c 0,0 1.63,-1.845 1.632,-1.847 0.106,-0.127 0.203,-0.253 0.294,-0.378 0.193,0.009 0.418,0.018 0.634,0.018 0.297,0 0.47,-0.007 0.669,-0.015 l 0.017,-0.001 0,0.025 C 0.516,-0.502 0.388,-0.427 0,0"
                   id="path3374"
                   style="fill:#ffffff;fill-opacity:1;fill-rule:nonzero;stroke:none"
                   inkscape:connector-curvature="0" />
              </g>
              <g
                 transform="translate(852.7891,836.5065)"
                 id="g3376">
                <path
                   d="m 0,0 c 0.081,0 0.162,0.022 0.237,0.054 -0.226,-0.2 -0.478,-0.382 -0.78,-0.382 -0.36,0 -0.507,0.351 -0.523,0.652 L -1.08,0.563 -1.255,0.401 c -0.478,-0.437 -0.917,-0.729 -1.503,-0.729 -0.297,0 -0.562,0.102 -0.746,0.287 -0.16,0.159 -0.247,0.371 -0.247,0.595 0.035,0.72 0.327,0.847 2.598,1.625 l 0.077,0.027 0,0.08 0,0.677 c 0,0.301 -0.087,0.539 -0.256,0.709 -0.189,0.189 -0.476,0.285 -0.852,0.285 -0.527,0 -0.869,-0.316 -0.892,-0.825 0,-0.213 -0.267,-0.323 -0.461,-0.323 -0.033,0 -0.044,0.011 -0.047,0.015 -0.017,0.016 -0.024,0.05 -0.024,0.077 0,0.471 0.403,0.701 1.117,1.068 0.068,0.035 0.128,0.068 0.186,0.1 0.239,0.13 0.397,0.216 0.685,0.216 0.289,0 0.725,-0.13 0.966,-0.371 C -0.54,3.8 -0.482,3.673 -0.482,3.537 l 0,-2.84 c 0,-0.272 0.056,-0.461 0.171,-0.576 C -0.23,0.04 -0.126,0 0,0 M -1.23,2.094 C -1.326,2.057 -1.45,2.018 -1.593,1.974 -2.216,1.779 -3.158,1.486 -3.158,0.779 c 0,-0.223 0.092,-0.444 0.253,-0.604 0.159,-0.159 0.368,-0.247 0.588,-0.247 0.498,0 0.827,0.291 1.146,0.573 l 0.056,0.05 0.039,0.033 0,0.052 0,1.353 0,0.166 -0.154,-0.061 z"
                   id="path3378"
                   style="fill:#ffffff;fill-opacity:1;fill-rule:nonzero;stroke:none"
                   inkscape:connector-curvature="0" />
              </g>
              <g
                 transform="translate(861.6465,836.3732)"
                 id="g3380">
                <path
                   d="m 0,0 c -0.201,0 -0.391,0 -0.514,0.123 -0.075,0.075 -0.111,0.183 -0.111,0.328 l 0,2.635 c 0,0.452 -0.125,0.826 -0.354,1.054 -0.185,0.184 -0.438,0.278 -0.753,0.278 -0.591,0 -1.009,-0.291 -1.452,-0.599 C -3.264,3.763 -3.348,3.705 -3.433,3.648 L -3.563,3.56 -3.604,3.712 c -0.157,0.584 -0.619,0.706 -0.978,0.706 -0.658,0 -1.099,-0.314 -1.609,-0.677 L -6.29,3.67 c 0,0 -0.07,-0.05 -0.123,-0.087 0.258,0.178 0.845,0.507 1.267,0.507 0.289,0 0.518,-0.083 0.683,-0.248 0.289,-0.289 0.322,-0.781 0.322,-1.125 l 0,-2.266 C -4.141,0.302 -4.177,0.192 -4.252,0.118 -4.37,0 -4.544,0 -4.746,0 l -0.071,0 0,-0.038 c 0.327,0.009 0.662,0.018 0.994,0.018 0.187,0 0.376,-0.005 0.559,-0.01 0.14,-0.004 0.283,-0.007 0.425,-0.008 l 0,0.038 -0.072,0 C -3.116,0 -3.309,0 -3.435,0.126 -3.51,0.201 -3.547,0.308 -3.547,0.451 l 0,3.034 0,0.059 0.048,0.034 c 0.255,0.177 0.85,0.512 1.275,0.512 0.288,0 0.517,-0.083 0.682,-0.248 0.289,-0.289 0.323,-0.781 0.323,-1.125 l 0,-2.266 C -1.219,0.302 -1.256,0.192 -1.33,0.118 -1.448,0 -1.623,0 -1.824,0 l -0.072,0 0,-0.038 c 0.328,0.009 0.662,0.018 0.994,0.018 0.192,0 0.38,-0.005 0.562,-0.011 0.133,-0.004 0.257,-0.006 0.381,-0.007 L 0.041,0 0,0 z"
                   id="path3382"
                   style="fill:#ffffff;fill-opacity:1;fill-rule:nonzero;stroke:none"
                   inkscape:connector-curvature="0" />
              </g>
              <g
                 transform="translate(855.1782,839.9175)"
                 id="g3384">
                <path
                   d="M 0,0 0,0.218 0,0.843 C 0,0.857 -0.001,0.854 -0.002,0.861 -0.027,0.858 -0.049,0.859 -0.085,0.838 -0.151,0.799 -0.693,0.615 -1.127,0.483 l 0,-0.013 c 0.343,-0.185 0.533,-0.292 0.533,-0.785 l 0,-2.778 c 0,-0.15 -0.036,-0.259 -0.111,-0.333 -0.118,-0.118 -0.292,-0.118 -0.494,-0.118 l -0.102,0 0,-0.038 c 0.354,0.009 0.69,0.018 1.025,0.018 0.187,0 0.374,-0.005 0.554,-0.011 0.138,-0.004 0.279,-0.006 0.419,-0.007 l 0,0.038 -0.071,0 c -0.201,0 -0.391,0 -0.514,0.123 C 0.037,-3.346 0,-3.239 0,-3.093 l 0,3.034 0,0.058 c 0,0 0.026,0.018 0.056,0.04 C 0.054,0.037 0.05,0.035 0.048,0.034 L 0,0 z"
                   id="path3386"
                   style="fill:#ffffff;fill-opacity:1;fill-rule:nonzero;stroke:none"
                   inkscape:connector-curvature="0" />
              </g>
              <g
                 transform="translate(864.7217,836.5679)"
                 id="g3388">
                <path
                   d="m 0,0 c 0.574,0 1.006,0.302 1.315,0.584 -0.537,-0.661 -1.063,-0.973 -1.684,-0.973 -0.502,0 -0.913,0.158 -1.224,0.469 -0.458,0.458 -0.621,1.176 -0.621,1.653 0,0.825 0.23,1.473 0.682,1.925 0.416,0.417 0.932,0.565 1.276,0.565 0.773,0 1.61,-0.468 1.619,-1.497 0,-0.042 -0.003,-0.081 -0.006,-0.121 l -0.018,-0.011 -2.846,0 -0.09,0 -0.02,-0.089 C -1.64,2.401 -1.641,2.243 -1.62,1.88 -1.552,0.808 -0.855,0 0,0 m 0.308,2.696 c 0.138,0 0.239,0.033 0.307,0.102 0.083,0.083 0.093,0.192 0.093,0.267 0,0.313 -0.106,0.591 -0.297,0.782 -0.179,0.179 -0.424,0.274 -0.708,0.274 -0.673,0 -1.156,-0.483 -1.29,-1.293 l -0.022,-0.132 0.133,0 1.784,0 z"
                   id="path3390"
                   style="fill:#ffffff;fill-opacity:1;fill-rule:nonzero;stroke:none"
                   inkscape:connector-curvature="0" />
              </g>
              <g
                 transform="translate(868.3193,839.7354)"
                 id="g3392">
                <path
                   d="m 0,0 -0.113,0 0,0.113 0,0.923 c 0,0.006 -0.001,0.003 -0.001,0.008 C -0.163,1.026 -0.262,0.976 -0.369,0.921 -0.563,0.822 -0.858,0.673 -1.23,0.512 l 0,-0.007 C -1.213,0.498 -1.2,0.492 -1.181,0.484 -1,0.415 -0.697,0.298 -0.697,-0.03 l 0,-2.881 c 0,-0.149 -0.036,-0.259 -0.111,-0.333 -0.118,-0.118 -0.292,-0.118 -0.494,-0.118 l -0.163,0 0,-0.038 c 0.341,0.009 0.725,0.018 1.106,0.018 0.354,0 0.706,-0.007 1.114,-0.014 l 0.208,-0.004 0,0.038 -0.461,0 c -0.202,0 -0.376,0 -0.494,0.118 -0.074,0.074 -0.111,0.184 -0.111,0.333 l 0,2.409 c 0,0.203 0.059,0.366 0.143,0.502 L 0.021,0 0,0 z"
                   id="path3394"
                   style="fill:#ffffff;fill-opacity:1;fill-rule:nonzero;stroke:none"
                   inkscape:connector-curvature="0" />
              </g>
              <g
                 transform="translate(870.0088,840.648)"
                 id="g3396">
                <path
                   d="m 0,0 c -0.088,0.088 -0.225,0.143 -0.357,0.143 -0.486,0 -0.86,-0.468 -1.1,-0.825 0.186,0.159 0.403,0.231 0.526,0.231 0.222,0 0.336,-0.083 0.428,-0.15 0.076,-0.056 0.131,-0.096 0.249,-0.096 0.231,0 0.368,0.209 0.368,0.41 C 0.114,-0.172 0.076,-0.076 0,0"
                   id="path3398"
                   style="fill:#ffffff;fill-opacity:1;fill-rule:nonzero;stroke:none"
                   inkscape:connector-curvature="0" />
              </g>
              <g
                 transform="translate(774.8513,836.3848)"
                 id="g3400">
                <path
                   d="m 0,0 -0.01,-0.051 c -0.184,0.002 -0.369,0.005 -0.55,0.009 -0.212,0.005 -0.432,0.01 -0.648,0.01 -0.324,0 -0.65,-0.008 -0.97,-0.017 l 0.007,0.037 c 0.27,-0.005 0.533,0.015 0.678,0.177 0.079,0.089 0.108,0.204 0.087,0.343 0,0 -0.307,2.03 -0.307,2.03 l -0.015,0.096 -0.097,0 -2.428,0 -0.071,0 L -4.355,2.57 -5.195,0.827 C -5.281,0.643 -5.32,0.515 -5.32,0.409 c 0,-0.115 0.037,-0.21 0.108,-0.282 0.094,-0.093 0.24,-0.139 0.446,-0.139 l 0.171,0 -0.007,-0.038 c -0.17,0.001 -0.342,0.004 -0.509,0.008 -0.2,0.005 -0.407,0.01 -0.608,0.01 -0.272,0 -0.535,-0.008 -0.806,-0.017 l 0.01,0.052 c 0.485,0.035 0.738,0.365 0.927,0.734 -0.002,-0.004 3.427,6.071 3.643,6.453 0.028,0.007 0.052,0.016 0.075,0.024 L -0.715,0.717 C -0.65,0.251 -0.408,0.022 0,0 m -4.028,2.828 2.152,0 0.131,0 -0.02,0.13 -0.46,3.093 -0.013,0.092 -0.093,0.005 -0.024,0.001 -0.072,0.003 -0.033,-0.063 -1.667,-3.094 -0.09,-0.167 0.189,0 z"
                   id="path3402"
                   style="fill:#ffffff;fill-opacity:1;fill-rule:nonzero;stroke:none"
                   inkscape:connector-curvature="0" />
              </g>
              <g
                 transform="translate(666.1418,834.0939)"
                 id="g3404">
                <path
                   d="m 20.8,0 c 1.174,0 2.126,0.952 2.126,2.126 0,1.174 -0.952,2.126 -2.126,2.126 C 19.626,4.252 18.674,3.3 18.674,2.126 18.674,0.952 19.626,0 20.8,0"
                   id="path3406"
                   style="fill:#000000;fill-opacity:1;fill-rule:nonzero;stroke:none"
                   inkscape:connector-curvature="0" />
              </g>
              <g
                 transform="translate(683.1497,829.1359)"
                 id="g3408">
                <path
                   d="m 20.8,0 c 3.912,0 7.084,3.171 7.084,7.084 0,3.912 -3.172,7.083 -7.084,7.083 -3.912,0 -7.084,-3.171 -7.084,-7.083 C 13.716,3.171 16.888,0 20.8,0"
                   id="path3410"
                   style="fill:#000000;fill-opacity:1;fill-rule:nonzero;stroke:none"
                   inkscape:connector-curvature="0" />
              </g>
              <g
                 transform="translate(693.0696,823.8785)"
                 id="g3412">
                <path
                   d="m 20.8,0 c 1.794,-1.036 6.421,3.621 10.336,10.402 3.914,6.78 5.633,13.116 3.84,14.152 C 33.182,25.589 28.555,20.932 24.64,14.152 20.726,7.371 19.006,1.036 20.8,0"
                   id="path3414"
                   style="fill:#000000;fill-opacity:1;fill-rule:nonzero;stroke:none"
                   inkscape:connector-curvature="0" />
              </g>
              <g
                 transform="translate(731.9243,833.917)"
                 id="g3416">
                <path
                   d="m 20.8,0 c 2.119,-2.119 4.843,-2.829 6.086,-1.587 1.241,1.241 0.531,3.966 -1.588,6.085 C 23.179,6.617 20.455,7.327 19.212,6.086 17.97,4.843 18.681,2.119 20.8,0"
                   id="path3418"
                   style="fill:#000000;fill-opacity:1;fill-rule:nonzero;stroke:none"
                   inkscape:connector-curvature="0" />
              </g>
              <g
                 transform="translate(775.6484,836.4865)"
                 id="g3420">
                <path
                   d="m 0,0 0.195,0 c 0.287,0 0.492,0 0.492,0.338 l 0,5.71 c 0,0.666 -0.154,0.686 -0.543,0.799 l 0,0.164 c 0.409,0.133 0.84,0.318 1.055,0.441 0.113,0.062 0.195,0.113 0.226,0.113 0.061,0 0.082,-0.062 0.082,-0.144 l 0,-7.083 C 1.507,0 1.732,0 2.019,0 l 0.175,0 0,-0.267 c -0.349,0 -0.708,0.021 -1.077,0.021 -0.369,0 -0.738,-0.01 -1.117,-0.021 L 0,0 z"
                   id="path3422"
                   style="fill:#000000;fill-opacity:1;fill-rule:nonzero;stroke:none"
                   inkscape:connector-curvature="0" />
              </g>
              <g
                 transform="translate(783.2944,840.1456)"
                 id="g3424">
                <path
                   d="m 0,0 -1.015,0.041 c 0.174,-0.215 0.267,-0.502 0.267,-0.779 0,-0.748 -0.626,-1.579 -1.897,-1.579 -0.153,0 -0.358,0.021 -0.563,0.062 -0.195,-0.143 -0.308,-0.277 -0.308,-0.523 0,-0.154 0.041,-0.472 0.718,-0.472 0.502,0 1.004,-0.01 1.414,-0.01 0.882,0 1.405,-0.266 1.405,-1.035 0,-0.4 -0.533,-1.968 -2.717,-1.968 -1.302,0 -1.937,0.594 -1.937,1.148 0,0.656 0.574,1.056 1.199,1.179 l 0,0.02 c -0.431,0.124 -0.902,0.421 -0.902,0.892 0,0.113 0,0.226 0.041,0.328 0.287,0.175 0.707,0.379 0.851,0.513 -0.574,0.297 -0.964,0.686 -0.964,1.363 0,0.892 0.656,1.579 1.917,1.579 0.308,0 0.656,-0.072 0.902,-0.144 0.287,-0.082 0.574,-0.174 0.994,-0.174 0.185,0 0.328,0.01 0.595,0.051 L 0,0 z m -2.183,-3.926 c -0.667,0 -1.702,0 -1.702,-0.964 0,-0.707 0.635,-1.045 1.353,-1.045 0.625,0 1.794,0.266 1.794,1.179 0,0.748 -0.902,0.83 -1.445,0.83 m -0.441,4.418 c -0.626,0 -0.902,-0.625 -0.902,-1.168 0,-0.595 0.256,-1.374 0.963,-1.374 0.697,0 0.995,0.574 0.995,1.199 0,0.625 -0.339,1.343 -1.056,1.343"
                   id="path3426"
                   style="fill:#000000;fill-opacity:1;fill-rule:nonzero;stroke:none"
                   inkscape:connector-curvature="0" />
              </g>
              <g
                 transform="translate(784.9766,839.049)"
                 id="g3428">
                <path
                   d="m 0,0 c -0.02,-0.092 -0.02,-0.246 0,-0.595 0.062,-0.973 0.687,-1.773 1.507,-1.773 0.564,0 1.004,0.307 1.384,0.687 L 3.034,-1.825 C 2.563,-2.45 1.979,-2.983 1.138,-2.983 c -1.63,0 -1.958,1.579 -1.958,2.235 0,2.009 1.353,2.603 2.071,2.603 0.83,0 1.722,-0.522 1.732,-1.609 0,-0.062 0,-0.123 -0.01,-0.185 L 2.881,0 0,0 z m 1.814,0.328 c 0.257,0 0.288,0.133 0.288,0.256 0,0.523 -0.318,0.943 -0.892,0.943 -0.626,0 -1.056,-0.461 -1.179,-1.199 l 1.783,0 z"
                   id="path3430"
                   style="fill:#000000;fill-opacity:1;fill-rule:nonzero;stroke:none"
                   inkscape:connector-curvature="0" />
              </g>
              <g
                 transform="translate(789.5173,839.6026)"
                 id="g3432">
                <path
                   d="m 0,0 c 0,0.451 -0.154,0.512 -0.533,0.717 l 0,0.164 C -0.051,1.025 0.513,1.22 0.564,1.251 0.636,1.292 0.697,1.302 0.748,1.302 0.8,1.302 0.82,1.24 0.82,1.158 l 0,-0.625 c 0.564,0.4 1.035,0.769 1.774,0.769 0.543,0 0.943,-0.257 1.086,-0.79 0.554,0.369 1.025,0.79 1.763,0.79 0.892,0 1.22,-0.697 1.22,-1.446 l 0,-2.634 c 0,-0.338 0.225,-0.338 0.513,-0.338 l 0.153,0 0,-0.267 c -0.328,0 -0.687,0.021 -1.056,0.021 -0.368,0 -0.738,-0.011 -1.107,-0.021 l 0,0.267 0.185,0 c 0.287,0 0.492,0 0.492,0.338 l 0,2.265 c 0,0.646 -0.133,1.261 -0.892,1.261 -0.4,0 -0.974,-0.328 -1.21,-0.492 l 0,-3.034 c 0,-0.338 0.236,-0.338 0.523,-0.338 l 0.185,0 0,-0.267 c -0.359,0 -0.728,0.021 -1.097,0.021 -0.369,0 -0.738,-0.011 -1.107,-0.021 l 0,0.267 0.184,0 c 0.288,0 0.492,0 0.492,0.338 l 0,2.265 c 0,0.646 -0.133,1.261 -0.891,1.261 -0.4,0 -0.974,-0.328 -1.21,-0.492 l 0,-3.034 c 0,-0.338 0.226,-0.338 0.513,-0.338 l 0.184,0 0,-0.267 c -0.359,0 -0.717,0.021 -1.087,0.021 -0.368,0 -0.737,-0.011 -1.137,-0.021 l 0,0.267 0.215,0 c 0.287,0 0.492,0 0.492,0.338 L 0,0 z"
                   id="path3434"
                   style="fill:#000000;fill-opacity:1;fill-rule:nonzero;stroke:none"
                   inkscape:connector-curvature="0" />
              </g>
              <g
                 transform="translate(798.3877,839.049)"
                 id="g3436">
                <path
                   d="m 0,0 c -0.021,-0.092 -0.021,-0.246 0,-0.595 0.061,-0.973 0.687,-1.773 1.507,-1.773 0.564,0 1.004,0.307 1.384,0.687 L 3.034,-1.825 C 2.563,-2.45 1.978,-2.983 1.138,-2.983 c -1.63,0 -1.958,1.579 -1.958,2.235 0,2.009 1.353,2.603 2.07,2.603 0.831,0 1.723,-0.522 1.733,-1.609 0,-0.062 0,-0.123 -0.01,-0.185 L 2.88,0 0,0 z m 1.814,0.328 c 0.257,0 0.287,0.133 0.287,0.256 0,0.523 -0.317,0.943 -0.892,0.943 -0.625,0 -1.055,-0.461 -1.178,-1.199 l 1.783,0 z"
                   id="path3438"
                   style="fill:#000000;fill-opacity:1;fill-rule:nonzero;stroke:none"
                   inkscape:connector-curvature="0" />
              </g>
              <g
                 transform="translate(803.0361,839.5411)"
                 id="g3440">
                <path
                   d="m 0,0 c 0,0.379 -0.113,0.481 -0.594,0.676 l 0,0.195 c 0.44,0.144 0.861,0.277 1.353,0.492 0.03,0 0.061,-0.02 0.061,-0.102 l 0,-0.667 c 0.585,0.421 1.087,0.769 1.774,0.769 0.871,0 1.178,-0.636 1.178,-1.435 l 0,-2.645 c 0,-0.338 0.226,-0.338 0.513,-0.338 l 0.184,0 0,-0.266 c -0.358,0 -0.717,0.02 -1.086,0.02 -0.369,0 -0.738,-0.01 -1.107,-0.02 l 0,0.266 0.184,0 c 0.287,0 0.492,0 0.492,0.338 l 0,2.655 c 0,0.584 -0.358,0.871 -0.943,0.871 -0.328,0 -0.851,-0.266 -1.189,-0.492 l 0,-3.034 c 0,-0.338 0.226,-0.338 0.513,-0.338 l 0.184,0 0,-0.266 c -0.359,0 -0.717,0.02 -1.086,0.02 -0.369,0 -0.738,-0.01 -1.108,-0.02 l 0,0.266 0.185,0 c 0.287,0 0.492,0 0.492,0.338 L 0,0 z"
                   id="path3442"
                   style="fill:#000000;fill-opacity:1;fill-rule:nonzero;stroke:none"
                   inkscape:connector-curvature="0" />
              </g>
              <g
                 transform="translate(809.105,839.049)"
                 id="g3444">
                <path
                   d="m 0,0 c -0.021,-0.092 -0.021,-0.246 0,-0.595 0.061,-0.973 0.687,-1.773 1.507,-1.773 0.564,0 1.004,0.307 1.384,0.687 L 3.034,-1.825 C 2.563,-2.45 1.979,-2.983 1.138,-2.983 c -1.63,0 -1.958,1.579 -1.958,2.235 0,2.009 1.353,2.603 2.07,2.603 0.831,0 1.723,-0.522 1.733,-1.609 0,-0.062 0,-0.123 -0.01,-0.185 L 2.88,0 0,0 z m 1.814,0.328 c 0.257,0 0.287,0.133 0.287,0.256 0,0.523 -0.317,0.943 -0.891,0.943 -0.626,0 -1.056,-0.461 -1.179,-1.199 l 1.783,0 z"
                   id="path3446"
                   style="fill:#000000;fill-opacity:1;fill-rule:nonzero;stroke:none"
                   inkscape:connector-curvature="0" />
              </g>
              <g
                 transform="translate(817.0378,839.6026)"
                 id="g3448">
                <path
                   d="m 0,0 0,-2.378 c 0,-0.718 0.39,-0.728 0.933,-0.738 l 0,-0.267 c -0.492,0 -0.933,0.021 -1.384,0.021 -0.492,0 -0.974,-0.011 -1.486,-0.021 l 0,0.267 c 0.512,-0.031 0.933,0.102 0.933,0.686 l 0,5.198 c 0,0.717 -0.39,0.727 -0.933,0.737 l 0,0.267 c 0.563,-0.01 1.055,-0.02 1.558,-0.02 0.358,0 0.717,0.02 1.373,0.02 1.938,0 2.368,-1.086 2.368,-1.814 C 3.362,1.086 2.706,0.44 1.907,0.205 2.839,-1.159 3.332,-1.978 3.772,-2.471 4.1,-2.839 4.408,-3.116 4.93,-3.116 l 0,-0.267 c -0.256,0 -0.512,0.021 -0.768,0.021 -0.287,0 -0.584,-0.011 -0.871,-0.021 C 2.358,-2.358 1.671,-1.159 0.933,0 L 0,0 z M 0.615,3.444 C 0.359,3.444 0.185,3.413 0,3.382 L 0,0.379 C 0.154,0.348 0.369,0.328 0.543,0.328 c 1.261,0 1.753,0.83 1.753,1.568 0,0.892 -0.471,1.548 -1.681,1.548"
                   id="path3450"
                   style="fill:#000000;fill-opacity:1;fill-rule:nonzero;stroke:none"
                   inkscape:connector-curvature="0" />
              </g>
              <g
                 transform="translate(823.3019,839.049)"
                 id="g3452">
                <path
                   d="m 0,0 c -0.02,-0.092 -0.02,-0.246 0,-0.595 0.062,-0.973 0.687,-1.773 1.507,-1.773 0.564,0 1.005,0.307 1.384,0.687 L 3.034,-1.825 C 2.563,-2.45 1.978,-2.983 1.138,-2.983 c -1.63,0 -1.958,1.579 -1.958,2.235 0,2.009 1.353,2.603 2.071,2.603 0.83,0 1.722,-0.522 1.732,-1.609 0,-0.062 0,-0.123 -0.01,-0.185 L 2.88,0 0,0 z m 1.815,0.328 c 0.256,0 0.286,0.133 0.286,0.256 0,0.523 -0.317,0.943 -0.891,0.943 -0.625,0 -1.056,-0.461 -1.179,-1.199 l 1.784,0 z"
                   id="path3454"
                   style="fill:#000000;fill-opacity:1;fill-rule:nonzero;stroke:none"
                   inkscape:connector-curvature="0" />
              </g>
              <g
                 transform="translate(832.0352,840.4839)"
                 id="g3456">
                <path
                   d="m 0,0 c -0.553,0 -0.892,-0.226 -1.271,-0.574 l -1.138,-1.025 1.732,-1.917 c 0.41,-0.451 0.482,-0.481 0.954,-0.502 l 0,-0.246 c -0.267,0.01 -0.441,0.02 -0.8,0.02 -0.225,0 -0.461,-0.01 -0.686,-0.02 -0.103,0.143 -0.216,0.287 -0.329,0.42 l -1.629,1.845 -0.205,0 0,-1.661 c 0,-0.337 0.225,-0.337 0.512,-0.337 l 0.185,0 0,-0.267 c -0.359,0 -0.718,0.02 -1.087,0.02 -0.369,0 -0.738,-0.01 -1.107,-0.02 l 0,0.267 0.184,0 c 0.288,0 0.493,0 0.493,0.337 l 0,5.71 c 0,0.666 -0.154,0.687 -0.544,0.8 l 0,0.164 c 0.41,0.133 0.841,0.318 1.056,0.441 0.113,0.061 0.195,0.112 0.226,0.112 0.061,0 0.082,-0.061 0.082,-0.143 l 0,-5.187 0.328,0.061 1.107,0.974 c 0.164,0.144 0.399,0.39 0.399,0.523 C -1.538,0 -1.876,0 -2.04,0 l 0,0.267 c 0.359,-0.011 0.728,-0.021 1.087,-0.021 0.318,0 0.635,0.01 0.953,0.021 L 0,0 z"
                   id="path3458"
                   style="fill:#000000;fill-opacity:1;fill-rule:nonzero;stroke:none"
                   inkscape:connector-curvature="0" />
              </g>
              <g
                 transform="translate(833.6553,839.049)"
                 id="g3460">
                <path
                   d="m 0,0 c -0.021,-0.092 -0.021,-0.246 0,-0.595 0.062,-0.973 0.687,-1.773 1.507,-1.773 0.564,0 1.004,0.307 1.384,0.687 L 3.034,-1.825 C 2.563,-2.45 1.979,-2.983 1.138,-2.983 c -1.63,0 -1.958,1.579 -1.958,2.235 0,2.009 1.353,2.603 2.07,2.603 0.831,0 1.723,-0.522 1.733,-1.609 0,-0.062 0,-0.123 -0.01,-0.185 L 2.881,0 0,0 z m 1.814,0.328 c 0.257,0 0.287,0.133 0.287,0.256 0,0.523 -0.317,0.943 -0.891,0.943 -0.626,0 -1.056,-0.461 -1.179,-1.199 l 1.783,0 z"
                   id="path3462"
                   style="fill:#000000;fill-opacity:1;fill-rule:nonzero;stroke:none"
                   inkscape:connector-curvature="0" />
              </g>
              <g
                 transform="translate(838.304,839.5411)"
                 id="g3464">
                <path
                   d="m 0,0 c 0,0.379 -0.113,0.481 -0.595,0.676 l 0,0.195 c 0.441,0.144 0.861,0.277 1.353,0.492 0.031,0 0.062,-0.02 0.062,-0.102 l 0,-0.667 c 0.584,0.421 1.086,0.769 1.773,0.769 0.872,0 1.179,-0.636 1.179,-1.435 l 0,-2.645 c 0,-0.338 0.226,-0.338 0.513,-0.338 l 0.184,0 0,-0.266 c -0.359,0 -0.718,0.02 -1.086,0.02 -0.37,0 -0.738,-0.01 -1.107,-0.02 l 0,0.266 0.184,0 c 0.287,0 0.492,0 0.492,0.338 l 0,2.655 c 0,0.584 -0.359,0.871 -0.943,0.871 -0.328,0 -0.851,-0.266 -1.189,-0.492 l 0,-3.034 c 0,-0.338 0.225,-0.338 0.513,-0.338 l 0.184,0 0,-0.266 c -0.359,0 -0.718,0.02 -1.087,0.02 -0.369,0 -0.738,-0.01 -1.107,-0.02 l 0,0.266 0.185,0 c 0.287,0 0.492,0 0.492,0.338 L 0,0 z"
                   id="path3466"
                   style="fill:#000000;fill-opacity:1;fill-rule:nonzero;stroke:none"
                   inkscape:connector-curvature="0" />
              </g>
              <g
                 transform="translate(848.1963,840.4839)"
                 id="g3468">
                <path
                   d="m 0,0 c -0.554,0 -0.892,-0.226 -1.271,-0.574 l -1.138,-1.025 1.732,-1.917 c 0.41,-0.451 0.482,-0.481 0.953,-0.502 l 0,-0.246 c -0.266,0.01 -0.44,0.02 -0.799,0.02 -0.226,0 -0.461,-0.01 -0.687,-0.02 -0.102,0.143 -0.215,0.287 -0.328,0.42 l -1.63,1.845 -0.205,0 0,-1.661 c 0,-0.337 0.226,-0.337 0.513,-0.337 l 0.185,0 0,-0.267 c -0.359,0 -0.718,0.02 -1.087,0.02 -0.369,0 -0.738,-0.01 -1.107,-0.02 l 0,0.267 0.184,0 c 0.287,0 0.492,0 0.492,0.337 l 0,5.71 c 0,0.666 -0.153,0.687 -0.543,0.8 l 0,0.164 c 0.41,0.133 0.84,0.318 1.056,0.441 0.113,0.061 0.195,0.112 0.225,0.112 0.062,0 0.082,-0.061 0.082,-0.143 l 0,-5.187 0.329,0.061 1.106,0.974 c 0.165,0.144 0.4,0.39 0.4,0.523 C -1.538,0 -1.876,0 -2.04,0 l 0,0.267 c 0.359,-0.011 0.728,-0.021 1.086,-0.021 0.318,0 0.636,0.01 0.954,0.021 L 0,0 z"
                   id="path3470"
                   style="fill:#000000;fill-opacity:1;fill-rule:nonzero;stroke:none"
                   inkscape:connector-curvature="0" />
              </g>
              <g
                 transform="translate(853.2603,836.6198)"
                 id="g3472">
                <path
                   d="m 0,0 c -0.287,-0.267 -0.604,-0.554 -1.015,-0.554 -0.42,0 -0.615,0.39 -0.635,0.759 -0.482,-0.441 -0.943,-0.759 -1.579,-0.759 -0.656,0 -1.107,0.451 -1.107,0.994 0.041,0.821 0.461,0.974 2.675,1.733 l 0,0.677 c 0,0.573 -0.338,0.881 -0.994,0.881 -0.451,0 -0.759,-0.256 -0.779,-0.718 0,-0.287 -0.328,-0.43 -0.574,-0.43 -0.154,0 -0.184,0.133 -0.184,0.205 0,0.543 0.461,0.799 1.178,1.168 0.359,0.185 0.534,0.329 0.923,0.329 0.461,0 1.251,-0.298 1.251,-0.862 l 0,-2.839 C -0.84,0.164 -0.697,0 -0.471,0 c 0.133,0 0.286,0.061 0.379,0.174 L 0,0 z M -1.661,1.875 C -2.183,1.67 -3.516,1.435 -3.516,0.666 c 0,-0.4 0.328,-0.738 0.728,-0.738 0.482,0 0.789,0.297 1.127,0.594 l 0,1.353 z"
                   id="path3474"
                   style="fill:#000000;fill-opacity:1;fill-rule:nonzero;stroke:none"
                   inkscape:connector-curvature="0" />
              </g>
              <g
                 transform="translate(854.4712,839.6026)"
                 id="g3476">
                <path
                   d="m 0,0 c 0,0.451 -0.154,0.512 -0.533,0.717 l 0,0.164 C -0.051,1.025 0.513,1.22 0.564,1.251 0.636,1.292 0.697,1.302 0.749,1.302 0.8,1.302 0.82,1.24 0.82,1.158 l 0,-0.625 c 0.564,0.4 1.035,0.769 1.773,0.769 0.544,0 0.944,-0.257 1.087,-0.79 0.553,0.369 1.025,0.79 1.763,0.79 0.892,0 1.22,-0.697 1.22,-1.446 l 0,-2.634 c 0,-0.338 0.226,-0.338 0.512,-0.338 l 0.154,0 0,-0.267 c -0.328,0 -0.686,0.021 -1.056,0.021 -0.369,0 -0.738,-0.011 -1.106,-0.021 l 0,0.267 0.184,0 c 0.287,0 0.492,0 0.492,0.338 l 0,2.265 c 0,0.646 -0.134,1.261 -0.892,1.261 -0.4,0 -0.974,-0.328 -1.209,-0.492 l 0,-3.034 c 0,-0.338 0.235,-0.338 0.522,-0.338 l 0.185,0 0,-0.267 c -0.359,0 -0.728,0.021 -1.097,0.021 -0.369,0 -0.738,-0.011 -1.107,-0.021 l 0,0.267 0.184,0 c 0.287,0 0.492,0 0.492,0.338 l 0,2.265 c 0,0.646 -0.133,1.261 -0.891,1.261 -0.4,0 -0.974,-0.328 -1.21,-0.492 l 0,-3.034 c 0,-0.338 0.225,-0.338 0.513,-0.338 l 0.184,0 0,-0.267 c -0.359,0 -0.717,0.021 -1.086,0.021 -0.37,0 -0.739,-0.011 -1.138,-0.021 l 0,0.267 0.215,0 c 0.287,0 0.492,0 0.492,0.338 L 0,0 z"
                   id="path3478"
                   style="fill:#000000;fill-opacity:1;fill-rule:nonzero;stroke:none"
                   inkscape:connector-curvature="0" />
              </g>
              <g
                 transform="translate(863.2148,839.049)"
                 id="g3480">
                <path
                   d="m 0,0 c -0.021,-0.092 -0.021,-0.246 0,-0.595 0.062,-0.973 0.687,-1.773 1.507,-1.773 0.564,0 1.005,0.307 1.384,0.687 L 3.034,-1.825 C 2.563,-2.45 1.979,-2.983 1.138,-2.983 c -1.63,0 -1.958,1.579 -1.958,2.235 0,2.009 1.353,2.603 2.07,2.603 0.831,0 1.723,-0.522 1.733,-1.609 0,-0.062 0,-0.123 -0.01,-0.185 L 2.88,0 0,0 z m 1.814,0.328 c 0.257,0 0.288,0.133 0.288,0.256 0,0.523 -0.318,0.943 -0.893,0.943 -0.625,0 -1.055,-0.461 -1.178,-1.199 l 1.783,0 z"
                   id="path3482"
                   style="fill:#000000;fill-opacity:1;fill-rule:nonzero;stroke:none"
                   inkscape:connector-curvature="0" />
              </g>
              <g
                 transform="translate(866.7407,836.4865)"
                 id="g3484">
                <path
                   d="m 0,0 0.277,0 c 0.287,0 0.492,0 0.492,0.338 l 0,2.881 c 0,0.317 -0.379,0.379 -0.533,0.461 l 0,0.153 c 0.748,0.318 1.158,0.585 1.25,0.585 0.062,0 0.093,-0.031 0.093,-0.133 l 0,-0.923 0.02,0 c 0.257,0.4 0.687,1.056 1.312,1.056 0.256,0 0.585,-0.174 0.585,-0.543 0,-0.277 -0.195,-0.524 -0.482,-0.524 -0.318,0 -0.318,0.247 -0.677,0.247 -0.174,0 -0.748,-0.236 -0.748,-0.851 l 0,-2.409 C 1.589,0 1.794,0 2.081,0 l 0.574,0 0,-0.267 C 2.091,-0.256 1.661,-0.246 1.22,-0.246 0.799,-0.246 0.369,-0.256 0,-0.267 L 0,0 z"
                   id="path3486"
                   style="fill:#000000;fill-opacity:1;fill-rule:nonzero;stroke:none"
                   inkscape:connector-curvature="0" />
              </g>
              <g
                 transform="translate(772.8289,843.6666)"
                 id="g3488">
                <path
                   d="M 0,0 C 0.082,0.015 0.141,0.042 0.195,0.066 0.221,0.051 0.249,0.038 0.249,0.038 l 1.17,-6.583 C 1.48,-6.985 1.685,-7.211 2.157,-7.18 L 2.106,-7.447 c -0.431,0 -0.861,0.021 -1.292,0.021 -0.369,0 -0.738,-0.011 -1.107,-0.021 l 0.051,0.267 c 0.308,-0.01 0.808,-0.021 0.747,0.389 l -0.308,2.03 -2.428,0 -0.84,-1.743 c -0.072,-0.153 -0.113,-0.277 -0.113,-0.369 0,-0.277 0.267,-0.307 0.441,-0.307 l 0.307,0 -0.051,-0.267 c -0.4,0 -0.81,0.021 -1.21,0.021 -0.317,0 -0.625,-0.011 -0.943,-0.021 l 0.051,0.267 c 0.482,-0.01 0.718,0.286 0.923,0.686 L 0,0 z m -2.005,-4.34 2.151,0 -0.46,3.093 -0.024,0.001 -1.667,-3.094 z"
                   id="path3490"
                   style="fill:#000000;fill-opacity:1;fill-rule:nonzero;stroke:none"
                   inkscape:connector-curvature="0" />
              </g>
            </g>
          </g>
        </g>
      </g>
    </g>
  </g>
</svg>
