<?xml version="1.0" encoding="UTF-8" standalone="no"?>
<!-- Created with Inkscape (http://www.inkscape.org/) -->

<svg
   xmlns:dc="http://purl.org/dc/elements/1.1/"
   xmlns:cc="http://creativecommons.org/ns#"
   xmlns:rdf="http://www.w3.org/1999/02/22-rdf-syntax-ns#"
   xmlns:svg="http://www.w3.org/2000/svg"
   xmlns="http://www.w3.org/2000/svg"
   xmlns:sodipodi="http://sodipodi.sourceforge.net/DTD/sodipodi-0.dtd"
   xmlns:inkscape="http://www.inkscape.org/namespaces/inkscape"
   version="1.1"
   width="167.4444"
   height="64.796997"
   id="svg3250"
   inkscape:version="0.48.4 r9939"
   sodipodi:docname="cbs_bw.svg">
  <sodipodi:namedview
     pagecolor="#ffffff"
     bordercolor="#666666"
     borderopacity="1"
     objecttolerance="10"
     gridtolerance="10"
     guidetolerance="10"
     inkscape:pageopacity="0"
     inkscape:pageshadow="2"
     inkscape:window-width="640"
     inkscape:window-height="480"
     id="namedview39"
     showgrid="false"
     fit-margin-top="10"
     fit-margin-left="10"
     fit-margin-right="10"
     fit-margin-bottom="10"
     inkscape:zoom="1.9804076"
     inkscape:cx="83.722198"
     inkscape:cy="32.3985"
     inkscape:window-x="0"
     inkscape:window-y="34"
     inkscape:window-maximized="0"
     inkscape:current-layer="svg3250" />
  <defs
     id="defs3252" />
  <metadata
     id="metadata3255">
    <rdf:RDF>
      <cc:Work
         rdf:about="">
        <dc:format>image/svg+xml</dc:format>
        <dc:type
           rdf:resource="http://purl.org/dc/dcmitype/StillImage" />
        <dc:title />
      </cc:Work>
    </rdf:RDF>
  </metadata>
  <g
     transform="translate(-291.2778,-499.96378)"
     id="layer1">
    <path
       d="m 343.40318,538.18741 c -2.6275,0 -3.54375,-1.6575 -3.54375,-4.64875 0,-2.9375 0.91625,-4.78375 3.54375,-4.78375 0.78125,0 1.455,0.0937 1.81875,0.22875 l 0.095,0.12125 -0.0675,1.28 -0.135,0.0675 c -0.35,-0.1075 -0.91625,-0.18875 -1.44125,-0.18875 -1.55,0 -1.90125,0.80875 -1.90125,3.2875 0,2.31875 0.35125,3.1275 1.90125,3.1275 0.49875,0 1.0775,-0.0813 1.415,-0.175 l 0.175,0.0663 0.0937,1.2 -0.0537,0.16125 c -0.47125,0.14875 -1.11875,0.25625 -1.9,0.25625"
       id="path3522"
       style="fill:#000000;fill-opacity:1;fill-rule:nonzero;stroke:none"
       inkscape:connector-curvature="0" />
    <path
       d="m 349.93768,538.18741 c -2.6275,0 -3.4625,-1.4425 -3.4625,-3.71875 0,-2.4125 1.02375,-3.76 3.22,-3.76 2.15625,0 2.8025,1.1725 2.8025,3.12625 0,0.91625 -0.04,1.14625 -0.36375,1.14625 l -3.8,0 -0.08,0.08 c 0,1.4425 0.68625,1.80625 1.94,1.80625 0.6875,0 1.4825,-0.17625 1.9,-0.31 l 0.14875,0.0662 0.0937,1.05125 -0.0937,0.1225 c -0.52625,0.24125 -1.36125,0.39 -2.305,0.39 m -1.63,-4.29875 2.4925,0 c 0.1075,0 0.14875,-0.0263 0.14875,-0.39125 0,-1.02375 -0.25625,-1.5625 -1.28125,-1.5625 -1.19875,0 -1.44125,0.80875 -1.44125,1.86 l 0.0813,0.0937"
       id="path3526"
       style="fill:#000000;fill-opacity:1;fill-rule:nonzero;stroke:none"
       inkscape:connector-curvature="0" />
    <path
       d="m 358.7498,538.05278 -0.135,-0.135 0,-4.555 c 0,-1.02375 -0.22875,-1.29375 -1.3075,-1.29375 -0.40375,0 -0.7275,0.0275 -0.95625,0.0812 l -0.135,0.135 0,5.6325 -0.135,0.135 -1.495,0 -0.135,-0.135 0,-6.79125 0.135,-0.135 c 0.7275,-0.12125 1.94,-0.28375 2.78875,-0.28375 2.3725,0 3.00625,0.6075 3.00625,2.575 l 0,4.635 -0.135,0.135 -1.49625,0 z"
       id="path3530"
       style="fill:#000000;fill-opacity:1;fill-rule:nonzero;stroke:none"
       inkscape:connector-curvature="0" />
    <path
       d="m 364.66455,538.18741 c -1.07875,0 -1.63125,-0.49875 -1.63125,-1.4825 l 0,-4.42 -0.08,-0.0812 -0.93,0 -0.135,-0.13375 0,-1.09125 0.135,-0.135 0.93,0 0.08,-0.0812 0,-1.685 0.135,-0.13375 1.49625,0 0.135,0.13375 0,1.685 0.08,0.0812 1.1325,0 0.135,0.135 0,1.09125 -0.135,0.13375 -1.1325,0 -0.08,0.0812 0,4.0025 c 0,0.445 0.1475,0.56625 0.57875,0.56625 l 0.4175,0 0.135,0.135 -0.04,0.9025 -0.135,0.175 c -0.29625,0.0675 -0.71375,0.12125 -1.09125,0.12125"
       id="path3534"
       style="fill:#000000;fill-opacity:1;fill-rule:nonzero;stroke:none"
       inkscape:connector-curvature="0" />
    <path
       d="m 370.47155,532.09653 c -0.215,0 -0.56625,0.0275 -0.78125,0.1075 l -0.095,0.14875 0,5.565 -0.1475,0.135 -1.4825,0 -0.135,-0.135 0,-6.79125 0.135,-0.135 c 0.67375,-0.14875 1.67125,-0.28375 2.53375,-0.28375 0.445,0 0.7275,0.0138 1.09125,0.055 l 0.0813,0.1075 -0.0675,1.24 -0.095,0.0675 c -0.3225,-0.0538 -0.66,-0.0812 -1.0375,-0.0812"
       id="path3538"
       style="fill:#000000;fill-opacity:1;fill-rule:nonzero;stroke:none"
       inkscape:connector-curvature="0" />
    <path
       d="m 373.58368,532.25803 -0.2025,-0.0675 -0.0937,-1.0375 0.0813,-0.18875 c 0.51125,-0.1475 1.455,-0.25625 2.3575,-0.25625 1.67125,0 2.68125,0.56625 2.68125,2.14375 l 0,4.89125 c 0,0.0813 -0.0263,0.1475 -0.175,0.2025 -0.47125,0.1475 -1.4275,0.24125 -2.3575,0.24125 -2.42625,0 -3.15375,-0.4575 -3.15375,-2.0075 0,-1.37375 0.31,-1.99375 2.29125,-2.23625 l 1.59,-0.2025 0.08,-0.0813 0,-0.53875 c 0,-0.80875 -0.37625,-0.9975 -1.4275,-0.9975 -0.485,0 -1.24,0.0675 -1.67125,0.135 m 3.09875,2.66875 -0.08,-0.0812 -0.9025,0 c -0.97125,0 -1.2675,0.175 -1.2675,1.14625 0,0.95625 0.2425,1.06375 1.3075,1.06375 0.31,0 0.67375,-0.0275 0.84875,-0.0675 l 0.0937,-0.0937 0,-1.9675 z"
       id="path3542"
       style="fill:#000000;fill-opacity:1;fill-rule:nonzero;stroke:none"
       inkscape:connector-curvature="0" />
    <path
       d="m 381.10218,532.25803 -0.2025,-0.0675 -0.0937,-1.0375 0.0813,-0.18875 c 0.51125,-0.1475 1.455,-0.25625 2.3575,-0.25625 1.67125,0 2.68125,0.56625 2.68125,2.14375 l 0,4.89125 c 0,0.0813 -0.0263,0.1475 -0.175,0.2025 -0.47125,0.1475 -1.4275,0.24125 -2.3575,0.24125 -2.42625,0 -3.15375,-0.4575 -3.15375,-2.0075 0,-1.37375 0.31,-1.99375 2.29125,-2.23625 l 1.59,-0.2025 0.08,-0.0813 0,-0.53875 c 0,-0.80875 -0.37625,-0.9975 -1.4275,-0.9975 -0.485,0 -1.24,0.0675 -1.67125,0.135 m 3.09875,2.66875 -0.08,-0.0812 -0.90375,0 c -0.97,0 -1.26625,0.175 -1.26625,1.14625 0,0.95625 0.2425,1.06375 1.3075,1.06375 0.31,0 0.67375,-0.0275 0.84875,-0.0675 l 0.0937,-0.0937 0,-1.9675 z"
       id="path3546"
       style="fill:#000000;fill-opacity:1;fill-rule:nonzero;stroke:none"
       inkscape:connector-curvature="0" />
    <path
       d="m 389.88693,538.18741 c -1.11875,0 -1.68375,-0.39 -1.68375,-1.64375 l 0,-8.2475 0.13375,-0.14875 1.49625,0 0.135,0.14875 0,8.005 c 0,0.43125 0.175,0.56625 0.56625,0.56625 l 0.43125,0 0.13375,0.13375 -0.04,0.89 -0.135,0.16125 c -0.29625,0.0812 -0.62,0.135 -1.0375,0.135"
       id="path3550"
       style="fill:#000000;fill-opacity:1;fill-rule:nonzero;stroke:none"
       inkscape:connector-curvature="0" />
    <path
       d="m 398.83393,528.88916 c 1.80625,0 2.9375,0.5525 2.9375,2.29125 0,1.2525 -0.5125,1.60375 -1.0375,1.9125 -0.135,0.0813 -0.1625,0.10875 -0.1625,0.17625 l 0.0812,0.1075 c 0.67375,0.27 1.3075,0.78125 1.3075,2.2375 0,1.8325 -1.36125,2.43875 -2.70875,2.43875 l -3.315,0 -0.135,-0.135 0,-8.89375 0.135,-0.135 2.8975,0 z m -0.25625,3.94875 c 0.89,-0.0412 1.375,-0.3375 1.375,-1.4425 0,-0.8625 -0.32375,-1.2125 -1.42875,-1.2125 l -0.84875,0 -0.095,0.0937 0,2.45375 0.12125,0.1075 0.87625,0 z m -0.1475,3.89375 c 1.2925,0 1.68375,-0.255 1.68375,-1.37375 0,-1.14625 -0.67375,-1.38875 -1.59,-1.38875 l -0.8225,0 -0.12125,0.12125 0,2.5475 0.095,0.0937 0.755,0 z"
       id="path3554"
       style="fill:#000000;fill-opacity:1;fill-rule:nonzero;stroke:none"
       inkscape:connector-curvature="0" />
    <path
       d="m 405.62468,530.84316 0.135,0.135 0,4.47375 c 0,1.02375 0.26875,1.33375 1.36125,1.33375 0.33625,0 0.66,-0.0263 0.91625,-0.08 l 0.12,-0.135 0,-5.5925 0.13625,-0.135 1.48125,0 0.135,0.135 0,6.79125 -0.135,0.135 c -0.7275,0.135 -1.84625,0.2825 -2.68125,0.2825 -2.3725,0 -3.1,-0.64625 -3.1,-2.61375 l 0,-4.595 0.135,-0.135 1.49625,0 z"
       id="path3558"
       style="fill:#000000;fill-opacity:1;fill-rule:nonzero;stroke:none"
       inkscape:connector-curvature="0" />
    <path
       d="m 414.88143,532.09653 c -0.21625,0 -0.56625,0.0275 -0.78125,0.1075 l -0.095,0.14875 0,5.565 -0.14875,0.135 -1.48125,0 -0.135,-0.135 0,-6.79125 0.135,-0.135 c 0.6725,-0.14875 1.67125,-0.28375 2.53375,-0.28375 0.44375,0 0.72625,0.0138 1.09125,0.055 l 0.08,0.1075 -0.0675,1.24 -0.0937,0.0675 c -0.32375,-0.0538 -0.66125,-0.0812 -1.0375,-0.0812"
       id="path3562"
       style="fill:#000000;fill-opacity:1;fill-rule:nonzero;stroke:none"
       inkscape:connector-curvature="0" />
    <path
       d="m 420.55317,538.18741 c -2.62749,0 -3.4625,-1.4425 -3.4625,-3.71875 0,-2.4125 1.02375,-3.76 3.22,-3.76 2.15625,0 2.80251,1.1725 2.80251,3.12625 0,0.91625 -0.04,1.14625 -0.36375,1.14625 l -3.80001,0 -0.08,0.08 c 0,1.4425 0.68625,1.80625 1.94,1.80625 0.6875,0 1.4825,-0.17625 1.9,-0.31 l 0.14876,0.0662 0.0937,1.05125 -0.0937,0.1225 c -0.52625,0.24125 -1.36126,0.39 -2.30501,0.39 m -1.62999,-4.29875 2.49249,0 c 0.10875,0 0.14876,-0.0263 0.14876,-0.39125 0,-1.02375 -0.25626,-1.5625 -1.28,-1.5625 -1.20001,0 -1.44251,0.80875 -1.44251,1.86 l 0.0813,0.0937"
       id="path3566"
       style="fill:#000000;fill-opacity:1;fill-rule:nonzero;stroke:none"
       inkscape:connector-curvature="0" />
    <path
       d="m 425.59205,532.25803 -0.2025,-0.0675 -0.0937,-1.0375 0.0812,-0.18875 c 0.51126,-0.1475 1.455,-0.25625 2.3575,-0.25625 1.67125,0 2.68125,0.56625 2.68125,2.14375 l 0,4.89125 c 0,0.0813 -0.0262,0.1475 -0.175,0.2025 -0.47125,0.1475 -1.4275,0.24125 -2.35749,0.24125 -2.42626,0 -3.15375,-0.4575 -3.15375,-2.0075 0,-1.37375 0.31,-1.99375 2.29124,-2.23625 l 1.59,-0.2025 0.08,-0.0813 0,-0.53875 c 0,-0.80875 -0.37625,-0.9975 -1.42749,-0.9975 -0.485,0 -1.24,0.0675 -1.67125,0.135 m 3.09874,2.66875 -0.08,-0.0812 -0.9025,0 c -0.97125,0 -1.2675,0.175 -1.2675,1.14625 0,0.95625 0.24251,1.06375 1.30751,1.06375 0.31,0 0.67374,-0.0275 0.84874,-0.0675 l 0.0937,-0.0937 0,-1.9675 z"
       id="path3570"
       style="fill:#000000;fill-opacity:1;fill-rule:nonzero;stroke:none"
       inkscape:connector-curvature="0" />
    <path
       d="m 434.14843,530.84316 0.13499,0.135 0,4.47375 c 0,1.02375 0.26876,1.33375 1.36126,1.33375 0.33625,0 0.66,-0.0263 0.91624,-0.08 l 0.12001,-0.135 0,-5.5925 0.13624,-0.135 1.48126,0 0.135,0.135 0,6.79125 -0.135,0.135 c -0.7275,0.135 -1.84625,0.2825 -2.68125,0.2825 -2.37125,0 -3.1,-0.64625 -3.1,-2.61375 l 0,-4.595 0.135,-0.135 1.49625,0 z"
       id="path3574"
       style="fill:#000000;fill-opacity:1;fill-rule:nonzero;stroke:none"
       inkscape:connector-curvature="0" />
    <path
       d="m 343.72643,554.58891 -2.4125,0 -0.13375,-0.1075 c -0.54,-1.69875 -1.685,-6.01 -1.87375,-6.98125 l 0.12125,-0.12125 1.6175,0 0.12125,0.12125 c 0.32375,1.71125 0.87625,4.19125 1.22625,5.5525 0.0138,0.0675 0.0538,0.08 0.175,0.08 0.135,0 0.175,-0.0125 0.18875,-0.08 0.3775,-1.36125 0.91625,-3.84125 1.24,-5.5525 l 0.175,-0.12125 1.4825,0 0.1075,0.135 c -0.175,0.9575 -1.3475,5.33625 -1.87375,6.9675 l -0.16125,0.1075"
       id="path3578"
       style="fill:#000000;fill-opacity:1;fill-rule:nonzero;stroke:none"
       inkscape:connector-curvature="0" />
    <path
       d="m 352.2153,553.99566 c -0.49875,0.5125 -1.2125,0.7275 -2.345,0.7275 -1.13125,0 -1.805,-0.215 -2.29125,-0.7275 -0.525,-0.56625 -0.9025,-1.725 -0.9025,-3.0725 0,-1.36 0.36375,-2.425 0.9025,-2.9775 0.48625,-0.52625 1.21375,-0.70125 2.31875,-0.70125 1.145,0 1.81875,0.18875 2.3175,0.70125 0.5125,0.565 0.8625,1.6175 0.8625,2.9775 0,1.3475 -0.35,2.50625 -0.8625,3.0725 m -3.32875,-0.91625 c 0.175,0.2025 0.405,0.29625 0.98375,0.29625 0.62,0 0.84875,-0.0937 1.01125,-0.29625 0.26875,-0.31 0.40375,-1.185 0.40375,-2.16875 0,-0.99875 -0.135,-1.73875 -0.40375,-2.0625 -0.1625,-0.2025 -0.39125,-0.28375 -0.98375,-0.28375 -0.60625,0 -0.83625,0.0813 -1.01125,0.28375 -0.27,0.32375 -0.4175,1.06375 -0.4175,2.0625 0,0.98375 0.1475,1.85875 0.4175,2.16875"
       id="path3582"
       style="fill:#000000;fill-opacity:1;fill-rule:nonzero;stroke:none"
       inkscape:connector-curvature="0" />
    <path
       d="m 359.98955,553.99566 c -0.49875,0.5125 -1.2125,0.7275 -2.345,0.7275 -1.13125,0 -1.805,-0.215 -2.29,-0.7275 -0.52625,-0.56625 -0.90375,-1.725 -0.90375,-3.0725 0,-1.36 0.36375,-2.425 0.90375,-2.9775 0.485,-0.52625 1.2125,-0.70125 2.3175,-0.70125 1.145,0 1.81875,0.18875 2.3175,0.70125 0.5125,0.565 0.8625,1.6175 0.8625,2.9775 0,1.3475 -0.35,2.50625 -0.8625,3.0725 m -3.32875,-0.91625 c 0.175,0.2025 0.40375,0.29625 0.98375,0.29625 0.62,0 0.84875,-0.0937 1.01125,-0.29625 0.26875,-0.31 0.40375,-1.185 0.40375,-2.16875 0,-0.99875 -0.135,-1.73875 -0.40375,-2.0625 -0.1625,-0.2025 -0.39125,-0.28375 -0.98375,-0.28375 -0.6075,0 -0.83625,0.0813 -1.01125,0.28375 -0.26875,0.32375 -0.4175,1.06375 -0.4175,2.0625 0,0.98375 0.14875,1.85875 0.4175,2.16875"
       id="path3586"
       style="fill:#000000;fill-opacity:1;fill-rule:nonzero;stroke:none"
       inkscape:connector-curvature="0" />
    <path
       d="m 365.31118,548.63253 c -0.215,0 -0.56625,0.0275 -0.78125,0.1075 l -0.095,0.14875 0,5.565 -0.1475,0.135 -1.4825,0 -0.135,-0.135 0,-6.79125 0.135,-0.135 c 0.67375,-0.1475 1.67125,-0.28375 2.53375,-0.28375 0.445,0 0.7275,0.0137 1.09125,0.055 l 0.0813,0.1075 -0.0675,1.24 -0.095,0.0675 c -0.32375,-0.0538 -0.66,-0.0813 -1.0375,-0.0813"
       id="path3590"
       style="fill:#000000;fill-opacity:1;fill-rule:nonzero;stroke:none"
       inkscape:connector-curvature="0" />
    <path
       d="m 370.78105,550.93703 c 0,-2.46625 0.91625,-3.67875 3.1125,-3.67875 0.45875,0 0.97125,0.08 1.145,0.08 l 0.095,-0.12125 0,-2.3975 0.135,-0.135 1.495,0 0.13625,0.135 0,9.44625 c 0,0.0675 -0.0138,0.12125 -0.13625,0.175 -0.44375,0.18875 -1.64375,0.2825 -2.50625,0.2825 -2.8025,0 -3.47625,-1.02375 -3.47625,-3.78625 m 4.3525,-2.1425 -0.1075,-0.17625 c -0.18875,-0.04 -0.485,-0.0663 -0.78125,-0.0663 -1.22625,0 -1.63125,0.40375 -1.63125,2.4125 0,1.98 0.23,2.47875 1.6575,2.47875 0.21625,0 0.5525,-0.0137 0.74125,-0.0675 l 0.12125,-0.13375 0,-4.4475 z"
       id="path3594"
       style="fill:#000000;fill-opacity:1;fill-rule:nonzero;stroke:none"
       inkscape:connector-curvature="0" />
    <path
       d="m 382.05905,554.72353 c -2.6275,0 -3.46375,-1.4425 -3.46375,-3.72 0,-2.41125 1.025,-3.75875 3.22125,-3.75875 2.15625,0 2.8025,1.17125 2.8025,3.12625 0,0.91625 -0.04,1.145 -0.36375,1.145 l -3.8,0 -0.0813,0.0812 c 0,1.4425 0.6875,1.80625 1.94125,1.80625 0.6875,0 1.48125,-0.17625 1.9,-0.31 l 0.1475,0.0662 0.095,1.05125 -0.095,0.1225 c -0.525,0.24125 -1.36,0.39 -2.30375,0.39 m -1.63125,-4.29875 2.49375,0 c 0.1075,0 0.1475,-0.0263 0.1475,-0.39125 0,-1.02375 -0.255,-1.5625 -1.28,-1.5625 -1.19875,0 -1.44125,0.8075 -1.44125,1.86 l 0.08,0.0937"
       id="path3598"
       style="fill:#000000;fill-opacity:1;fill-rule:nonzero;stroke:none"
       inkscape:connector-curvature="0" />
    <path
       d="m 392.59518,546.81316 c -0.80875,0 -1.09125,0.27 -1.09125,0.94375 0,0.53875 0.175,0.78125 1.59,1.77875 1.13125,0.795 1.725,1.3875 1.725,2.70875 0,1.73875 -0.91625,2.43875 -2.61375,2.43875 -1.065,0 -2.00875,-0.12125 -2.53375,-0.2425 l -0.12125,-0.1075 0.0937,-1.2125 0.0937,-0.095 c 0.675,0.12125 1.375,0.18875 2.07625,0.18875 0.795,0 1.13125,-0.22875 1.13125,-0.97 0,-0.49875 -0.0537,-0.74125 -1.9,-2.1425 -1.145,-0.8625 -1.3875,-1.4825 -1.3875,-2.42625 0,-1.80625 0.9975,-2.3175 2.95125,-2.3175 0.7675,0 1.75125,0.135 2.075,0.26875 l 0.0675,0.12125 -0.0813,1.1725 -0.08,0.0812 c -0.48625,-0.12125 -1.4025,-0.18875 -1.995,-0.18875"
       id="path3602"
       style="fill:#000000;fill-opacity:1;fill-rule:nonzero;stroke:none"
       inkscape:connector-curvature="0" />
    <path
       d="m 398.90093,554.72353 c -1.07875,0 -1.63125,-0.49875 -1.63125,-1.4825 l 0,-4.42 -0.08,-0.0812 -0.93,0 -0.135,-0.13375 0,-1.0925 0.135,-0.13375 0.93,0 0.08,-0.0812 0,-1.685 0.135,-0.13375 1.49625,0 0.135,0.13375 0,1.685 0.08,0.0812 1.1325,0 0.135,0.13375 0,1.0925 -0.135,0.13375 -1.1325,0 -0.08,0.0812 0,4.0025 c 0,0.445 0.1475,0.56625 0.57875,0.56625 l 0.4175,0 0.135,0.135 -0.04,0.9025 -0.135,0.175 c -0.29625,0.0675 -0.71375,0.12125 -1.09125,0.12125"
       id="path3606"
       style="fill:#000000;fill-opacity:1;fill-rule:nonzero;stroke:none"
       inkscape:connector-curvature="0" />
    <path
       d="m 402.45781,548.79403 -0.2025,-0.0675 -0.0937,-1.0375 0.08,-0.18875 c 0.5125,-0.14875 1.45625,-0.25625 2.35875,-0.25625 1.67125,0 2.68125,0.56625 2.68125,2.14375 l 0,4.89125 c 0,0.0812 -0.0263,0.1475 -0.175,0.2025 -0.47125,0.1475 -1.4275,0.2425 -2.3575,0.2425 -2.42625,0 -3.15375,-0.45875 -3.15375,-2.00875 0,-1.37375 0.31,-1.99375 2.29125,-2.23625 l 1.59,-0.2025 0.08,-0.08 0,-0.54 c 0,-0.80875 -0.3775,-0.9975 -1.4275,-0.9975 -0.48625,0 -1.24,0.0675 -1.67125,0.135 m 3.09875,2.66875 -0.08,-0.0812 -0.90375,0 c -0.97,0 -1.26625,0.175 -1.26625,1.145 0,0.9575 0.2425,1.065 1.3075,1.065 0.31,0 0.67375,-0.0275 0.84875,-0.0675 l 0.0937,-0.0937 0,-1.9675 z"
       id="path3610"
       style="fill:#000000;fill-opacity:1;fill-rule:nonzero;stroke:none"
       inkscape:connector-curvature="0" />
    <path
       d="m 411.62006,554.72353 c -1.07875,0 -1.63125,-0.49875 -1.63125,-1.4825 l 0,-4.42 -0.08,-0.0812 -0.93,0 -0.135,-0.13375 0,-1.0925 0.135,-0.13375 0.93,0 0.08,-0.0812 0,-1.685 0.135,-0.13375 1.49625,0 0.135,0.13375 0,1.685 0.08,0.0812 1.1325,0 0.135,0.13375 0,1.0925 -0.135,0.13375 -1.1325,0 -0.08,0.0812 0,4.0025 c 0,0.445 0.1475,0.56625 0.57875,0.56625 l 0.4175,0 0.135,0.135 -0.04,0.9025 -0.135,0.175 c -0.29625,0.0675 -0.71375,0.12125 -1.09125,0.12125"
       id="path3614"
       style="fill:#000000;fill-opacity:1;fill-rule:nonzero;stroke:none"
       inkscape:connector-curvature="0" />
    <path
       d="m 415.06868,546.17978 -0.13501,-0.135 0,-1.33375 0.13501,-0.135 1.57625,0 0.135,0.135 0,1.33375 -0.135,0.135 -1.57625,0 z m 0.0413,8.40875 -0.135,-0.135 0,-6.94 0.135,-0.13375 1.49499,0 0.13501,0.13375 0,6.94 -0.13501,0.135 -1.49499,0 z"
       id="path3618"
       style="fill:#000000;fill-opacity:1;fill-rule:nonzero;stroke:none"
       inkscape:connector-curvature="0" />
    <path
       d="m 418.69306,554.46753 0.0675,-1.1725 0.10751,-0.0538 c 0.445,0.0937 1.09125,0.1475 1.53625,0.1475 0.9575,0 1.105,-0.0937 1.105,-0.7675 0,-0.405 -0.22875,-0.60625 -1.29376,-1.33375 -1.09124,-0.7275 -1.46875,-1.105 -1.46875,-2.00875 0,-1.5225 0.80876,-2.035 2.56,-2.035 0.64751,0 1.38876,0.0675 1.80626,0.14875 l 0.0675,0.095 -0.0812,1.19875 -0.0937,0.0538 c -0.405,-0.0663 -0.98375,-0.135 -1.375,-0.135 -0.84875,0 -1.13125,0.055 -1.13125,0.63375 0,0.47125 0.22875,0.62 1.29249,1.28 1.18626,0.755 1.51001,1.25375 1.51001,2.08875 0,1.725 -0.94375,2.11625 -2.61375,2.11625 -0.7425,0 -1.4825,-0.0675 -1.91375,-0.14875 l -0.0812,-0.1075"
       id="path3622"
       style="fill:#000000;fill-opacity:1;fill-rule:nonzero;stroke:none"
       inkscape:connector-curvature="0" />
    <path
       d="m 427.22255,554.72353 c -1.07875,0 -1.63125,-0.49875 -1.63125,-1.4825 l 0,-4.42 -0.08,-0.0812 -0.93,0 -0.135,-0.13375 0,-1.0925 0.135,-0.13375 0.93,0 0.08,-0.0812 0,-1.685 0.135,-0.13375 1.49625,0 0.135,0.13375 0,1.685 0.08,0.0812 1.1325,0 0.135,0.13375 0,1.0925 -0.135,0.13375 -1.1325,0 -0.08,0.0812 0,4.0025 c 0,0.445 0.1475,0.56625 0.57875,0.56625 l 0.4175,0 0.135,0.135 -0.04,0.9025 -0.135,0.175 c -0.29625,0.0675 -0.71375,0.12125 -1.09125,0.12125"
       id="path3626"
       style="fill:#000000;fill-opacity:1;fill-rule:nonzero;stroke:none"
       inkscape:connector-curvature="0" />
    <path
       d="m 430.67117,546.17978 -0.135,-0.135 0,-1.33375 0.135,-0.135 1.57625,0 0.135,0.135 0,1.33375 -0.135,0.135 -1.57625,0 z m 0.0412,8.40875 -0.135,-0.135 0,-6.94 0.135,-0.13375 1.495,0 0.135,0.13375 0,6.94 -0.135,0.135 -1.495,0 z"
       id="path3630"
       style="fill:#000000;fill-opacity:1;fill-rule:nonzero;stroke:none"
       inkscape:connector-curvature="0" />
    <path
       d="m 437.94755,554.72353 c -2.6275,0 -3.4625,-1.4425 -3.4625,-3.72 0,-2.41125 1.02375,-3.75875 3.22,-3.75875 2.15625,0 2.8025,1.17125 2.8025,3.12625 0,0.91625 -0.04,1.145 -0.36375,1.145 l -3.79999,0 -0.08,0.0812 c 0,1.4425 0.68625,1.80625 1.94,1.80625 0.6875,0 1.48251,-0.17625 1.9,-0.31 l 0.14876,0.0662 0.0937,1.05125 -0.0937,0.1225 c -0.52626,0.24125 -1.36126,0.39 -2.30501,0.39 m -1.62999,-4.29875 2.4925,0 c 0.10874,0 0.14874,-0.0263 0.14874,-0.39125 0,-1.02375 -0.25625,-1.5625 -1.28,-1.5625 -1.2,0 -1.4425,0.8075 -1.4425,1.86 l 0.0813,0.0937"
       id="path3634"
       style="fill:#000000;fill-opacity:1;fill-rule:nonzero;stroke:none"
       inkscape:connector-curvature="0" />
    <path
       d="m 444.22642,549.93941 c 0,0.0813 0.0812,0.12125 0.2425,0.12125 0.13375,0 0.22875,-0.0125 0.27,-0.0538 0.5525,-0.7275 1.3475,-1.91375 1.72375,-2.50625 l 0.2025,-0.12125 1.7925,0 c 0.12125,0 0.2025,0.04 0.16125,0.12125 -0.215,0.31 -1.57625,2.04875 -2.385,3.005 l -0.08,0.16125 0.1075,0.19 c 0.57875,0.79375 2.1425,3.11125 2.43875,3.58375 0.0412,0.0675 0.0412,0.14875 -0.14875,0.14875 l -1.71125,0 -0.18875,-0.1075 c -0.44375,-0.7825 -1.415,-2.305 -1.8725,-3.0325 -0.04,-0.0675 -0.18875,-0.135 -0.3375,-0.135 -0.1875,0 -0.215,0.04 -0.215,0.12125 l 0,3.01875 -0.135,0.135 -1.4825,0 -0.13375,-0.135 0,-9.635 0.13375,-0.135 1.4825,0 0.135,0.135 0,5.12 z"
       id="path3638"
       style="fill:#000000;fill-opacity:1;fill-rule:nonzero;stroke:none"
       inkscape:connector-curvature="0" />
    <path
       d="m 312.41655,518.59328 0,2.41125 -5.35875,0 -1.685,0 0,1.68375 0,2.40875 0,1.68375 1.685,0 5.35875,0 0,2.415 -9.45375,0 0,-10.6025 9.45375,0 z m 1.68375,-1.68375 -11.29125,0 c -0.845,0 -1.53125,0.685 -1.53125,1.53125 l 0,12.44 12.8225,0 0,-5.78375 -7.0425,0 0,-2.40875 7.0425,0 0,-5.77875 z"
       id="path3642"
       style="fill:#280b0b;fill-opacity:1;fill-rule:nonzero;stroke:none"
       inkscape:connector-curvature="0" />
    <path
       d="m 320.3778,511.64753 0,5.26 0,1.685 1.68375,0 6.53125,0 0,10.60125 -10.62125,0 0,-17.54625 2.40625,0 z m -0.006,15.12625 1.685,0 2.4225,0 1.685,0 0,-1.685 0,-2.41 0,-1.685 -1.685,0 -2.4225,0 -1.685,0 0,1.685 0,2.41 0,1.685 z m 0.1588,-16.81 -4.24375,0 0,20.91375 13.99125,0 0,-12.43875 c 0,-0.845 -0.68625,-1.53125 -1.53125,-1.53125 l -6.685,0 0,-5.335 c 0,-0.845 -0.685,-1.60875 -1.53125,-1.60875 m 1.52625,12.715 2.42375,0 0,2.41125 -2.42375,0 0,-2.41125 z"
       id="path3646"
       style="fill:#280b0b;fill-opacity:1;fill-rule:nonzero;stroke:none"
       inkscape:connector-curvature="0" />
    <path
       d="m 328.5723,534.74303 0,2.44375 -21.49875,0 -1.685,0 0,1.685 0,2.1425 0,1.685 1.685,0 21.51125,0 0,10.3775 -25.615,0 0,-2.415 21.525,0 1.685,0 0,-1.685 0,-2.17625 0,-1.68375 -1.685,0 -21.52625,-0.005 -0.004,-10.36875 25.6075,0 z m 1.68375,-1.68375 -28.975,0 0.004,13.7375 23.21,0.004 0,2.17625 -23.21,0 0,4.2525 c 0,0.84625 0.68625,1.53125 1.53125,1.53125 l 25.92125,0 c 0.84625,0 1.53125,-0.685 1.53125,-1.53125 l 0,-12.215 -23.195,0 0,-2.1425 23.1825,0 0,-5.8125 z"
       id="path3650"
       style="fill:#280b0b;fill-opacity:1;fill-rule:nonzero;stroke:none"
       inkscape:connector-curvature="0" />
  </g>
</svg>
