<?xml version="1.0" encoding="UTF-8" standalone="no"?>
<svg
   xmlns:dc="http://purl.org/dc/elements/1.1/"
   xmlns:cc="http://creativecommons.org/ns#"
   xmlns:rdf="http://www.w3.org/1999/02/22-rdf-syntax-ns#"
   xmlns:svg="http://www.w3.org/2000/svg"
   xmlns="http://www.w3.org/2000/svg"
   xmlns:sodipodi="http://sodipodi.sourceforge.net/DTD/sodipodi-0.dtd"
   xmlns:inkscape="http://www.inkscape.org/namespaces/inkscape"
   version="1.1"
   width="315.905"
   height="150"
   id="svg2"
   xml:space="preserve"
   inkscape:version="0.48.4 r9939"
   sodipodi:docname="logo-accountability-hack.svg"><metadata
     id="metadata13"><rdf:RDF><cc:Work
         rdf:about=""><dc:format>image/svg+xml</dc:format><dc:type
           rdf:resource="http://purl.org/dc/dcmitype/StillImage" /><dc:title></dc:title></cc:Work></rdf:RDF></metadata><defs
     id="defs11" /><sodipodi:namedview
     pagecolor="#ffffff"
     bordercolor="#666666"
     borderopacity="1"
     objecttolerance="10"
     gridtolerance="10"
     guidetolerance="10"
     inkscape:pageopacity="0"
     inkscape:pageshadow="2"
     inkscape:window-width="640"
     inkscape:window-height="480"
     id="namedview9"
     showgrid="false"
     inkscape:zoom="0.92432852"
     inkscape:cx="157.9525"
     inkscape:cy="75"
     inkscape:window-x="0"
     inkscape:window-y="24"
     inkscape:window-maximized="0"
     inkscape:current-layer="svg2" /><g
     transform="matrix(1.25 0 0 -1.25 0 150)"
     id="g10"><path
       d="M0 0h252.724v120H0V0z"
       id="path12"
       fill="#191919"
       fill-opacity="1"
       fill-rule="nonzero"
       stroke="none" /><g
       transform="matrix(1 0 0 -1 10.656 57.262)"
       style=""
       id="text14"><path
         d="m 9.1362305,-4.0092773 -5.6601563,0 -1.1586914,3.14794917 1.6508789,0 c 0.205074,8.7e-7 0.3520465,0.0410164 0.440918,0.12304688 0.088863,0.075196 0.1332962,0.17773494 0.1333008,0.30761719 -4.6e-6,0.12304718 -0.044438,0.22558614 -0.1333008,0.30761719 C 4.3203082,-0.04101558 4.1733357,0 3.9682617,0 L 0.74853516,0 C 0.54345649,0 0.39648398,-0.04101558 0.30761719,-0.12304687 0.21874978,-0.20507792 0.17431623,-0.30761688 0.17431641,-0.43066406 c -1.8e-7,-0.12988225 0.0444334,-0.23242121 0.13330078,-0.30761719 0.0888668,-0.0820304 0.2358393,-0.12304601 0.44091797,-0.12304688 l 0.66650394,0 3.8041992,-10.27441387 -2.5429688,0 c -0.2050806,1.1e-5 -0.3520531,-0.03759 -0.4409179,-0.112793 -0.088869,-0.08202 -0.1333029,-0.187977 -0.1333008,-0.317871 -2.1e-6,-0.129871 0.044431,-0.23241 0.1333008,-0.307617 0.088865,-0.08202 0.2358373,-0.123035 0.4409179,-0.123047 l 4.3374024,0 4.2041011,11.13574187 0.666504,0 c 0.205066,8.7e-7 0.352039,0.0410164 0.440918,0.12304688 0.08885,0.075196 0.133289,0.17773494 0.133301,0.30761719 -1.2e-5,0.12304718 -0.04445,0.22558614 -0.133301,0.30761719 C 12.236316,-0.04101558 12.089343,0 11.884277,0 L 8.6748047,0 C 8.4628822,0 8.3124917,-0.04101558 8.2236328,-0.12304687 8.1347575,-0.20507792 8.0903239,-0.30761688 8.090332,-0.43066406 c -8.1e-6,-0.12988225 0.044425,-0.23242121 0.1333008,-0.30761719 0.088859,-0.0820304 0.2392494,-0.12304601 0.4511719,-0.12304688 l 1.6406253,0 -1.1791995,-3.14794917 m -0.328125,-0.8613282 -2.3789063,-6.2651365 -0.3178711,0 -2.3071289,6.2651365 5.0039063,0"
         style="font-size:21px;font-variant:normal;font-weight:400;font-stretch:normal;writing-mode:lr-tb;fill:#ffffff;fill-opacity:1;fill-rule:nonzero;stroke:none;font-family:Courier New;-inkscape-font-specification:CourierNewPSMT"
         id="path2991" /><path
         d="m 22.689844,-10.817871 0,-0.604981 c -10e-6,-0.205066 0.03759,-0.352039 0.112793,-0.440918 0.08202,-0.08885 0.187978,-0.133288 0.317871,-0.1333 0.129872,1.2e-5 0.232411,0.04445 0.307617,0.1333 0.08202,0.08888 0.123036,0.235852 0.123047,0.440918 l 0,2.3891606 c -1.1e-5,0.2119229 -0.04103,0.3623134 -0.123047,0.4511719 -0.07521,0.088876 -0.177745,0.1333092 -0.307617,0.1333007 -0.116221,8.5e-6 -0.215342,-0.041007 -0.297363,-0.1230468 -0.07521,-0.082023 -0.119639,-0.2153233 -0.133301,-0.3999024 -0.03419,-0.5742092 -0.345224,-1.083486 -0.933105,-1.527832 -0.792977,-0.608387 -1.69532,-0.912586 -2.707032,-0.912598 -0.663091,1.2e-5 -1.288579,0.146984 -1.876464,0.440918 -0.437505,0.211925 -0.786137,0.47169 -1.045899,0.779297 -0.451175,0.533213 -0.810061,1.124521 -1.07666,1.773926 -0.191409,0.4785235 -0.287112,1.0185621 -0.287109,1.6201172 l 0,1.5073242 c -3e-6,1.2851602 0.464841,2.4028349 1.394531,3.3530273 0.929683,0.94336039 2.00976,1.4150396 3.240234,1.41503908 0.738274,5.2e-7 1.397941,-0.16064385 1.979004,-0.48193358 0.587881,-0.3212877 1.155264,-0.8066388 1.702149,-1.4560547 0.1162,-0.1435521 0.246083,-0.2153294 0.389648,-0.215332 0.123036,2.6e-6 0.222157,0.0376 0.297363,0.1127929 0.07518,0.075198 0.112782,0.1709009 0.112793,0.2871094 -1.1e-5,0.1572287 -0.146984,0.3964863 -0.440918,0.7177735 -0.560557,0.62890713 -1.19288,1.10400431 -1.896972,1.42529292 -0.697274,0.31445294 -1.404793,0.47167935 -2.122559,0.47167969 -0.622076,-3.4e-7 -1.2544,-0.11962913 -1.896973,-0.35888672 -0.492192,-0.18457011 -0.898929,-0.39990193 -1.220214,-0.6459961 -0.321293,-0.24609283 -0.717777,-0.65966659 -1.189454,-1.24072269 -0.464845,-0.5878881 -0.782716,-1.1279266 -0.953613,-1.6201172 -0.1709,-0.4990194 -0.256349,-1.0458938 -0.256348,-1.6406249 l 0,-1.753418 c -10e-7,-0.8476485 0.225585,-1.7123937 0.676758,-2.5942383 0.458006,-0.888661 1.080075,-1.568837 1.866211,-2.040527 0.792964,-0.478504 1.650874,-0.717762 2.573731,-0.717774 1.421867,1.2e-5 2.645498,0.485364 3.670898,1.456055"
         style="font-size:21px;font-variant:normal;font-weight:400;font-stretch:normal;writing-mode:lr-tb;fill:#ffffff;fill-opacity:1;fill-rule:nonzero;stroke:none;font-family:Courier New;-inkscape-font-specification:CourierNewPSMT"
         id="path2993" /><path
         d="m 35.289845,-10.817871 0,-0.604981 c -1.1e-5,-0.205066 0.03759,-0.352039 0.112792,-0.440918 0.08202,-0.08885 0.187978,-0.133288 0.317872,-0.1333 0.129872,1.2e-5 0.232411,0.04445 0.307617,0.1333 0.08202,0.08888 0.123036,0.235852 0.123047,0.440918 l 0,2.3891606 c -1.1e-5,0.2119229 -0.04103,0.3623134 -0.123047,0.4511719 -0.07521,0.088876 -0.177745,0.1333092 -0.307617,0.1333007 -0.116222,8.5e-6 -0.215343,-0.041007 -0.297364,-0.1230468 -0.0752,-0.082023 -0.119639,-0.2153233 -0.1333,-0.3999024 -0.03419,-0.5742092 -0.345225,-1.083486 -0.933106,-1.527832 -0.792977,-0.608387 -1.69532,-0.912586 -2.707031,-0.912598 -0.663092,1.2e-5 -1.28858,0.146984 -1.876465,0.440918 -0.437504,0.211925 -0.786137,0.47169 -1.045898,0.779297 -0.451175,0.533213 -0.810062,1.124521 -1.076661,1.773926 -0.191408,0.4785235 -0.287111,1.0185621 -0.287109,1.6201172 l 0,1.5073242 c -2e-6,1.2851602 0.464841,2.4028349 1.394531,3.3530273 0.929683,0.94336039 2.00976,1.4150396 3.240235,1.41503908 0.738273,5.2e-7 1.397941,-0.16064385 1.979004,-0.48193358 0.587881,-0.3212877 1.155263,-0.8066388 1.702148,-1.4560547 0.1162,-0.1435521 0.246083,-0.2153294 0.389648,-0.215332 0.123036,2.6e-6 0.222157,0.0376 0.297364,0.1127929 0.07518,0.075198 0.112781,0.1709009 0.112793,0.2871094 -1.2e-5,0.1572287 -0.146984,0.3964863 -0.440918,0.7177735 -0.560557,0.62890713 -1.192881,1.10400431 -1.896973,1.42529292 -0.697274,0.31445294 -1.404793,0.47167935 -2.122559,0.47167969 -0.622076,-3.4e-7 -1.2544,-0.11962913 -1.896972,-0.35888672 -0.492192,-0.18457011 -0.89893,-0.39990193 -1.220215,-0.6459961 -0.321293,-0.24609283 -0.717777,-0.65966659 -1.189453,-1.24072269 -0.464846,-0.5878881 -0.782717,-1.1279266 -0.953613,-1.6201172 -0.1709,-0.4990194 -0.256349,-1.0458938 -0.256348,-1.6406249 l 0,-1.753418 c -1e-6,-0.8476485 0.225584,-1.7123937 0.676758,-2.5942383 0.458005,-0.888661 1.080075,-1.568837 1.866211,-2.040527 0.792964,-0.478504 1.650873,-0.717762 2.57373,-0.717774 1.421867,1.2e-5 2.645499,0.485364 3.670899,1.456055"
         style="font-size:21px;font-variant:normal;font-weight:400;font-stretch:normal;writing-mode:lr-tb;fill:#ffffff;fill-opacity:1;fill-rule:nonzero;stroke:none;font-family:Courier New;-inkscape-font-specification:CourierNewPSMT"
         id="path2995" /><path
         d="m 49.366405,-5.9677734 c -1.1e-5,1.1484423 -0.232433,2.2148475 -0.697265,3.1992187 -0.464854,0.9775409 -1.107432,1.7397471 -1.927735,2.28662111 -0.813484,0.54687493 -1.688483,0.82031216 -2.625,0.8203125 -1.3877,-3.4e-7 -2.611331,-0.58789038 -3.670898,-1.76367191 -1.052736,-1.1826145 -1.579103,-2.6967732 -1.579102,-4.5424804 -10e-7,-1.8525313 0.526366,-3.3666899 1.579102,-4.5424806 1.059567,-1.175769 2.283198,-1.76366 3.670898,-1.763672 0.936517,1.2e-5 1.811516,0.27345 2.625,0.820313 0.813467,0.546886 1.452627,1.309092 1.917481,2.2866208 0.471668,0.9775473 0.707508,2.0439524 0.707519,3.1992188 m -0.871582,0 c -10e-6,-1.4013599 -0.406748,-2.6591711 -1.220214,-3.7734375 -0.813486,-1.1142471 -1.866219,-1.6713751 -3.158204,-1.6713871 -1.209966,1.2e-5 -2.245609,0.533214 -3.106933,1.5996097 -0.854495,1.0595791 -1.28174,2.3413161 -1.281738,3.8452149 -2e-6,1.5996137 0.447751,2.9086944 1.343261,3.9272461 0.90234,1.0117197 1.917476,1.5175786 3.04541,1.51757808 1.291985,5.2e-7 2.344718,-0.55370988 3.158204,-1.66113278 0.813466,-1.1142545 1.220204,-2.3754838 1.220214,-3.7836914"
         style="font-size:21px;font-variant:normal;font-weight:400;font-stretch:normal;writing-mode:lr-tb;fill:#ffffff;fill-opacity:1;fill-rule:nonzero;stroke:none;font-family:Courier New;-inkscape-font-specification:CourierNewPSMT"
         id="path2997" /><path
         d="m 60.86924,-11.135742 0,7.198242 c -1.1e-5,1.2099637 -0.403331,2.2250994 -1.209961,3.04541016 C 58.85263,-0.07177727 57.87851,0.33837857 56.736916,0.33837891 55.971285,0.33837857 55.29111,0.17089827 54.696388,-0.1640625 54.101658,-0.49902294 53.595799,-1.0048818 53.17881,-1.6816406 52.761816,-2.365232 52.55332,-3.1171844 52.553322,-3.9375 l 0,-7.198242 -0.728028,0 c -0.205079,1.1e-5 -0.352051,-0.03759 -0.440917,-0.112793 -0.08887,-0.08202 -0.133302,-0.187977 -0.133301,-0.317871 -10e-7,-0.129871 0.04785,-0.239246 0.143554,-0.328125 0.08203,-0.06835 0.225585,-0.102527 0.430664,-0.102539 l 3.178711,0 c 0.205074,1.2e-5 0.352046,0.04103 0.440918,0.123047 0.08886,0.07521 0.133296,0.177746 0.133301,0.307617 -5e-6,0.129894 -0.04444,0.235851 -0.133301,0.317871 -0.08887,0.07521 -0.235844,0.112804 -0.440918,0.112793 l -1.589355,0 0,7.198242 c -3e-6,0.9501983 0.324704,1.7568381 0.974121,2.4199219 0.649409,0.66308677 1.418452,0.9946294 2.307129,0.99462888 0.567376,5.2e-7 1.083489,-0.12988216 1.54834,-0.38964844 0.471671,-0.25976444 0.881827,-0.65966644 1.230469,-1.19970704 0.355459,-0.5400364 0.533193,-1.1484342 0.533203,-1.8251953 l 0,-7.198242 -1.589356,0 c -0.205086,1.1e-5 -0.352058,-0.03759 -0.440918,-0.112793 -0.08887,-0.08202 -0.133308,-0.187977 -0.133301,-0.317871 -7e-6,-0.129871 0.04443,-0.23241 0.133301,-0.307617 0.08886,-0.08202 0.235832,-0.123035 0.440918,-0.123047 l 3.178711,0 c 0.205067,1.2e-5 0.352039,0.04103 0.440918,0.123047 0.08886,0.07521 0.133289,0.177746 0.133301,0.307617 -1.2e-5,0.129894 -0.04445,0.235851 -0.133301,0.317871 -0.08888,0.07521 -0.235851,0.112804 -0.440918,0.112793 l -0.728027,0"
         style="font-size:21px;font-variant:normal;font-weight:400;font-stretch:normal;writing-mode:lr-tb;fill:#ffffff;fill-opacity:1;fill-rule:nonzero;stroke:none;font-family:Courier New;-inkscape-font-specification:CourierNewPSMT"
         id="path2999" /><path
         d="m 73.520508,0 -1.107422,0 -6.347168,-10.73584 0,9.87451187 1.589355,0 c 0.21191,8.7e-7 0.3623,0.0410164 0.451172,0.12304688 0.08886,0.075196 0.133296,0.17773494 0.133301,0.30761719 -5e-6,0.12304718 -0.04444,0.22558614 -0.133301,0.30761719 C 68.017573,-0.04101558 67.867183,0 67.655273,0 l -3.168457,0 c -0.211915,0 -0.362305,-0.04101558 -0.451171,-0.12304687 -0.08887,-0.0820311 -0.133302,-0.18457001 -0.133301,-0.30761719 -10e-7,-0.12988225 0.04443,-0.23242121 0.133301,-0.30761719 0.08887,-0.0820304 0.239256,-0.12304601 0.451171,-0.12304688 l 0.717774,0 0,-10.27441387 -1.158692,0 c -0.205079,1.1e-5 -0.352051,-0.03759 -0.440918,-0.112793 -0.08887,-0.08202 -0.133301,-0.187977 -0.1333,-0.317871 -10e-7,-0.129871 0.04443,-0.23241 0.1333,-0.307617 0.08887,-0.08202 0.235839,-0.123035 0.440918,-0.123047 l 2.25586,0 6.357422,10.7563473 0,-9.8950193 -1.589356,0 c -0.205086,1.1e-5 -0.352058,-0.03759 -0.440918,-0.112793 -0.08887,-0.08202 -0.133308,-0.187977 -0.133301,-0.317871 -7e-6,-0.129871 0.04101,-0.23241 0.123047,-0.307617 0.08886,-0.08202 0.23925,-0.123035 0.451172,-0.123047 l 3.178711,0 c 0.205067,1.2e-5 0.352039,0.04103 0.440918,0.123047 0.08886,0.07521 0.133289,0.177746 0.133301,0.307617 -1.2e-5,0.129894 -0.04445,0.235851 -0.133301,0.317871 -0.08888,0.07521 -0.235851,0.112804 -0.440918,0.112793 l -0.728027,0 0,11.135742"
         style="font-size:21px;font-variant:normal;font-weight:400;font-stretch:normal;writing-mode:lr-tb;fill:#ffffff;fill-opacity:1;fill-rule:nonzero;stroke:none;font-family:Courier New;-inkscape-font-specification:CourierNewPSMT"
         id="path3001" /><path
         d="m 82.326561,-11.135742 0,10.27441387 2.235352,0 c 0.205068,8.7e-7 0.352041,0.0410164 0.440918,0.12304688 0.08886,0.075196 0.133291,0.17773494 0.1333,0.30761719 -9e-6,0.12304718 -0.04444,0.22558614 -0.1333,0.30761719 C 84.913954,-0.04101558 84.766981,0 84.561913,0 l -5.342286,0 c -0.205081,0 -0.352054,-0.04101558 -0.440918,-0.12304687 -0.08887,-0.0820311 -0.133303,-0.18457001 -0.1333,-0.30761719 -3e-6,-0.12988225 0.04443,-0.23242121 0.1333,-0.30761719 0.08886,-0.0820304 0.235837,-0.12304601 0.440918,-0.12304688 l 2.235352,0 0,-10.27441387 -3.527344,0 0,2.9838865 c -2e-6,0.211922 -0.04102,0.3623125 -0.123047,0.4511719 -0.0752,0.088875 -0.177736,0.1333084 -0.307617,0.1333008 -0.123049,7.6e-6 -0.225587,-0.044426 -0.307617,-0.1333008 -0.08203,-0.088859 -0.123048,-0.2392499 -0.123047,-0.4511719 l 0,-3.8452145 9.648926,0 0,3.8452145 c -1.1e-5,0.211922 -0.04103,0.3623125 -0.123047,0.4511719 -0.07521,0.088875 -0.177745,0.1333084 -0.307617,0.1333008 -0.129894,7.6e-6 -0.235851,-0.044426 -0.317871,-0.1333008 -0.07521,-0.088859 -0.112804,-0.2392499 -0.112793,-0.4511719 l 0,-2.9838865 -3.527344,0"
         style="font-size:21px;font-variant:normal;font-weight:400;font-stretch:normal;writing-mode:lr-tb;fill:#ffffff;fill-opacity:1;fill-rule:nonzero;stroke:none;font-family:Courier New;-inkscape-font-specification:CourierNewPSMT"
         id="path3003" /><path
         d="m 97.336227,-4.0092773 -5.660156,0 -1.158691,3.14794917 1.650879,0 c 0.205074,8.7e-7 0.352046,0.0410164 0.440918,0.12304688 0.08886,0.075196 0.133296,0.17773494 0.1333,0.30761719 -4e-6,0.12304718 -0.04444,0.22558614 -0.1333,0.30761719 C 92.520305,-0.04101558 92.373333,0 92.168259,0 l -3.219727,0 c -0.205079,0 -0.352051,-0.04101558 -0.440918,-0.12304687 -0.08887,-0.0820311 -0.133301,-0.18457001 -0.133301,-0.30761719 0,-0.12988225 0.04443,-0.23242121 0.133301,-0.30761719 0.08887,-0.0820304 0.235839,-0.12304601 0.440918,-0.12304688 l 0.666504,0 3.804199,-10.27441387 -2.542969,0 c -0.20508,1.1e-5 -0.352053,-0.03759 -0.440917,-0.112793 -0.08887,-0.08202 -0.133303,-0.187977 -0.133301,-0.317871 -2e-6,-0.129871 0.04443,-0.23241 0.133301,-0.307617 0.08886,-0.08202 0.235837,-0.123035 0.440917,-0.123047 l 4.337403,0 4.204101,11.13574187 0.6665,0 c 0.20507,8.7e-7 0.35204,0.0410164 0.44092,0.12304688 0.0889,0.075196 0.13329,0.17773494 0.1333,0.30761719 -1e-5,0.12304718 -0.0444,0.22558614 -0.1333,0.30761719 C 100.43631,-0.04101558 100.28934,0 100.08427,0 l -3.209468,0 c -0.211923,0 -0.362313,-0.04101558 -0.451172,-0.12304687 -0.08888,-0.0820311 -0.133309,-0.18457001 -0.133301,-0.30761719 -8e-6,-0.12988225 0.04443,-0.23242121 0.133301,-0.30761719 0.08886,-0.0820304 0.239249,-0.12304601 0.451172,-0.12304688 l 1.640625,0 -1.1792,-3.14794917 m -0.328125,-0.8613282 -2.378906,-6.2651365 -0.317871,0 -2.307129,6.2651365 5.003906,0"
         style="font-size:21px;font-variant:normal;font-weight:400;font-stretch:normal;writing-mode:lr-tb;fill:#ffffff;fill-opacity:1;fill-rule:nonzero;stroke:none;font-family:Courier New;-inkscape-font-specification:CourierNewPSMT"
         id="path3005" /><path
         d="m 103.425,-0.86132813 0,-10.27441387 -1.15869,0 c -0.20508,1.1e-5 -0.35205,-0.03759 -0.44092,-0.112793 -0.0889,-0.08202 -0.1333,-0.187977 -0.1333,-0.317871 0,-0.129871 0.0444,-0.23241 0.1333,-0.307617 0.0889,-0.08202 0.23584,-0.123035 0.44092,-0.123047 l 5.41406,0 c 1.07324,1.2e-5 1.94482,0.311047 2.61475,0.933105 0.67675,0.615245 1.01513,1.3398536 1.01514,2.1738283 -1e-5,1.0527422 -0.56398,1.9038156 -1.6919,2.5532226 0.8955,0.3212951 1.55175,0.7485408 1.96875,1.2817383 0.41698,0.5332077 0.62548,1.1210977 0.62549,1.7636719 -10e-6,0.5742215 -0.13673,1.1005881 -0.41016,1.5791016 -0.27344,0.4716809 -0.69385,0.87500079 -1.26123,1.20996089 C 109.98066,-0.1674803 109.36884,0 108.70576,0 l -6.43945,0 c -0.20508,0 -0.35205,-0.04101558 -0.44092,-0.12304687 -0.0889,-0.0820311 -0.1333,-0.18457001 -0.1333,-0.30761719 0,-0.12988225 0.0444,-0.23242121 0.1333,-0.30761719 0.0889,-0.0820304 0.23584,-0.12304601 0.44092,-0.12304688 l 1.15869,0 m 0.86133,-5.80371097 3.04541,0 c 0.64941,6.7e-6 1.24413,-0.1196221 1.78418,-0.3588867 0.41698,-0.191399 0.74169,-0.4682542 0.97412,-0.8305664 0.23241,-0.3622965 0.34863,-0.7314367 0.34863,-1.1074219 0,-0.5400295 -0.25293,-1.0356345 -0.75878,-1.4868159 -0.50587,-0.457997 -1.16554,-0.687001 -1.97901,-0.687012 l -3.41455,0 0,4.4707029 m 0,5.80371097 4.35791,0 c 0.5537,8.7e-7 1.03564,-0.12304589 1.4458,-0.36914057 0.41015,-0.2460923 0.72118,-0.5502912 0.93311,-0.9125977 0.2119,-0.3623022 0.31786,-0.7382784 0.31787,-1.1279297 -1e-5,-0.4374963 -0.15382,-0.861324 -0.46143,-1.2714844 -0.30079,-0.4101513 -0.7212,-0.7211861 -1.26123,-0.9331054 -0.54004,-0.2119084 -1.28516,-0.3178653 -2.23535,-0.3178711 l -3.09668,0 0,4.93212887"
         style="font-size:21px;font-variant:normal;font-weight:400;font-stretch:normal;writing-mode:lr-tb;fill:#ffffff;fill-opacity:1;fill-rule:nonzero;stroke:none;font-family:Courier New;-inkscape-font-specification:CourierNewPSMT"
         id="path3007" /><path
         d="m 120.13682,-11.135742 0,10.27441387 2.95312,0 c 0.20507,8.7e-7 0.35204,0.0410164 0.44092,0.12304688 0.0889,0.075196 0.13329,0.17773494 0.1333,0.30761719 -10e-6,0.12304718 -0.0444,0.22558614 -0.1333,0.30761719 C 123.44198,-0.04101558 123.29501,0 123.08994,0 l -6.76758,0 c -0.20508,0 -0.35205,-0.04101558 -0.44091,-0.12304687 -0.0889,-0.0820311 -0.13331,-0.18457001 -0.1333,-0.30761719 -10e-6,-0.12988225 0.0444,-0.23242121 0.1333,-0.30761719 0.0889,-0.0820304 0.23583,-0.12304601 0.44091,-0.12304688 l 2.95313,0 0,-10.27441387 -2.95313,0 c -0.20508,1.1e-5 -0.35205,-0.03759 -0.44091,-0.112793 -0.0889,-0.08202 -0.13331,-0.187977 -0.1333,-0.317871 -10e-6,-0.129871 0.0444,-0.23241 0.1333,-0.307617 0.0889,-0.08202 0.23583,-0.123035 0.44091,-0.123047 l 6.76758,0 c 0.20507,1.2e-5 0.35204,0.04103 0.44092,0.123047 0.0889,0.07521 0.13329,0.177746 0.1333,0.307617 -10e-6,0.129894 -0.0444,0.235851 -0.1333,0.317871 -0.0889,0.07521 -0.23585,0.112804 -0.44092,0.112793 l -2.95312,0"
         style="font-size:21px;font-variant:normal;font-weight:400;font-stretch:normal;writing-mode:lr-tb;fill:#ffffff;fill-opacity:1;fill-rule:nonzero;stroke:none;font-family:Courier New;-inkscape-font-specification:CourierNewPSMT"
         id="path3009" /><path
         d="m 130.80908,-11.135742 0,10.27441387 5.72168,0 0,-3.42480467 c -10e-6,-0.2050736 0.041,-0.3520462 0.12305,-0.440918 0.082,-0.088862 0.18798,-0.1332959 0.31787,-0.1333008 0.12304,4.9e-6 0.22557,0.044438 0.30762,0.1333008 0.082,0.082036 0.12303,0.2290084 0.12304,0.440918 l 0,4.2861328 -9.51562,0 c -0.20508,0 -0.35205,-0.04101558 -0.44092,-0.12304687 -0.0889,-0.0820311 -0.1333,-0.18457001 -0.1333,-0.30761719 0,-0.12988225 0.0444,-0.23242121 0.1333,-0.30761719 0.0889,-0.0820304 0.23584,-0.12304601 0.44092,-0.12304688 l 2.05078,0 0,-10.27441387 -2.05078,0 c -0.20508,1.1e-5 -0.35205,-0.03759 -0.44092,-0.112793 -0.0889,-0.08202 -0.1333,-0.187977 -0.1333,-0.317871 0,-0.129871 0.0444,-0.23241 0.1333,-0.307617 0.0889,-0.08202 0.23584,-0.123035 0.44092,-0.123047 l 4.97314,0 c 0.20507,1.2e-5 0.35205,0.04103 0.44092,0.123047 0.0889,0.07521 0.13329,0.177746 0.1333,0.307617 -1e-5,0.129894 -0.0444,0.235851 -0.1333,0.317871 -0.0889,0.07521 -0.23585,0.112804 -0.44092,0.112793 l -2.05078,0"
         style="font-size:21px;font-variant:normal;font-weight:400;font-stretch:normal;writing-mode:lr-tb;fill:#ffffff;fill-opacity:1;fill-rule:nonzero;stroke:none;font-family:Courier New;-inkscape-font-specification:CourierNewPSMT"
         id="path3011" /><path
         d="m 145.33682,-11.135742 0,10.27441387 2.95313,0 c 0.20507,8.7e-7 0.35204,0.0410164 0.44092,0.12304688 0.0888,0.075196 0.13329,0.17773494 0.1333,0.30761719 -1e-5,0.12304718 -0.0445,0.22558614 -0.1333,0.30761719 C 148.64199,-0.04101558 148.49502,0 148.28995,0 l -6.76758,0 c -0.20508,0 -0.35205,-0.04101558 -0.44092,-0.12304687 -0.0889,-0.0820311 -0.1333,-0.18457001 -0.1333,-0.30761719 0,-0.12988225 0.0444,-0.23242121 0.1333,-0.30761719 0.0889,-0.0820304 0.23584,-0.12304601 0.44092,-0.12304688 l 2.95312,0 0,-10.27441387 -2.95312,0 c -0.20508,1.1e-5 -0.35205,-0.03759 -0.44092,-0.112793 -0.0889,-0.08202 -0.1333,-0.187977 -0.1333,-0.317871 0,-0.129871 0.0444,-0.23241 0.1333,-0.307617 0.0889,-0.08202 0.23584,-0.123035 0.44092,-0.123047 l 6.76758,0 c 0.20507,1.2e-5 0.35204,0.04103 0.44092,0.123047 0.0888,0.07521 0.13329,0.177746 0.1333,0.307617 -1e-5,0.129894 -0.0445,0.235851 -0.1333,0.317871 -0.0889,0.07521 -0.23585,0.112804 -0.44092,0.112793 l -2.95313,0"
         style="font-size:21px;font-variant:normal;font-weight:400;font-stretch:normal;writing-mode:lr-tb;fill:#ffffff;fill-opacity:1;fill-rule:nonzero;stroke:none;font-family:Courier New;-inkscape-font-specification:CourierNewPSMT"
         id="path3013" /><path
         d="m 157.92656,-11.135742 0,10.27441387 2.23535,0 c 0.20507,8.7e-7 0.35204,0.0410164 0.44092,0.12304688 0.0889,0.075196 0.13329,0.17773494 0.1333,0.30761719 -1e-5,0.12304718 -0.0444,0.22558614 -0.1333,0.30761719 C 160.51395,-0.04101558 160.36698,0 160.16191,0 l -5.34228,0 c -0.20509,0 -0.35206,-0.04101558 -0.44092,-0.12304687 -0.0889,-0.0820311 -0.13331,-0.18457001 -0.1333,-0.30761719 -1e-5,-0.12988225 0.0444,-0.23242121 0.1333,-0.30761719 0.0889,-0.0820304 0.23583,-0.12304601 0.44092,-0.12304688 l 2.23535,0 0,-10.27441387 -3.52735,0 0,2.9838865 c 0,0.211922 -0.041,0.3623125 -0.12304,0.4511719 -0.0752,0.088875 -0.17774,0.1333084 -0.30762,0.1333008 -0.12305,7.6e-6 -0.22559,-0.044426 -0.30762,-0.1333008 -0.082,-0.088859 -0.12305,-0.2392499 -0.12304,-0.4511719 l 0,-3.8452145 9.64892,0 0,3.8452145 c -1e-5,0.211922 -0.041,0.3623125 -0.12305,0.4511719 -0.0752,0.088875 -0.17774,0.1333084 -0.30761,0.1333008 -0.1299,7.6e-6 -0.23585,-0.044426 -0.31787,-0.1333008 -0.0752,-0.088859 -0.11281,-0.2392499 -0.1128,-0.4511719 l 0,-2.9838865 -3.52734,0"
         style="font-size:21px;font-variant:normal;font-weight:400;font-stretch:normal;writing-mode:lr-tb;fill:#ffffff;fill-opacity:1;fill-rule:nonzero;stroke:none;font-family:Courier New;-inkscape-font-specification:CourierNewPSMT"
         id="path3015" /><path
         d="m 170.55733,-5.4140625 0,4.55273437 2.23535,0 c 0.20507,8.7e-7 0.35204,0.0410164 0.44092,0.12304688 0.0889,0.075196 0.13329,0.17773494 0.1333,0.30761719 -10e-6,0.12304718 -0.0444,0.22558614 -0.1333,0.30761719 C 173.14472,-0.04101558 172.99775,0 172.79268,0 l -5.34229,0 c -0.20508,0 -0.35205,-0.04101558 -0.44091,-0.12304687 -0.0889,-0.0820311 -0.13331,-0.18457001 -0.13331,-0.30761719 0,-0.12988225 0.041,-0.23242121 0.12305,-0.30761719 0.0889,-0.0820304 0.23926,-0.12304601 0.45117,-0.12304688 l 2.23536,0 0,-4.55273437 -3.7837,-5.7216795 -0.51269,0 c -0.20508,1.1e-5 -0.35205,-0.03759 -0.44092,-0.112793 -0.0889,-0.08202 -0.1333,-0.187977 -0.1333,-0.317871 0,-0.129871 0.0444,-0.23241 0.1333,-0.307617 0.0889,-0.08202 0.23584,-0.123035 0.44092,-0.123047 l 2.36865,0 c 0.20507,1.2e-5 0.35205,0.04103 0.44092,0.123047 0.0889,0.07521 0.1333,0.177746 0.1333,0.307617 0,0.129894 -0.0444,0.235851 -0.1333,0.317871 -0.0889,0.07521 -0.23585,0.112804 -0.44092,0.112793 l -0.85107,0 3.21972,4.8500975 3.14795,-4.8500975 -0.84082,0 c -0.21192,1.1e-5 -0.36231,-0.03759 -0.45117,-0.112793 -0.0889,-0.08202 -0.13331,-0.187977 -0.1333,-0.317871 -1e-5,-0.129871 0.0444,-0.23241 0.1333,-0.307617 0.0889,-0.08202 0.23925,-0.123035 0.45117,-0.123047 l 2.3584,0 c 0.20507,1.2e-5 0.35204,0.04103 0.44092,0.123047 0.0888,0.07521 0.13329,0.177746 0.1333,0.307617 -1e-5,0.129894 -0.0445,0.235851 -0.1333,0.317871 -0.0889,0.07521 -0.23585,0.112804 -0.44092,0.112793 l -0.51269,0 -3.72217,5.7216795"
         style="font-size:21px;font-variant:normal;font-weight:400;font-stretch:normal;writing-mode:lr-tb;fill:#ffffff;fill-opacity:1;fill-rule:nonzero;stroke:none;font-family:Courier New;-inkscape-font-specification:CourierNewPSMT"
         id="path3017" /></g><g
       transform="matrix(1 0 0 -1 10.656 32.062)"
       style=""
       id="text18"><path
         d="M 4.5834961,-7.9570312 2.7685547,-8.5415039 C 2.3378883,-8.678214 2.0644511,-8.8251865 1.9482422,-8.9824219 1.7841779,-9.1806549 1.7021467,-9.4028226 1.7021484,-9.6489258 c -1.7e-6,-0.2870994 0.099119,-0.5331932 0.2973633,-0.7382812 0.2050759,-0.211903 0.4340796,-0.31786 0.6870117,-0.317871 0.1640597,1.1e-5 0.4067352,0.0547 0.7280274,0.164062 l 1.8149414,0.584473 0,-1.907227 c -5.2e-6,-0.505847 0.095698,-0.864733 0.2871094,-1.07666 0.1982364,-0.218737 0.4545838,-0.328111 0.7690429,-0.328125 0.3144466,1.4e-5 0.567376,0.109388 0.7587891,0.328125 0.191399,0.211927 0.287102,0.570813 0.2871094,1.07666 l 0,1.907227 1.8149414,-0.584473 c 0.3281155,-0.109364 0.5673731,-0.164051 0.7177734,-0.164062 0.2597552,1.1e-5 0.4887592,0.10255 0.6870122,0.307617 0.205067,0.205088 0.307606,0.4511819 0.307617,0.7382813 -1.1e-5,0.2529391 -0.07179,0.4682709 -0.215332,0.6459961 -0.13673,0.1709073 -0.417003,0.3281337 -0.8408206,0.4716797 l -1.8149414,0.5844727 1.1176758,1.5483398 c 0.2734281,0.3759826 0.4101467,0.6733456 0.4101562,0.8920898 -9.5e-6,0.2939506 -0.1025485,0.543462 -0.3076172,0.7485352 C 9.0029207,-4.5629837 8.7568272,-4.4604448 8.4697266,-4.4604492 8.2578042,-4.4604448 8.08007,-4.5048783 7.9365234,-4.59375 7.7997969,-4.6826125 7.6220627,-4.8774365 7.4033203,-5.1782227 L 6.2856445,-6.7163086 5.1577148,-5.1782227 c -0.211919,0.3007862 -0.3896532,0.4990282 -0.5332031,0.5947266 -0.1435591,0.088872 -0.3178754,0.1333052 -0.5229492,0.1333008 -0.2871132,4.4e-6 -0.5366247,-0.1025345 -0.7485352,-0.3076172 -0.2050812,-0.2119091 -0.3076202,-0.4682565 -0.3076171,-0.769043 -3.1e-6,-0.2119083 0.1367155,-0.5058533 0.4101562,-0.8818359 l 1.1279297,-1.5483398"
         style="font-size:21px;font-variant:normal;font-weight:700;font-stretch:normal;writing-mode:lr-tb;fill:#ffffff;fill-opacity:1;fill-rule:nonzero;stroke:none;font-family:Courier New;-inkscape-font-specification:CourierNewPS-BoldMT"
         id="path3020" /><path
         d="m 17.183496,-7.9570312 -1.814941,-0.5844727 c -0.430666,-0.1367101 -0.704104,-0.2836826 -0.820312,-0.440918 -0.164065,-0.198233 -0.246096,-0.4204007 -0.246094,-0.6665039 -2e-6,-0.2870994 0.09912,-0.5331932 0.297363,-0.7382812 0.205076,-0.211903 0.43408,-0.31786 0.687012,-0.317871 0.164059,1.1e-5 0.406735,0.0547 0.728027,0.164062 l 1.814942,0.584473 0,-1.907227 c -6e-6,-0.505847 0.0957,-0.864733 0.287109,-1.07666 0.198236,-0.218737 0.454584,-0.328111 0.769043,-0.328125 0.314446,1.4e-5 0.567376,0.109388 0.758789,0.328125 0.191399,0.211927 0.287102,0.570813 0.287109,1.07666 l 0,1.907227 1.814942,-0.584473 c 0.328115,-0.109364 0.567373,-0.164051 0.717773,-0.164062 0.259756,1.1e-5 0.488759,0.10255 0.687012,0.307617 0.205067,0.205088 0.307606,0.4511819 0.307617,0.7382813 -1.1e-5,0.2529391 -0.07179,0.4682709 -0.215332,0.6459961 -0.136729,0.1709073 -0.417002,0.3281337 -0.84082,0.4716797 l -1.814942,0.5844727 1.117676,1.5483398 c 0.273428,0.3759826 0.410147,0.6733456 0.410156,0.8920898 -9e-6,0.2939506 -0.102548,0.543462 -0.307617,0.7485352 -0.205087,0.2050827 -0.45118,0.3076216 -0.738281,0.3076172 -0.211922,4.4e-6 -0.389657,-0.044429 -0.533203,-0.1333008 -0.136727,-0.088863 -0.314461,-0.2836865 -0.533203,-0.5844727 l -1.117676,-1.5380859 -1.12793,1.5380859 c -0.211919,0.3007862 -0.389653,0.4990282 -0.533203,0.5947266 -0.143559,0.088872 -0.317875,0.1333052 -0.522949,0.1333008 -0.287113,4.4e-6 -0.536625,-0.1025345 -0.748535,-0.3076172 -0.205082,-0.2119091 -0.307621,-0.4682565 -0.307617,-0.769043 -4e-6,-0.2119083 0.136715,-0.5058533 0.410156,-0.8818359 l 1.127929,-1.5483398"
         style="font-size:21px;font-variant:normal;font-weight:700;font-stretch:normal;writing-mode:lr-tb;fill:#ffffff;fill-opacity:1;fill-rule:nonzero;stroke:none;font-family:Courier New;-inkscape-font-specification:CourierNewPS-BoldMT"
         id="path3022" /><path
         d="m 33.803028,-5.1474609 -4.491211,0 0,3.0454101 0.328125,0 c 0.505855,2.1e-6 0.864741,0.099123 1.07666,0.2973633 0.218745,0.1914079 0.328119,0.4443373 0.328125,0.7587891 -6e-6,0.30761789 -0.10938,0.56054732 -0.328125,0.75878902 C 30.504683,-0.09570303 30.145797,0 29.639942,0 l -2.57373,0 c -0.505861,0 -0.868165,-0.09570303 -1.086914,-0.28710938 -0.211915,-0.1982417 -0.317872,-0.4545891 -0.317871,-0.76904292 -1e-6,-0.3828111 0.167479,-0.6801741 0.502441,-0.8920899 0.164061,-0.1093729 0.512694,-0.1606424 1.045898,-0.1538086 l 0,-8.2236332 c -0.369142,-0.03417 -0.649415,-0.146962 -0.84082,-0.338379 -0.184571,-0.191395 -0.276856,-0.430652 -0.276855,-0.717773 -1e-6,-0.314441 0.105956,-0.567371 0.317871,-0.758789 0.218748,-0.19823 0.581053,-0.297351 1.086914,-0.297363 l 2.143066,0.01025 c 0.505855,1.2e-5 0.864741,0.09571 1.07666,0.287109 0.218745,0.191418 0.328119,0.444348 0.328125,0.758789 -6e-6,0.314464 -0.10938,0.570812 -0.328125,0.769043 -0.211919,0.191417 -0.570805,0.28712 -1.07666,0.287109 l -0.328125,0 0,3.0761723 4.491211,0 0,-3.0761723 -0.328125,0 c -0.505867,1.1e-5 -0.868171,-0.09569 -1.086914,-0.287109 -0.211921,-0.198231 -0.317878,-0.454579 -0.317871,-0.769043 -7e-6,-0.314441 0.10595,-0.567371 0.317871,-0.758789 0.218743,-0.19823 0.581047,-0.297351 1.086914,-0.297363 l 2.143067,0.01025 c 0.505848,1.2e-5 0.864734,0.09571 1.07666,0.287109 0.218738,0.191418 0.328113,0.444348 0.328125,0.758789 -1.2e-5,0.287121 -0.09571,0.526378 -0.28711,0.717773 -0.184581,0.191417 -0.461437,0.30421 -0.830566,0.338379 l 0,8.2236332 c 0.540028,2.1e-6 0.88866,0.051272 1.045898,0.1538086 0.334949,0.2119158 0.502429,0.5126968 0.502442,0.9023438 -1.3e-5,0.30761789 -0.109387,0.56054732 -0.328125,0.75878902 C 36.913368,-0.09570303 36.554482,0 36.048634,0 l -2.573731,0 c -0.505867,0 -0.868171,-0.09570303 -1.086914,-0.28710938 -0.211921,-0.1982417 -0.317878,-0.4545891 -0.317871,-0.76904292 -7e-6,-0.3076159 0.109368,-0.5571273 0.328125,-0.7485352 0.218743,-0.1982402 0.577629,-0.2973612 1.07666,-0.2973633 l 0.328125,0 0,-3.0454101"
         style="font-size:21px;font-variant:normal;font-weight:700;font-stretch:normal;writing-mode:lr-tb;fill:#ffffff;fill-opacity:1;fill-rule:nonzero;stroke:none;font-family:Courier New;-inkscape-font-specification:CourierNewPS-BoldMT"
         id="path3024" /><path
         d="m 46.669628,-3.3837891 -5.106445,0 -0.512695,1.2817383 0.512695,0 c 0.505855,2.1e-6 0.864741,0.099123 1.07666,0.2973633 0.218745,0.1914079 0.32812,0.4443373 0.328125,0.7587891 -5e-6,0.30761789 -0.10938,0.56054732 -0.328125,0.75878902 C 42.427924,-0.09570303 42.069038,0 41.563183,0 l -2.830078,0 c -0.50586,0 -0.864746,-0.09570303 -1.07666,-0.28710938 -0.21875,-0.1982417 -0.328125,-0.4545891 -0.328125,-0.76904292 0,-0.3144518 0.112793,-0.5707992 0.338378,-0.769043 0.225586,-0.1982402 0.598145,-0.2905252 1.117676,-0.2768555 l 3.301758,-8.2236332 -1.374023,0 c -0.505862,1.1e-5 -0.868166,-0.09569 -1.086914,-0.287109 -0.211916,-0.198231 -0.317873,-0.454579 -0.317872,-0.769043 -10e-7,-0.314441 0.105956,-0.567371 0.317872,-0.758789 0.218748,-0.19823 0.581052,-0.297351 1.086914,-0.297363 l 4.54248,0.01025 4.183594,10.3256832 c 0.492175,2.1e-6 0.816882,0.05469 0.974121,0.1640625 0.31444,0.2255877 0.471667,0.5229507 0.47168,0.8920899 -1.3e-5,0.30761789 -0.10597,0.56054732 -0.317871,0.75878902 C 50.354186,-0.09570303 49.9953,0 49.489452,0 l -2.830078,0 c -0.505867,0 -0.868172,-0.09570303 -1.086914,-0.28710938 -0.211921,-0.1982417 -0.317878,-0.4545891 -0.317871,-0.76904292 -7e-6,-0.3076159 0.10595,-0.5571273 0.317871,-0.7485352 0.218742,-0.1982402 0.581047,-0.2973612 1.086914,-0.2973633 l 0.512696,0 -0.502442,-1.2817383 m -0.871582,-2.1020507 -1.691894,-4.163086 -1.702149,4.163086 3.394043,0"
         style="font-size:21px;font-variant:normal;font-weight:700;font-stretch:normal;writing-mode:lr-tb;fill:#ffffff;fill-opacity:1;fill-rule:nonzero;stroke:none;font-family:Courier New;-inkscape-font-specification:CourierNewPS-BoldMT"
         id="path3026" /><path
         d="m 59.997658,-11.894531 c 0.129873,-0.177723 0.270009,-0.311023 0.42041,-0.399903 0.157216,-0.08885 0.324697,-0.133288 0.502441,-0.1333 0.307607,1.2e-5 0.557118,0.105969 0.748535,0.317871 0.198231,0.211926 0.297352,0.570812 0.297364,1.07666 l 0,1.7841796 c -1.2e-5,0.5058681 -0.09913,0.8681724 -0.297364,1.086914 -0.191417,0.211922 -0.440928,0.317879 -0.748535,0.3178711 -0.280283,7.9e-6 -0.505869,-0.078605 -0.676757,-0.2358398 -0.170909,-0.1572184 -0.297373,-0.4511634 -0.379395,-0.881836 -0.04786,-0.2871001 -0.143564,-0.5092678 -0.287109,-0.6665039 -0.280283,-0.3076072 -0.673349,-0.553701 -1.1792,-0.738281 -0.499031,-0.18456 -1.001471,-0.276845 -1.507324,-0.276856 -0.628912,1.1e-5 -1.206548,0.13673 -1.73291,0.410157 -0.526371,0.273447 -0.991215,0.7177825 -1.394531,1.3330074 -0.403323,0.6152426 -0.604983,1.3466872 -0.604981,2.1943359 l 0,1.3637695 c -2e-6,1.0117231 0.36572,1.8559606 1.097168,2.5327149 0.738277,0.6767599 1.760249,1.0151385 3.065918,1.0151367 0.779289,1.8e-6 1.438957,-0.1059551 1.979004,-0.3178711 0.314444,-0.1230446 0.649405,-0.3657202 1.004883,-0.7280273 0.21874,-0.218747 0.389638,-0.3588836 0.512695,-0.4204102 0.123037,-0.068356 0.263173,-0.1025357 0.42041,-0.1025391 0.280263,3.4e-6 0.526356,0.1059603 0.738282,0.3178711 0.211902,0.2119169 0.317859,0.4614284 0.317871,0.7485352 -1.2e-5,0.2871114 -0.143567,0.5947283 -0.430664,0.9228516 -0.417004,0.47851648 -0.953624,0.85449267 -1.609864,1.12792965 -0.881844,0.3691405 -1.855965,0.55371063 -2.922363,0.55371094 -1.244146,-3.1e-7 -2.365239,-0.25634771 -3.363281,-0.76904297 -0.806643,-0.41015538 -1.493655,-1.05615082 -2.061035,-1.93798832 -0.567384,-0.8886685 -0.851075,-1.8559527 -0.851074,-2.9018554 l 0,-1.425293 c -10e-7,-1.0937422 0.252928,-2.1122958 0.758789,-3.0556641 0.512693,-0.9501844 1.220212,-1.6816294 2.122558,-2.1943364 0.902339,-0.512682 1.85937,-0.76903 2.871094,-0.769042 0.608391,1.2e-5 1.175774,0.07179 1.702148,0.215332 0.533195,0.136731 1.0288,0.348645 1.486817,0.635742"
         style="font-size:21px;font-variant:normal;font-weight:700;font-stretch:normal;writing-mode:lr-tb;fill:#ffffff;fill-opacity:1;fill-rule:nonzero;stroke:none;font-family:Courier New;-inkscape-font-specification:CourierNewPS-BoldMT"
         id="path3028" /><path
         d="m 67.111816,-4.4296875 0,2.3276367 0.758789,0 c 0.505854,2.1e-6 0.864741,0.099123 1.076661,0.2973633 0.218743,0.1914079 0.328118,0.4443373 0.328125,0.7587891 -7e-6,0.30761789 -0.109382,0.56054732 -0.328125,0.75878902 C 68.735346,-0.09570303 68.376459,0 67.870605,0 l -3.188964,0 c -0.505861,0 -0.868165,-0.09570303 -1.086914,-0.28710938 -0.211915,-0.1982417 -0.317872,-0.4545891 -0.317872,-0.76904292 0,-0.3076159 0.109375,-0.5571273 0.328125,-0.7485352 0.21875,-0.1982402 0.577636,-0.2973612 1.076661,-0.2973633 l 0.328125,0 0,-8.2236332 -0.328125,0 c -0.505861,1.1e-5 -0.868165,-0.09569 -1.086914,-0.287109 -0.211915,-0.198231 -0.317872,-0.454579 -0.317872,-0.769043 0,-0.314441 0.105957,-0.567371 0.317872,-0.758789 0.218749,-0.19823 0.581053,-0.297351 1.086914,-0.297363 l 3.188964,0.01025 c 0.505854,1.2e-5 0.864741,0.09571 1.076661,0.287109 0.218743,0.191418 0.328118,0.444348 0.328125,0.758789 -7e-6,0.314464 -0.109382,0.570812 -0.328125,0.769043 -0.21192,0.191417 -0.570807,0.28712 -1.076661,0.287109 l -0.758789,0 0,3.1171879 3.732422,-3.2094729 c -0.218757,-0.157216 -0.369148,-0.304188 -0.451172,-0.440918 -0.08204,-0.136707 -0.123054,-0.304188 -0.123046,-0.502441 -8e-6,-0.321278 0.105949,-0.581043 0.317871,-0.779297 0.218742,-0.19823 0.581046,-0.297351 1.086914,-0.297363 l 2.143066,0.01025 c 0.505848,1.2e-5 0.864735,0.09571 1.07666,0.287109 0.218738,0.191418 0.328113,0.444348 0.328125,0.758789 -1.2e-5,0.307628 -0.109387,0.560558 -0.328125,0.758789 -0.211925,0.198253 -0.546886,0.297374 -1.004883,0.297363 l -3.773437,3.3017582 c 0.704094,0.403327 1.363761,1.0185607 1.979004,1.8457031 0.62206,0.8271528 1.172353,1.8525424 1.650879,3.0761719 l 0.563965,0 c 0.499011,2.1e-6 0.85448,0.099123 1.066406,0.2973633 0.218737,0.1914079 0.328112,0.4443373 0.328125,0.7587891 -1.3e-5,0.30761789 -0.10597,0.56054732 -0.317871,0.75878902 C 75.174793,-0.09570303 74.815906,0 74.310059,0 L 72.402832,0 C 71.965323,-1.0458974 71.486808,-2.0439433 70.967285,-2.9941406 70.543449,-3.7665978 70.14013,-4.3271441 69.757324,-4.6757812 69.381341,-5.031245 68.93017,-5.3149361 68.403809,-5.5268555 l -1.291993,1.097168"
         style="font-size:21px;font-variant:normal;font-weight:700;font-stretch:normal;writing-mode:lr-tb;fill:#ffffff;fill-opacity:1;fill-rule:nonzero;stroke:none;font-family:Courier New;-inkscape-font-specification:CourierNewPS-BoldMT"
         id="path3030" /><path
         d="m 80.183495,-7.9570312 -1.814942,-0.5844727 c -0.430666,-0.1367101 -0.704103,-0.2836826 -0.820312,-0.440918 -0.164065,-0.198233 -0.246096,-0.4204007 -0.246094,-0.6665039 -2e-6,-0.2870994 0.09912,-0.5331932 0.297363,-0.7382812 0.205076,-0.211903 0.43408,-0.31786 0.687012,-0.317871 0.16406,1.1e-5 0.406735,0.0547 0.728027,0.164062 l 1.814942,0.584473 0,-1.907227 c -6e-6,-0.505847 0.0957,-0.864733 0.287109,-1.07666 0.198237,-0.218737 0.454584,-0.328111 0.769043,-0.328125 0.314447,1.4e-5 0.567376,0.109388 0.758789,0.328125 0.191399,0.211927 0.287102,0.570813 0.287109,1.07666 l 0,1.907227 1.814942,-0.584473 c 0.328115,-0.109364 0.567373,-0.164051 0.717773,-0.164062 0.259756,1.1e-5 0.488759,0.10255 0.687012,0.307617 0.205067,0.205088 0.307606,0.4511819 0.307617,0.7382813 -1.1e-5,0.2529391 -0.07179,0.4682709 -0.215332,0.6459961 -0.136729,0.1709073 -0.417002,0.3281337 -0.84082,0.4716797 l -1.814942,0.5844727 1.117676,1.5483398 c 0.273428,0.3759826 0.410147,0.6733456 0.410156,0.8920898 -9e-6,0.2939506 -0.102548,0.543462 -0.307617,0.7485352 -0.205087,0.2050827 -0.45118,0.3076216 -0.738281,0.3076172 -0.211922,4.4e-6 -0.389656,-0.044429 -0.533203,-0.1333008 -0.136727,-0.088863 -0.314461,-0.2836865 -0.533203,-0.5844727 l -1.117676,-1.5380859 -1.12793,1.5380859 c -0.211919,0.3007862 -0.389653,0.4990282 -0.533203,0.5947266 -0.143559,0.088872 -0.317875,0.1333052 -0.522949,0.1333008 -0.287113,4.4e-6 -0.536625,-0.1025345 -0.748535,-0.3076172 -0.205081,-0.2119091 -0.30762,-0.4682565 -0.307617,-0.769043 -3e-6,-0.2119083 0.136715,-0.5058533 0.410156,-0.8818359 l 1.12793,-1.5483398"
         style="font-size:21px;font-variant:normal;font-weight:700;font-stretch:normal;writing-mode:lr-tb;fill:#ffffff;fill-opacity:1;fill-rule:nonzero;stroke:none;font-family:Courier New;-inkscape-font-specification:CourierNewPS-BoldMT"
         id="path3032" /><path
         d="m 92.783493,-7.9570312 -1.814941,-0.5844727 c -0.430667,-0.1367101 -0.704104,-0.2836826 -0.820313,-0.440918 -0.164064,-0.198233 -0.246095,-0.4204007 -0.246094,-0.6665039 -10e-7,-0.2870994 0.09912,-0.5331932 0.297364,-0.7382812 0.205076,-0.211903 0.434079,-0.31786 0.687011,-0.317871 0.16406,1.1e-5 0.406736,0.0547 0.728028,0.164062 l 1.814941,0.584473 0,-1.907227 c -5e-6,-0.505847 0.0957,-0.864733 0.28711,-1.07666 0.198236,-0.218737 0.454583,-0.328111 0.769042,-0.328125 0.314447,1.4e-5 0.567376,0.109388 0.75879,0.328125 0.191399,0.211927 0.287102,0.570813 0.287109,1.07666 l 0,1.907227 1.814941,-0.584473 c 0.328116,-0.109364 0.567373,-0.164051 0.717774,-0.164062 0.259755,1.1e-5 0.488759,0.10255 0.687011,0.307617 0.205068,0.205088 0.307607,0.4511819 0.307618,0.7382813 -1.1e-5,0.2529391 -0.07179,0.4682709 -0.215332,0.6459961 -0.13673,0.1709073 -0.417003,0.3281337 -0.840821,0.4716797 l -1.814941,0.5844727 1.117676,1.5483398 c 0.273428,0.3759826 0.410146,0.6733456 0.410156,0.8920898 -1e-5,0.2939506 -0.102549,0.543462 -0.307617,0.7485352 -0.205087,0.2050827 -0.451181,0.3076216 -0.738281,0.3076172 -0.211923,4.4e-6 -0.389657,-0.044429 -0.533204,-0.1333008 -0.136726,-0.088863 -0.31446,-0.2836865 -0.533203,-0.5844727 l -1.117676,-1.5380859 -1.127929,1.5380859 c -0.211919,0.3007862 -0.389653,0.4990282 -0.533203,0.5947266 -0.14356,0.088872 -0.317876,0.1333052 -0.52295,0.1333008 -0.287113,4.4e-6 -0.536624,-0.1025345 -0.748535,-0.3076172 -0.205081,-0.2119091 -0.30762,-0.4682565 -0.307617,-0.769043 -3e-6,-0.2119083 0.136716,-0.5058533 0.410156,-0.8818359 l 1.12793,-1.5483398"
         style="font-size:21px;font-variant:normal;font-weight:700;font-stretch:normal;writing-mode:lr-tb;fill:#ffffff;fill-opacity:1;fill-rule:nonzero;stroke:none;font-family:Courier New;-inkscape-font-specification:CourierNewPS-BoldMT"
         id="path3034" /></g></g></svg>