<?xml version="1.0" encoding="UTF-8" standalone="no"?>
<!-- Created with Inkscape (http://www.inkscape.org/) -->

<svg
   xmlns:ns="http://ns.adobe.com/SaveForWeb/1.0/"
   xmlns:dc="http://purl.org/dc/elements/1.1/"
   xmlns:cc="http://creativecommons.org/ns#"
   xmlns:rdf="http://www.w3.org/1999/02/22-rdf-syntax-ns#"
   xmlns:svg="http://www.w3.org/2000/svg"
   xmlns="http://www.w3.org/2000/svg"
   xmlns:sodipodi="http://sodipodi.sourceforge.net/DTD/sodipodi-0.dtd"
   xmlns:inkscape="http://www.inkscape.org/namespaces/inkscape"
   version="1.2"
   width="300"
   height="97"
   viewBox="0 0 300 97.000003"
   id="logo"
   xml:space="preserve"
   inkscape:version="0.48.4 r9939"
   sodipodi:docname="minbzk_bw.svg"><sodipodi:namedview
     pagecolor="#ffffff"
     bordercolor="#666666"
     borderopacity="1"
     objecttolerance="10"
     gridtolerance="10"
     guidetolerance="10"
     inkscape:pageopacity="0"
     inkscape:pageshadow="2"
     inkscape:window-width="1920"
     inkscape:window-height="1056"
     id="namedview3261"
     showgrid="false"
     fit-margin-top="10"
     fit-margin-left="10"
     fit-margin-right="10"
     fit-margin-bottom="10"
     inkscape:zoom="1.1014979"
     inkscape:cx="142.54678"
     inkscape:cy="48.499998"
     inkscape:window-x="0"
     inkscape:window-y="24"
     inkscape:window-maximized="1"
     inkscape:current-layer="logo" /><defs
     id="defs87" /><style
     type="text/css"
     id="style3"
     xml:space="preserve" /><metadata
     id="metadata5"><ns:sfw><ns:slices /><ns:sliceSourceBounds
         y="-158.12"
         x="190.6"
         width="243.34"
         height="77"
         bottomLeftOrigin="true" /></ns:sfw><rdf:RDF><cc:Work
         rdf:about=""><dc:format>image/svg+xml</dc:format><dc:type
           rdf:resource="http://purl.org/dc/dcmitype/StillImage" /><dc:title /></cc:Work></rdf:RDF></metadata><g
     id="g7"
     transform="translate(9.9999984,10)"><g
       id="g9"><g
         id="g11"><g
           id="g13"><g
             id="g15"><g
               id="g17"><g
                 id="g19"><path
                   style="fill:#000000"
                   d="M 0,0 44,0 44,77 0,77 z"
                   id="rect21" /><path
                   d="M 22.76,57.01 H 22 v -2.12 h 0.76 v 2.12 z m 3.45,-9.35 h -0.76 v -2.12 h 0.76 v 2.12 z M 12.05,44 c -0.06,0 -0.45,0 -0.45,0.08 0,0.08 0.18,0.04 0.45,0.09 0.61,0.1 0.85,0.41 1.28,0.41 0.39,0 0.79,-0.26 0.63,-0.83 -0.03,-0.09 -0.08,-0.07 -0.09,-0.01 -0.06,0.25 -0.37,0.4 -0.7,0.4 -0.4,0 -0.49,-0.14 -1.12,-0.14 z m -4.21,2.12 c 0.07,0.09 0.79,1.03 -0.32,1.39 -0.05,0.02 -0.07,0.06 0.01,0.1 0.82,0.34 1.22,-0.29 1.22,-0.29 0.41,0.94 -0.22,1.46 -0.22,1.46 0.09,0.17 0.48,0.45 1.07,0.59 0.22,-0.12 0.54,-0.35 0.67,-0.71 0,0 0.16,0.41 0.01,0.8 1.67,0.15 2.26,-1.18 3.55,-0.94 0.04,0.01 0.05,-0.02 0.05,-0.06 0,-0.82 -0.5,-2.33 -2.1,-2.64 -1.59,-0.31 -1.16,-0.96 -1.16,-0.96 0.67,-0.03 1.06,0.26 1.06,0.26 0.12,-0.2 -0.05,-0.42 -0.05,-0.42 0.06,-0.08 0.1,-0.35 0.1,-0.35 -0.75,0 -0.95,-0.16 -0.95,-0.16 -0.12,-0.45 0.2,-1.08 1.32,-0.4 0.28,-0.25 0.26,-0.63 0.26,-0.63 0.08,-0.04 0.14,-0.17 0.14,-0.23 0,-0.19 -0.9,-0.69 -1.13,-0.75 -0.06,-0.27 -0.4,-0.66 -1.46,-0.52 -0.5,0.06 -0.86,-0.07 -0.69,-0.36 0.03,-0.05 -0.06,-0.06 -0.11,-0.01 -0.12,0.12 -0.27,0.44 0.16,0.66 0.48,0.24 0.51,0.73 0.52,0.8 0.01,0.1 -0.12,0.11 -0.14,0.01 -0.22,-0.82 -1.34,-0.99 -2,-0.56 0.04,0.44 0.51,0.73 0.77,0.73 0.15,0 0.35,-0.15 0.35,-0.35 0,-0.1 0.05,-0.09 0.08,-0.01 0.11,0.29 -0.32,0.89 -0.96,0.53 -0.65,0.65 -0.39,1.46 -0.33,1.75 0.12,0.53 -0.14,1.05 -0.62,0.81 -0.02,-0.01 -0.05,-0.02 -0.05,0.04 0,0.33 0.43,0.71 0.95,0.42 z m 3.58,-3.28 c -0.3,0.34 -0.8,0.26 -0.92,-0.3 0.63,-0.03 0.9,0.03 0.92,0.3 z m 19.4,1.3 c -0.33,0 -0.64,-0.14 -0.7,-0.4 -0.01,-0.06 -0.07,-0.09 -0.09,0.01 -0.16,0.56 0.24,0.83 0.63,0.83 0.43,0 0.67,-0.31 1.28,-0.41 0.27,-0.05 0.45,0 0.45,-0.09 0,-0.08 -0.4,-0.08 -0.45,-0.08 -0.63,0 -0.71,0.14 -1.12,0.14 z m 6.29,1.56 c 0,-0.06 -0.02,-0.05 -0.05,-0.04 -0.48,0.24 -0.74,-0.28 -0.62,-0.81 0.07,-0.3 0.33,-1.1 -0.33,-1.75 -0.64,0.37 -1.07,-0.24 -0.96,-0.53 0.03,-0.08 0.08,-0.09 0.08,0.01 0,0.2 0.21,0.35 0.35,0.35 0.26,0 0.73,-0.29 0.77,-0.73 -0.66,-0.43 -1.78,-0.26 -2,0.56 -0.03,0.1 -0.15,0.09 -0.14,-0.01 0,-0.07 0.03,-0.56 0.52,-0.8 0.44,-0.22 0.28,-0.54 0.16,-0.66 -0.05,-0.05 -0.14,-0.04 -0.11,0.01 0.17,0.29 -0.19,0.42 -0.69,0.36 -1.05,-0.14 -1.4,0.25 -1.46,0.52 -0.23,0.06 -1.13,0.56 -1.13,0.75 0,0.06 0.05,0.19 0.14,0.23 0,0 -0.02,0.38 0.26,0.63 1.12,-0.68 1.43,-0.04 1.32,0.4 0,0 -0.2,0.16 -0.95,0.16 0,0 0.04,0.27 0.1,0.35 0,0 -0.17,0.22 -0.05,0.42 0,0 0.39,-0.29 1.06,-0.26 0,0 0.43,0.65 -1.16,0.96 -1.59,0.31 -2.1,1.81 -2.1,2.64 0,0.04 0.02,0.06 0.05,0.06 1.29,-0.24 1.88,1.1 3.55,0.94 -0.15,-0.39 0.01,-0.8 0.01,-0.8 0.13,0.35 0.45,0.59 0.67,0.71 0.59,-0.13 0.98,-0.42 1.07,-0.59 0,0 -0.63,-0.52 -0.22,-1.46 0,0 0.4,0.63 1.22,0.29 0.07,-0.03 0.06,-0.08 0.01,-0.1 -1.11,-0.36 -0.39,-1.29 -0.32,-1.39 0.52,0.29 0.95,-0.09 0.95,-0.42 z m -3.62,-3.16 c -0.12,0.56 -0.62,0.64 -0.92,0.3 0.03,-0.27 0.3,-0.33 0.92,-0.3 z M 21.71,33.15 c 0,0.14 0.06,0.26 0.11,0.33 0.1,0.14 0.08,0.22 0.04,0.26 -0.05,0.05 -0.12,0.06 -0.26,-0.04 -0.07,-0.05 -0.19,-0.11 -0.33,-0.11 -0.24,0 -0.36,0.16 -0.36,0.29 0,0.14 0.12,0.29 0.36,0.29 0.14,0 0.26,-0.06 0.33,-0.11 0.14,-0.1 0.22,-0.08 0.26,-0.04 0.05,0.05 -0.02,0.53 -0.08,0.91 -0.4,0.08 -0.59,0.4 -0.59,0.59 0,0.48 0.51,0.76 0.82,0.92 0.3,-0.16 0.82,-0.44 0.82,-0.92 0,-0.19 -0.19,-0.51 -0.59,-0.59 -0.05,-0.38 -0.12,-0.87 -0.08,-0.91 0.05,-0.05 0.12,-0.06 0.26,0.04 0.07,0.05 0.19,0.11 0.33,0.11 0.24,0 0.36,-0.16 0.36,-0.29 0,-0.14 -0.12,-0.29 -0.36,-0.29 -0.14,0 -0.26,0.06 -0.33,0.11 -0.14,0.1 -0.22,0.08 -0.26,0.04 -0.05,-0.05 -0.06,-0.12 0.04,-0.26 0.05,-0.07 0.11,-0.19 0.11,-0.33 0,-0.24 -0.16,-0.36 -0.29,-0.36 -0.16,0 -0.31,0.12 -0.31,0.36 z M 22,36.72 c -0.32,0 -0.59,0.26 -0.59,0.59 0,0.32 0.26,0.59 0.59,0.59 0.32,0 0.59,-0.26 0.59,-0.59 0,-0.33 -0.27,-0.59 -0.59,-0.59 z m 0,5.63 c 2.35,0 3.67,0.45 3.67,0.45 0.01,-1.18 0,-1.85 0.68,-1.75 -0.37,-1 1.23,-1.39 1.23,-2.68 0,-0.85 -0.6,-0.95 -0.78,-0.95 -0.53,0 -0.45,0.35 -0.9,0.35 -0.06,0 -0.11,-0.01 -0.11,0.03 0,0.15 0.13,0.4 0.33,0.4 0.28,0 0.28,-0.28 0.49,-0.28 0.09,0 0.22,0.07 0.22,0.36 0,0.55 -0.36,1.16 -0.79,1.64 -0.1,-0.14 -0.23,-0.22 -0.39,-0.22 -0.25,0 -0.47,0.26 -0.47,0.59 0,0.12 0.02,0.21 0.06,0.31 -0.14,0.08 -0.27,0.12 -0.36,0.12 -0.19,0 -0.48,-0.08 -0.48,-0.5 0,-0.94 1.26,-1.77 1.26,-2.96 0,-0.57 -0.38,-1.14 -1.17,-1.14 -0.85,0 -0.69,0.78 -1.43,0.78 -0.03,0 -0.06,0.01 -0.06,0.04 0,0.05 0.13,0.48 0.51,0.48 0.41,0 0.52,-0.71 0.88,-0.71 0.14,0 0.34,0.08 0.34,0.56 0,0.37 -0.18,0.97 -0.45,1.55 -0.1,-0.1 -0.23,-0.17 -0.37,-0.17 -0.32,0 -0.54,0.31 -0.54,0.67 0,0.23 0.09,0.45 0.25,0.6 -0.19,0.24 -0.38,0.43 -0.63,0.43 -0.51,0 -0.73,-0.29 -0.73,-0.6 0,-0.34 0.62,-0.46 0.62,-1 0,-0.36 -0.23,-0.57 -0.46,-0.57 -0.24,0 -0.37,0.16 -0.39,0.16 -0.03,0 -0.15,-0.16 -0.39,-0.16 -0.23,0 -0.46,0.2 -0.46,0.57 0,0.53 0.62,0.66 0.62,1 0,0.31 -0.22,0.6 -0.73,0.6 -0.26,0 -0.45,-0.19 -0.63,-0.43 0.16,-0.15 0.25,-0.37 0.25,-0.6 0,-0.37 -0.23,-0.67 -0.54,-0.67 -0.15,0 -0.28,0.07 -0.37,0.17 -0.26,-0.58 -0.45,-1.18 -0.45,-1.55 0,-0.48 0.2,-0.56 0.34,-0.56 0.36,0 0.48,0.71 0.88,0.71 0.38,0 0.51,-0.43 0.51,-0.48 0,-0.03 -0.03,-0.04 -0.06,-0.04 -0.74,0 -0.58,-0.78 -1.43,-0.78 -0.79,0 -1.17,0.57 -1.17,1.14 0,1.19 1.26,2.02 1.26,2.96 0,0.42 -0.29,0.5 -0.48,0.5 -0.1,0 -0.22,-0.05 -0.36,-0.12 0.04,-0.1 0.06,-0.19 0.06,-0.31 0,-0.33 -0.22,-0.59 -0.47,-0.59 -0.16,0 -0.29,0.08 -0.39,0.22 -0.43,-0.47 -0.79,-1.09 -0.79,-1.64 0,-0.28 0.13,-0.36 0.22,-0.36 0.21,0 0.21,0.28 0.49,0.28 0.21,0 0.33,-0.26 0.33,-0.4 0,-0.04 -0.06,-0.03 -0.11,-0.03 -0.45,0 -0.37,-0.35 -0.9,-0.35 -0.18,0 -0.78,0.1 -0.78,0.95 0,1.3 1.6,1.69 1.23,2.68 0.68,-0.1 0.67,0.56 0.68,1.75 -0.06,0 1.26,-0.45 3.61,-0.45 z m -4.3,1.75 c -0.64,0.14 -1.1,0.27 -1.3,0.33 0.01,-0.28 0.12,-0.54 0.37,-0.6 0.03,-0.01 0.04,-0.05 0.01,-0.07 -0.57,-0.38 -0.87,0.35 -0.88,0.37 -0.2,-0.02 -0.51,0.05 -0.51,0.32 0,0.82 -1.86,1.27 -2.3,1.33 0.76,0.29 1.08,1.25 1.08,1.25 0.55,-0.55 1.2,-1.04 1.34,-1.04 0.15,0 0.2,0.18 0.21,0.29 0,0.04 0.04,0.05 0.06,0.02 0.29,-0.43 0.15,-0.53 0.13,-0.66 -0.02,-0.1 0.01,-0.48 0.43,-0.43 v 5.44 l -0.22,0.04 c -0.1,0.02 -0.89,-0.66 -1.81,-1.29 -0.91,-0.63 -1.4,-0.25 -2.44,0.31 -1.36,0.74 -2.73,0.07 -2.73,0.07 -1.17,0.84 -1.57,3.26 -1.57,3.26 -0.23,0.1 -0.62,0.21 -0.99,0.21 -0.89,0 -1.06,-0.54 -1.06,-0.87 0,-1.38 1.73,-1.97 1.73,-3.33 0,-0.33 -0.15,-1.67 -1.81,-1.67 -0.21,0 -1.48,0 -1.49,0 -0.62,0 -0.78,-0.45 -0.86,-0.62 C 3.06,46.7 3,46.74 3.02,46.79 c 0.05,0.11 -0.07,0.29 -0.07,0.63 0,0.55 0.32,0.88 0.93,0.88 0.28,0 0.53,-0.08 0.62,-0.13 0.06,-0.03 0.09,0.02 0.06,0.05 -0.26,0.31 -0.28,0.88 -0.18,1.02 0.03,0.03 0.06,0.02 0.06,0 0.15,-0.58 0.69,-1.14 1.43,-1.14 0.9,0 0.9,0.77 0.9,0.95 0,1.11 -1.95,1.92 -1.95,3.44 0,1.55 1.63,1.88 2.58,1.63 -0.06,1.55 -1.83,2.07 -1.88,0.97 0,-0.05 -0.04,-0.07 -0.07,0 -0.22,0.55 -0.14,1.03 0.55,1.18 0.05,0.01 0.02,0.04 -0.02,0.07 -0.67,0.45 -0.3,2.16 -0.27,2.66 0.05,0.72 -0.67,0.64 -0.73,0.62 -0.03,-0.01 -0.06,0 -0.01,0.06 0.51,0.62 1.14,0.05 1.14,0.05 0.48,0.15 0.18,0.56 -0.14,0.77 -0.05,0.03 -0.05,0.07 0.01,0.07 0.07,0 0.81,0.07 0.94,-0.52 0.33,0.39 0.81,0.25 0.91,0.2 0.14,-0.07 0.83,-0.32 0.9,0.45 0,0.06 0.04,0.02 0.06,-0.01 0.52,-0.66 -0.04,-1.06 -0.35,-1.11 0.03,-0.04 0.44,-0.38 0.82,0.1 0.03,0.03 0.05,0.04 0.05,-0.03 C 9.35,58.82 8.68,58.74 8.24,59.1 8.22,59.01 8.07,58.55 8.73,58.56 c 0.02,0 0.05,-0.02 0.01,-0.06 -0.51,-0.54 -0.94,-0.05 -1.03,0.07 -0.23,0.27 -0.8,0.16 -0.85,0.16 0.18,-2.89 2.72,-1.87 3.07,-3.27 0.02,-0.07 0.05,-0.05 0.06,-0.02 0.1,0.34 0.96,0.39 1.12,-0.28 0.01,-0.04 0,-0.07 -0.03,-0.04 -0.74,0.74 -2.4,-1.56 -0.13,-3.43 1.93,-1.59 3.67,-0.71 4.32,-0.18 0.03,0.23 -0.1,0.31 -0.19,0.33 -0.03,0.01 -0.04,0.04 0.01,0.06 0.18,0.07 0.44,0.05 0.57,-0.12 0.42,0.29 0.06,0.66 -0.11,0.76 -0.04,0.03 -0.02,0.05 0.01,0.06 0.38,0.07 0.69,-0.32 0.71,-0.54 l 0.06,0.04 v 1.64 c 0,2.34 2.7,2.66 5.66,4.64 2.96,-1.98 5.66,-2.31 5.66,-4.64 V 52.1 l 0.06,-0.04 c 0.02,0.22 0.33,0.61 0.71,0.54 0.04,-0.01 0.05,-0.03 0.01,-0.06 -0.17,-0.1 -0.52,-0.47 -0.11,-0.76 0.12,0.17 0.38,0.19 0.57,0.12 0.05,-0.02 0.04,-0.05 0.01,-0.06 -0.09,-0.03 -0.23,-0.1 -0.19,-0.33 0.66,-0.52 2.39,-1.41 4.32,0.18 2.26,1.87 0.6,4.17 -0.13,3.43 -0.03,-0.03 -0.04,0 -0.03,0.04 0.16,0.68 1.02,0.63 1.12,0.28 0.01,-0.03 0.04,-0.05 0.06,0.02 0.35,1.4 2.9,0.38 3.07,3.27 -0.05,0.01 -0.62,0.11 -0.85,-0.16 -0.1,-0.12 -0.52,-0.61 -1.03,-0.07 -0.03,0.03 0,0.06 0.01,0.06 0.66,-0.02 0.52,0.45 0.49,0.54 -0.44,-0.36 -1.11,-0.29 -1.07,0.55 0,0.07 0.03,0.06 0.05,0.03 0.38,-0.48 0.79,-0.13 0.82,-0.1 -0.31,0.05 -0.87,0.45 -0.35,1.11 0.02,0.03 0.05,0.07 0.06,0.01 0.07,-0.78 0.76,-0.52 0.9,-0.45 0.1,0.05 0.58,0.19 0.91,-0.2 0.13,0.59 0.87,0.52 0.94,0.52 0.05,0 0.06,-0.04 0.01,-0.07 -0.32,-0.21 -0.61,-0.62 -0.14,-0.77 0,0 0.63,0.57 1.14,-0.05 0.04,-0.06 0.02,-0.07 -0.01,-0.06 -0.06,0.02 -0.78,0.11 -0.73,-0.62 0.03,-0.5 0.4,-2.21 -0.28,-2.64 -0.04,-0.03 -0.07,-0.05 -0.02,-0.07 0.69,-0.15 0.78,-0.63 0.55,-1.18 -0.03,-0.07 -0.07,-0.06 -0.07,0 -0.05,1.11 -1.82,0.58 -1.88,-0.97 0.95,0.24 2.58,-0.09 2.58,-1.63 0,-1.52 -1.95,-2.34 -1.95,-3.44 0,-0.19 0,-0.95 0.9,-0.95 0.74,0 1.28,0.55 1.43,1.14 0.01,0.03 0.04,0.04 0.06,0 0.11,-0.14 0.09,-0.72 -0.18,-1.02 -0.03,-0.03 0,-0.08 0.06,-0.05 0.08,0.05 0.34,0.13 0.62,0.13 0.6,0 0.93,-0.33 0.93,-0.88 0,-0.35 -0.12,-0.52 -0.07,-0.63 0.02,-0.05 -0.04,-0.09 -0.07,-0.02 -0.09,0.17 -0.24,0.62 -0.86,0.62 -0.01,0 -1.27,0 -1.49,0 -1.66,0 -1.81,1.34 -1.81,1.67 0,1.36 1.73,1.95 1.73,3.33 0,0.32 -0.16,0.87 -1.06,0.87 -0.37,0 -0.75,-0.1 -0.99,-0.21 0,0 -0.4,-2.42 -1.57,-3.26 0,0 -1.37,0.67 -2.73,-0.07 -1.04,-0.56 -1.53,-0.94 -2.44,-0.31 -0.91,0.63 -1.71,1.31 -1.8,1.29 l -0.22,-0.04 v -5.44 c 0.42,-0.04 0.45,0.33 0.43,0.43 -0.02,0.13 -0.16,0.23 0.13,0.66 0.02,0.03 0.06,0.02 0.06,-0.02 0.01,-0.11 0.07,-0.29 0.21,-0.29 0.14,0 0.79,0.49 1.34,1.04 0,0 0.32,-0.96 1.08,-1.25 -0.43,-0.07 -2.3,-0.52 -2.3,-1.33 0,-0.27 -0.31,-0.34 -0.51,-0.32 -0.01,-0.02 -0.31,-0.75 -0.88,-0.37 -0.03,0.02 -0.02,0.06 0.01,0.07 0.25,0.06 0.36,0.32 0.37,0.6 -0.54,-0.17 -2.86,-0.82 -5.6,-0.82 -1.33,0 -2.56,0.15 -3.54,0.33 v 1.89 H 17.7 V 44.1 l 0,0 M 12.64,63.42 C 12.44,63.34 12.3,63.21 12.3,62.94 V 61.77 C 11.96,61.65 11.05,61.3 9.22,61.3 c -1.52,0 -2,0.34 -2.02,0.46 l -0.4,2.23 c 0,0 0.62,-0.56 2.82,-0.42 2.66,0.17 5.41,1.74 5.41,0.07 v -0.98 c -2.09,0 -2.39,0.66 -2.39,0.76 z m 16.34,-0.76 v 0.98 c 0,1.67 2.75,0.1 5.41,-0.07 2.2,-0.14 2.82,0.42 2.82,0.42 l -0.4,-2.23 c -0.02,-0.12 -0.5,-0.46 -2.02,-0.46 -1.83,0 -2.75,0.35 -3.08,0.47 v 1.17 c 0,0.27 -0.13,0.4 -0.34,0.48 -0.01,-0.1 -0.31,-0.76 -2.39,-0.76 z M 22,61.65 c 4.28,0 8.62,0.22 9.19,0.87 0.05,0.05 0.06,0 0.06,-0.04 l 0,-2.27 c 0,-0.66 -4.48,-1.05 -9.25,-1.05 -4.77,0 -9.25,0.38 -9.25,1.05 l 0,2.27 c 0,0.04 0.02,0.09 0.06,0.04 0.57,-0.65 4.91,-0.87 9.19,-0.87 z m -3.81,-10.69 -0.43,-0.11 -0.04,0.05 -0.5,-0.22 c 0,0 0.37,0 0.45,0 0.04,0 0.04,-0.03 0.02,-0.05 -0.2,-0.2 -0.38,-0.38 -0.38,-0.38 0,0 0.2,0.08 0.5,0.18 0.03,0.01 0.05,-0.01 0.03,-0.03 -0.14,-0.21 -0.33,-0.48 -0.33,-0.48 0,0 0.4,0.27 0.49,0.33 0.03,0.02 0.05,0 0.04,-0.03 -0.11,-0.27 -0.23,-0.57 -0.23,-0.57 l 0.44,0.42 c 0.02,0.02 0.04,0.01 0.04,-0.02 -0.04,-0.2 -0.12,-0.57 -0.12,-0.57 l 0.33,0.48 c 0.02,0.03 0.04,0.02 0.04,-0.01 0,-0.09 0.01,-0.52 0.01,-0.52 0,0 0.14,0.31 0.21,0.48 0.01,0.03 0.04,0.03 0.06,-0.01 0.02,-0.05 0.17,-0.4 0.17,-0.4 l 0.02,0.54 -0.07,0.01 -0.09,0.65 c 0.65,-0.15 1.45,-1.26 2.07,-1.26 0.73,0 1,0.86 2.36,0.42 0.34,0.51 0.46,0.95 0.59,1.56 0.52,0.49 1.26,0.33 1.26,-0.19 0,-0.7 -0.77,-0.84 -0.77,-1.57 0,-0.33 0.23,-0.8 0.86,-0.8 0.33,0 0.82,0.14 1.1,0.14 0.33,0 0.4,-0.24 0.44,-0.34 0.03,-0.07 0.12,-0.05 0.11,0.01 -0.01,0.07 0.04,0.16 0.04,0.32 0,0.46 -0.68,0.52 -0.76,0.47 -0.03,-0.02 -0.06,0.01 -0.03,0.03 0.1,0.08 0.08,0.36 -0.04,0.53 -0.01,0.02 -0.03,0.02 -0.04,0 -0.07,-0.33 -0.46,-0.74 -0.81,-0.74 -0.13,0 -0.38,0.07 -0.38,0.37 0,0.42 0.84,0.8 0.84,1.66 0,0.9 -0.89,1.11 -1.79,0.89 0.03,0.85 1.3,1.36 1.33,0.75 0,-0.04 0.02,-0.02 0.04,0 0.19,0.26 0.1,0.46 -0.14,0.56 0.22,0.1 0.26,0.55 0.33,0.81 0.1,0.4 0.52,0.18 0.54,0.17 0.02,-0.01 0.03,0 0.02,0.02 -0.16,0.42 -0.59,0.26 -0.59,0.26 -0.22,0.16 0.05,0.3 0.25,0.36 0.03,0.01 0.03,0.03 0,0.04 -0.15,0.05 -0.47,0.15 -0.62,-0.11 -0.11,0.28 -0.35,0.27 -0.44,0.27 -0.16,0 -0.27,0.17 -0.23,0.39 0,0.02 -0.01,0.03 -0.03,0.01 -0.39,-0.26 -0.17,-0.56 -0.01,-0.64 -0.03,-0.02 -0.3,-0.13 -0.41,0.19 -0.01,0.02 -0.02,0.03 -0.03,0 -0.17,-0.45 0.2,-0.59 0.47,-0.47 -0.02,-0.06 -0.16,-0.29 -0.51,-0.21 -0.02,0 -0.03,0 -0.02,-0.02 0.06,-0.14 0.23,-0.34 0.55,-0.14 0.16,0.1 0.45,-0.05 0.47,-0.06 -0.57,-1.13 -1.67,-0.18 -1.92,-1.07 0,-0.02 -0.03,-0.03 -0.04,0.01 -0.06,0.19 -0.54,0.2 -0.63,-0.17 -0.01,-0.03 0,-0.03 0.02,-0.01 0.07,0.07 0.22,0.14 0.42,-0.15 0.13,-0.19 0.15,-0.44 0.15,-0.62 0,-0.69 -0.69,-1.84 -1.76,-1.84 -0.68,0 -1.41,0.26 -1.95,0.66 l 0.5,0.12 c -0.05,0.51 -0.54,0.81 -0.99,0.68 l 0.08,-0.58 c -0.08,0.02 -0.28,0.09 -0.38,0.24 -0.01,0.01 -0.02,0.01 -0.03,0 -0.09,-0.33 0.18,-0.5 0.27,-0.54 0.01,-0.01 0.01,-0.01 -0.01,-0.01 -0.24,-0.01 -0.38,0.17 -0.42,0.23 -0.01,0.01 -0.02,0.01 -0.02,0 -0.05,-0.08 -0.09,-0.25 0.03,-0.37 z m 1.49,3.93 c -0.19,0.24 -0.36,0.01 -0.62,0.01 -0.24,0 -0.28,0.2 -0.28,0.28 0,0.01 -0.01,0.02 -0.02,0 -0.27,-0.37 0.03,-0.57 0.21,-0.6 -0.03,-0.03 -0.29,-0.2 -0.46,0.04 -0.01,0.02 -0.03,0.01 -0.03,-0.01 -0.01,-0.46 0.35,-0.49 0.59,-0.29 0.04,-0.17 -0.07,-0.29 -0.26,-0.3 -0.02,0 -0.03,-0.02 -0.02,-0.03 0.08,-0.09 0.16,-0.13 0.24,-0.13 0.25,0 0.29,0.32 0.45,0.32 0.25,0 0.6,-0.34 0.64,-0.37 -0.01,-0.02 -0.25,-0.66 -0.2,-1.05 0,-0.02 -0.01,-0.02 -0.02,-0.01 -0.12,0.07 -0.43,0.07 -0.43,-0.31 0,-0.03 0.01,-0.03 0.03,-0.01 0.13,0.19 0.35,-0.02 0.46,-0.15 0.12,-0.13 0.75,-1.04 1.58,-1.04 0.18,0 0.42,0.1 0.61,0.23 -0.29,0.35 0,0.69 0.21,0.65 0.03,0 0.03,0.02 0.01,0.03 -1.11,0.42 -1.6,0.58 -1.6,1.51 0,0.48 0.17,0.75 0.45,0.69 0.02,-0.01 0.03,0 0.01,0.02 -0.1,0.12 -0.22,0.16 -0.32,0.16 -0.23,0 -0.27,-0.13 -0.39,-0.13 -0.13,0 -0.54,0.24 -0.54,0.45 0,0.08 0.05,0.18 0.19,0.28 0.01,0.01 0,0.01 0,0.02 -0.09,0.03 -0.41,0.05 -0.49,-0.26 z m 2.92,-9.01 c -0.35,-0.02 -0.57,0.06 -0.56,0.17 0.17,0.18 0.39,0.16 0.56,-0.17 z m -1.28,0.86 c 0.24,-0.06 0.51,-0.03 0.54,-0.02 0.04,0.01 0.04,0.07 -0.01,0.08 -0.51,0.07 -0.53,0.3 -0.86,0.3 -0.21,0 -0.45,-0.22 -0.36,-0.53 0.01,-0.04 0.04,-0.04 0.05,0 0.04,0.12 0.24,0.27 0.64,0.17 z m -6.62,11.3 c 0.34,0.43 0.66,0.03 1.1,0.03 0.22,0 0.48,0.07 0.53,0.51 0,0.02 0.02,0.03 0.04,0 0.48,-0.66 -0.07,-1.03 -0.38,-1.08 0.07,-0.06 0.54,-0.35 0.84,0.08 0.02,0.02 0.05,0.02 0.05,-0.02 0,-0.83 -0.63,-0.89 -1.08,-0.53 -0.09,-0.33 0.16,-0.54 0.48,-0.54 0.04,0 0.05,-0.03 0.03,-0.05 -0.56,-0.6 -0.98,0.15 -1.07,0.27 -0.22,0.3 -1.02,-0.26 -1.34,-0.59 0,0 0.71,-0.74 0.71,-1.42 0,-0.04 0,-0.1 0,-0.12 0,-0.02 0.01,-0.03 0.03,-0.02 0.07,0.04 0.17,0.07 0.26,0.07 0.16,0 0.47,-0.05 0.47,-0.62 0,-0.04 -0.02,-0.04 -0.04,-0.02 -0.08,0.12 -0.18,0.15 -0.25,0.15 -0.57,0 -1.76,-1.9 -3.16,-1.9 -0.37,0 -1.06,0.26 -1.41,0.64 0.17,0.1 0.2,0.31 0.18,0.46 -0.03,0.24 -0.22,0.36 -0.41,0.42 -0.03,0.01 -0.04,0.03 0,0.05 0.71,0.27 2,0.76 2.29,1.01 0.35,0.3 0.28,0.87 0.08,1.65 -0.19,0.75 -0.61,0.65 -0.76,0.62 -0.02,0 -0.03,0.01 -0.02,0.03 0.18,0.23 0.41,0.31 0.6,0.31 0.37,0 0.51,-0.23 0.7,-0.23 0.32,0 0.99,0.46 0.99,0.81 0,0.2 -0.15,0.37 -0.35,0.5 -0.01,0.01 -0.01,0.02 0.01,0.03 0.13,0.01 0.76,0.06 0.88,-0.5 z m 15.5,0.49 c 0.02,0 0.02,-0.02 0.01,-0.03 -0.2,-0.13 -0.35,-0.31 -0.35,-0.5 0,-0.35 0.67,-0.81 0.99,-0.81 0.19,0 0.33,0.23 0.7,0.23 0.19,0 0.41,-0.08 0.6,-0.31 0.01,-0.02 0.01,-0.03 -0.02,-0.03 -0.15,0.02 -0.57,0.13 -0.76,-0.62 -0.2,-0.78 -0.27,-1.35 0.08,-1.65 0.29,-0.25 1.58,-0.74 2.29,-1.01 0.04,-0.02 0.03,-0.04 0,-0.05 -0.2,-0.05 -0.39,-0.17 -0.41,-0.42 -0.02,-0.15 0.01,-0.36 0.18,-0.46 -0.35,-0.38 -1.04,-0.64 -1.41,-0.64 -1.4,0 -2.59,1.9 -3.16,1.9 -0.07,0 -0.16,-0.03 -0.25,-0.15 -0.02,-0.03 -0.04,-0.03 -0.04,0.02 0,0.57 0.3,0.62 0.47,0.62 0.09,0 0.19,-0.03 0.26,-0.07 0.02,-0.01 0.03,0 0.03,0.02 0,0.02 0,0.08 0,0.12 0,0.68 0.71,1.42 0.71,1.42 C 29.8,56.44 29,57 28.78,56.7 c -0.1,-0.12 -0.51,-0.87 -1.07,-0.27 -0.02,0.02 -0.01,0.05 0.03,0.05 0.31,0 0.56,0.21 0.48,0.54 -0.45,-0.36 -1.08,-0.3 -1.08,0.53 0,0.03 0.03,0.04 0.05,0.02 0.3,-0.43 0.77,-0.14 0.84,-0.08 -0.32,0.05 -0.87,0.42 -0.38,1.08 0.02,0.03 0.04,0.02 0.04,0 0.05,-0.43 0.31,-0.51 0.53,-0.51 0.44,0 0.77,0.41 1.1,-0.03 0.1,0.57 0.73,0.52 0.88,0.5 z M 18.85,47.56 c -0.04,0.06 -0.19,0 -0.25,-0.03 -0.01,-0.01 -0.02,0 -0.01,0.01 0.04,0.08 0.18,0.32 0.39,0.32 0.1,0 0.23,-0.06 0.27,-0.12 0,0 0.83,0.27 1.23,0.38 -0.16,0.21 -0.26,0.47 -0.28,0.74 -0.33,-0.2 -1.65,-0.91 -1.65,-0.91 l -0.41,0.56 c -0.07,0.09 -0.39,-0.15 -0.33,-0.24 l 0.31,-0.43 c -0.1,-0.11 -0.35,-0.04 -0.42,-0.02 -0.01,0 -0.02,0 -0.01,-0.02 0.04,-0.08 0.19,-0.34 0.58,-0.23 0,-0.24 -0.35,-0.16 -0.44,-0.14 -0.01,0 -0.01,0 0,-0.01 0.1,-0.1 0.38,-0.33 0.7,-0.14 l 0.14,-0.19 -0.28,-0.3 0.18,-0.24 0.2,0.27 1.52,-2.08 c 0.04,-0.05 0.34,-0.14 0.45,-0.16 0.01,0.12 0.02,0.43 -0.01,0.48 l -1.5,2.1 0.32,0.1 -0.17,0.24 -0.37,-0.17 -0.16,0.23 z m 5.33,-0.34 c 0,0.19 0.12,0.47 0.37,0.39 0.01,-0.01 0.02,0 0.02,0.01 -0.04,0.21 -0.42,0.41 -0.59,0.16 -0.15,0.33 -0.12,0.63 0.21,0.81 0.02,0.01 0.02,0.03 0,0.05 -0.2,0.14 -0.51,0.11 -0.65,-0.17 -0.27,0.21 -0.23,0.64 -0.07,0.79 0,0 -0.76,0.45 -1.44,0.13 -0.45,-0.22 -0.82,-0.5 -1.41,-0.45 0.08,-0.82 0.49,-1.04 1.25,-1.16 0.6,-0.1 0.68,-0.38 0.59,-0.59 -0.21,-0.05 -0.58,0.13 -0.58,0.13 -0.07,-0.11 0.03,-0.23 0.03,-0.23 -0.04,-0.05 -0.06,-0.2 -0.06,-0.2 0.42,0 0.5,-0.09 0.5,-0.09 0.08,-0.44 -0.37,-0.49 -0.71,-0.25 -0.16,-0.14 -0.13,-0.33 -0.13,-0.33 -0.05,-0.02 -0.08,-0.1 -0.08,-0.13 0,-0.1 0.5,-0.39 0.63,-0.42 0.03,-0.15 0.21,-0.35 0.75,-0.3 0.06,-0.14 -0.04,-0.66 -0.1,-0.79 -0.02,-0.04 0.01,-0.07 0.06,-0.04 0.19,0.12 0.37,0.55 0.5,0.56 0,0 0.6,-0.31 0.63,-0.3 0.03,0.02 0.11,0.68 0.11,0.68 0.08,0.1 0.54,0 0.74,0.09 0.05,0.02 0.05,0.06 0,0.07 -0.15,0.03 -0.63,0.23 -0.71,0.37 0.27,0.43 0.14,1.04 0.14,1.21 z"
                   id="path23"
                   style="fill:#ffffff"
                   inkscape:connector-curvature="0" /></g></g></g></g></g></g><g
       id="g25"
       style="fill:#000000" /><g
       style="font-size:16px;font-style:normal;font-variant:normal;font-weight:normal;font-stretch:normal;line-height:125%;letter-spacing:0px;word-spacing:0px;fill:#000000;fill-opacity:1;stroke:none;font-family:RijksoverheidSerifWeb;-inkscape-font-specification:RijksoverheidSerifWeb"
       id="text3355"><path
         d="m 53.644342,46.065105 0,-0.252 c 0.261332,-0.07467 0.457332,-0.177332 0.588,-0.308 0.139999,-0.139999 0.219332,-0.312665 0.238,-0.518 l 0.616,-7.154 -0.812,-0.238 0,-0.406 c 0.317332,-0.03732 0.648665,-0.06066 0.994,-0.07 0.354664,-0.01866 0.657997,-0.02799 0.91,-0.028 l 0.504,0 2.198,6.79 0.014,0 2.128,-6.79 0.602,0 c 0.251991,9e-6 0.527324,0.0093 0.826,0.028 0.298657,0.0093 0.58799,0.03268 0.868,0.07 l 0,0.406 -0.868,0.21 0.616,7.7 0.812,0.154 0,0.308 c -0.168011,0.07467 -0.368677,0.130667 -0.602,0.168 -0.233343,0.04667 -0.485343,0.07 -0.756,0.07 -0.317342,0 -0.592676,-0.0093 -0.826,-0.028 -0.233342,-0.01867 -0.471342,-0.056 -0.714,-0.112 l 0,-0.266 c 0.289325,-0.06533 0.499325,-0.186666 0.63,-0.364 0.139991,-0.177332 0.205325,-0.410665 0.196,-0.7 l -0.35,-6.356 -0.028,0 -2.492,7.77 -0.546,0.07 -2.52,-7.826 -0.014,0.014 -0.434,7.014 0.91,0.238 0,0.308 c -0.29867,0.09333 -0.560003,0.154 -0.784,0.182 -0.214669,0.03733 -0.490002,0.056 -0.826,0.056 -0.158668,0 -0.336001,-0.014 -0.532,-0.042 -0.186668,-0.028 -0.368667,-0.06067 -0.546,-0.098"
         style="font-size:14px"
         id="path2997" /><path
         d="m 66.249154,38.113105 c -0.205335,8e-6 -0.382668,-0.07466 -0.532,-0.224 -0.140001,-0.149325 -0.210001,-0.340658 -0.21,-0.574 -10e-7,-0.214657 0.07,-0.40599 0.21,-0.574 0.149332,-0.16799 0.345332,-0.25199 0.588,-0.252 0.195998,10e-6 0.363998,0.07001 0.504,0.21 0.149331,0.130676 0.223997,0.312676 0.224,0.546 -3e-6,0.242676 -0.07467,0.448009 -0.224,0.616 -0.149336,0.168008 -0.336002,0.252008 -0.56,0.252 m -1.33,7.952 0,-0.238 c 0.186666,-0.06533 0.354666,-0.163332 0.504,-0.294 0.158666,-0.139999 0.237999,-0.293999 0.238,-0.462 l 0,-4.732 -0.896,-0.378 0,-0.294 c 0.317333,-0.09333 0.625332,-0.15866 0.924,-0.196 0.298665,-0.04666 0.545998,-0.06999 0.742,-0.07 l 0.448,0 -0.07,0.756 0,5.32 0.784,0.21 0,0.266 c -0.233336,0.084 -0.476003,0.144667 -0.728,0.182 -0.242669,0.03733 -0.541335,0.056 -0.896,0.056 -0.158668,0 -0.336001,-0.0093 -0.532,-0.028 -0.186667,-0.01867 -0.359334,-0.05133 -0.518,-0.098"
         style="font-size:14px"
         id="path2999" /><path
         d="m 68.719935,46.065105 0,-0.238 c 0.177333,-0.06533 0.345333,-0.163332 0.504,-0.294 0.158666,-0.139999 0.237999,-0.293999 0.238,-0.462 l 0,-4.732 -0.91,-0.378 0,-0.308 c 0.317333,-0.09333 0.625333,-0.15866 0.924,-0.196 0.298665,-0.03733 0.550665,-0.05599 0.756,-0.056 l 0.336,0 0,0.756 c 0.233331,-0.233327 0.536664,-0.419993 0.91,-0.56 0.37333,-0.149326 0.760663,-0.223993 1.162,-0.224 0.578662,7e-6 1.049995,0.186674 1.414,0.56 0.363994,0.364006 0.545994,0.905339 0.546,1.624 l 0,3.92 0.728,0.21 0,0.266 c -0.186673,0.07467 -0.406006,0.130667 -0.658,0.168 -0.242673,0.04667 -0.513339,0.07 -0.812,0.07 -0.149339,0 -0.303338,-0.0093 -0.462,-0.028 -0.158671,-0.01867 -0.308005,-0.05133 -0.448,-0.098 l 0,-0.238 c 0.177329,-0.07467 0.303329,-0.181999 0.378,-0.322 0.084,-0.149332 0.125995,-0.349999 0.126,-0.602 l 0,-2.674 c -5e-6,-0.681328 -0.130672,-1.166661 -0.392,-1.456 -0.261338,-0.289327 -0.597337,-0.433994 -1.008,-0.434 -0.289337,6e-6 -0.56467,0.04201 -0.826,0.126 -0.261336,0.08401 -0.466669,0.186673 -0.616,0.308 l 0,4.704 0.784,0.21 0,0.266 c -0.233336,0.084 -0.476002,0.144667 -0.728,0.182 -0.252002,0.03733 -0.550668,0.056 -0.896,0.056 -0.168001,0 -0.345334,-0.0093 -0.532,-0.028 -0.186667,-0.01867 -0.359334,-0.05133 -0.518,-0.098"
         style="font-size:14px"
         id="path3001" /><path
         d="m 77.760873,38.113105 c -0.205335,8e-6 -0.382668,-0.07466 -0.532,-0.224 -0.140001,-0.149325 -0.210001,-0.340658 -0.21,-0.574 -10e-7,-0.214657 0.07,-0.40599 0.21,-0.574 0.149332,-0.16799 0.345331,-0.25199 0.588,-0.252 0.195998,10e-6 0.363998,0.07001 0.504,0.21 0.149331,0.130676 0.223997,0.312676 0.224,0.546 -3e-6,0.242676 -0.07467,0.448009 -0.224,0.616 -0.149336,0.168008 -0.336002,0.252008 -0.56,0.252 m -1.33,7.952 0,-0.238 c 0.186666,-0.06533 0.354666,-0.163332 0.504,-0.294 0.158665,-0.139999 0.237999,-0.293999 0.238,-0.462 l 0,-4.732 -0.896,-0.378 0,-0.294 c 0.317332,-0.09333 0.625332,-0.15866 0.924,-0.196 0.298665,-0.04666 0.545998,-0.06999 0.742,-0.07 l 0.448,0 -0.07,0.756 0,5.32 0.784,0.21 0,0.266 c -0.233337,0.084 -0.476003,0.144667 -0.728,0.182 -0.242669,0.03733 -0.541335,0.056 -0.896,0.056 -0.158668,0 -0.336001,-0.0093 -0.532,-0.028 -0.186668,-0.01867 -0.359334,-0.05133 -0.518,-0.098"
         style="font-size:14px"
         id="path3003" /><path
         d="m 80.021654,45.127105 c 0,-0.09333 0.0093,-0.191332 0.028,-0.294 0.028,-0.111998 0.06067,-0.205331 0.098,-0.28 0.317333,0.289335 0.629999,0.508668 0.938,0.658 0.317332,0.149334 0.662665,0.224001 1.036,0.224 0.391997,10e-7 0.685997,-0.084 0.882,-0.252 0.20533,-0.167999 0.307996,-0.373332 0.308,-0.616 -4e-6,-0.242664 -0.08867,-0.452664 -0.266,-0.63 -0.168003,-0.177331 -0.480669,-0.363997 -0.938,-0.56 l -0.7,-0.294 c -0.401335,-0.17733 -0.714001,-0.410663 -0.938,-0.7 -0.214667,-0.289329 -0.322,-0.634662 -0.322,-1.036 0,-0.550661 0.223999,-1.031327 0.672,-1.442 0.447998,-0.41066 1.035998,-0.615993 1.764,-0.616 0.559997,7e-6 0.96133,0.07934 1.204,0.238 0.242662,0.158673 0.363996,0.368673 0.364,0.63 -4e-6,0.102673 -0.0093,0.205339 -0.028,0.308 -0.0093,0.09334 -0.02334,0.186673 -0.042,0.28 -0.224004,-0.149327 -0.480671,-0.275327 -0.77,-0.378 -0.289337,-0.10266 -0.56467,-0.153994 -0.826,-0.154 -0.448002,6e-6 -0.779335,0.08867 -0.994,0.266 -0.214668,0.168006 -0.322001,0.368672 -0.322,0.602 -10e-7,0.252005 0.07467,0.462005 0.224,0.63 0.158665,0.158671 0.447998,0.317338 0.868,0.476 l 0.756,0.294 c 0.503996,0.196004 0.858663,0.434004 1.064,0.714 0.214662,0.27067 0.321995,0.611336 0.322,1.022 -5e-6,0.532002 -0.238004,1.008001 -0.714,1.428 -0.476003,0.42 -1.106003,0.63 -1.89,0.63 -0.616001,0 -1.068668,-0.098 -1.358,-0.294 -0.28,-0.195999 -0.42,-0.480666 -0.42,-0.854"
         style="font-size:14px"
         id="path3005" /><path
         d="m 85.959623,44.301105 c -10e-7,-0.335997 0.0047,-0.68133 0.014,-1.036 0.0093,-0.363996 0.01866,-0.704663 0.028,-1.022 l 0.042,-1.862 -0.77,0 0,-0.462 1.512,-1.498 0.462,-0.056 -0.056,1.26 1.848,0 -0.098,0.756 -1.792,0 -0.028,1.764 c -0.0093,0.289337 -0.014,0.569337 -0.014,0.84 -2e-6,0.27067 -2e-6,0.53667 0,0.798 -2e-6,0.560002 0.07466,0.956668 0.224,1.19 0.158664,0.224001 0.368664,0.336001 0.63,0.336 0.20533,10e-7 0.391996,-0.03267 0.56,-0.098 0.177329,-0.06533 0.335996,-0.153999 0.476,-0.266 l 0.14,0.056 c -0.028,0.410668 -0.168004,0.723334 -0.42,0.938 -0.252004,0.205334 -0.616003,0.308 -1.092,0.308 -0.560002,0 -0.980002,-0.154 -1.26,-0.462 -0.270668,-0.317332 -0.406001,-0.811998 -0.406,-1.484"
         style="font-size:14px"
         id="path3007" /><path
         d="m 89.621279,43.069105 c 0,-1.213329 0.303333,-2.141994 0.91,-2.786 0.615998,-0.653326 1.287997,-0.979993 2.016,-0.98 0.755996,7e-6 1.348662,0.238007 1.778,0.714 0.429328,0.466673 0.643994,1.101339 0.644,1.904 -6e-6,0.130671 -6e-6,0.270671 0,0.42 -6e-6,0.140004 -0.0047,0.298671 -0.014,0.476 l -4.13,0 c -2e-6,0.784003 0.200665,1.395336 0.602,1.834 0.401331,0.429335 0.89133,0.644001 1.47,0.644 0.345329,10e-7 0.695329,-0.056 1.05,-0.168 0.354662,-0.111999 0.662661,-0.256665 0.924,-0.434 0.0093,0.03733 0.01866,0.09333 0.028,0.168 0.01866,0.06533 0.02799,0.130668 0.028,0.196 -6e-6,0.317334 -0.219339,0.602001 -0.658,0.854 -0.429338,0.242667 -1.012671,0.364 -1.75,0.364 -0.793336,0 -1.474668,-0.289333 -2.044,-0.868 -0.569334,-0.587998 -0.854,-1.367331 -0.854,-2.338 m 1.232,-0.98 2.996,0 c -5e-6,-0.681328 -0.135338,-1.189994 -0.406,-1.526 -0.261337,-0.335994 -0.597337,-0.503994 -1.008,-0.504 -0.382669,6e-6 -0.742002,0.200673 -1.078,0.602 -0.336002,0.401339 -0.504002,0.877338 -0.504,1.428"
         style="font-size:14px"
         id="path3009" /><path
         d="m 96.091029,46.065105 0,-0.238 c 0.177333,-0.06533 0.345333,-0.163332 0.504,-0.294 0.158666,-0.139999 0.237999,-0.293999 0.238,-0.462 l 0,-4.732 -0.91,-0.378 0,-0.308 c 0.317333,-0.09333 0.625332,-0.15866 0.924,-0.196 0.298665,-0.03733 0.550665,-0.05599 0.756,-0.056 l 0.336,0 0,0.98 0.014,0 0.392,-0.434 c 0.186664,-0.205327 0.377997,-0.359326 0.574,-0.462 0.20533,-0.10266 0.424663,-0.153993 0.658,-0.154 0.242662,7e-6 0.424661,0.05134 0.546001,0.154 0.12133,0.102674 0.18199,0.252007 0.182,0.448 -1e-5,0.130673 -0.0233,0.270673 -0.07,0.42 -0.0373,0.149339 -0.0887,0.289339 -0.154,0.42 -0.130672,-0.102661 -0.270672,-0.181994 -0.420001,-0.238 -0.149337,-0.05599 -0.29867,-0.08399 -0.448,-0.084 -0.21467,6e-6 -0.42467,0.05134 -0.63,0.154 -0.205336,0.09334 -0.406003,0.233339 -0.602,0.42 l 0,4.452 0.966,0.21 0,0.266 c -0.233336,0.084 -0.48067,0.144667 -0.742,0.182 -0.261336,0.03733 -0.592669,0.056 -0.994,0.056 -0.205335,0 -0.406001,-0.0093 -0.602,-0.028 -0.186667,-0.01867 -0.359334,-0.05133 -0.518,-0.098"
         style="font-size:14px"
         id="path3011" /><path
         d="m 102.12415,38.113105 c -0.20533,8e-6 -0.38266,-0.07466 -0.532,-0.224 -0.14,-0.149325 -0.21,-0.340658 -0.21,-0.574 0,-0.214657 0.07,-0.40599 0.21,-0.574 0.14934,-0.16799 0.34534,-0.25199 0.588,-0.252 0.196,10e-6 0.364,0.07001 0.504,0.21 0.14933,0.130676 0.224,0.312676 0.224,0.546 0,0.242676 -0.0747,0.448009 -0.224,0.616 -0.14933,0.168008 -0.336,0.252008 -0.56,0.252 m -1.33,7.952 0,-0.238 c 0.18667,-0.06533 0.35467,-0.163332 0.504,-0.294 0.15867,-0.139999 0.238,-0.293999 0.238,-0.462 l 0,-4.732 -0.896,-0.378 0,-0.294 c 0.31734,-0.09333 0.62534,-0.15866 0.924,-0.196 0.29867,-0.04666 0.546,-0.06999 0.742,-0.07 l 0.448,0 -0.07,0.756 0,5.32 0.784,0.21 0,0.266 c -0.23333,0.084 -0.476,0.144667 -0.728,0.182 -0.24266,0.03733 -0.54133,0.056 -0.896,0.056 -0.15866,0 -0.336,-0.0093 -0.532,-0.028 -0.18666,-0.01867 -0.35933,-0.05133 -0.518,-0.098"
         style="font-size:14px"
         id="path3013" /><path
         d="m 104.46894,43.069105 c -1e-5,-1.213329 0.30333,-2.141994 0.91,-2.786 0.61599,-0.653326 1.28799,-0.979993 2.016,-0.98 0.75599,7e-6 1.34866,0.238007 1.778,0.714 0.42932,0.466673 0.64399,1.101339 0.644,1.904 -1e-5,0.130671 -1e-5,0.270671 0,0.42 -1e-5,0.140004 -0.005,0.298671 -0.014,0.476 l -4.13,0 c -1e-5,0.784003 0.20066,1.395336 0.602,1.834 0.40133,0.429335 0.89133,0.644001 1.47,0.644 0.34532,10e-7 0.69532,-0.056 1.05,-0.168 0.35466,-0.111999 0.66266,-0.256665 0.924,-0.434 0.009,0.03733 0.0187,0.09333 0.028,0.168 0.0187,0.06533 0.028,0.130668 0.028,0.196 -1e-5,0.317334 -0.21934,0.602001 -0.658,0.854 -0.42934,0.242667 -1.01268,0.364 -1.75,0.364 -0.79334,0 -1.47467,-0.289333 -2.044,-0.868 -0.56934,-0.587998 -0.85401,-1.367331 -0.854,-2.338 m 1.232,-0.98 2.996,0 c -1e-5,-0.681328 -0.13534,-1.189994 -0.406,-1.526 -0.26134,-0.335994 -0.59734,-0.503994 -1.008,-0.504 -0.38267,6e-6 -0.74201,0.200673 -1.078,0.602 -0.33601,0.401339 -0.50401,0.877338 -0.504,1.428"
         style="font-size:14px"
         id="path3015" /><path
         d="m 115.68906,46.261105 -2.38,-6.118 -0.574,-0.406 0,-0.336 2.674,0 0,0.336 -0.798,0.336 1.512,4.438 0.014,0 1.554,-4.396 -0.798,-0.378 0,-0.336 2.156,0 0,0.336 -0.392,0.322 -2.492,6.174 -0.476,0.028"
         style="font-size:14px"
         id="path3017" /><path
         d="m 119.27394,44.721105 c -1e-5,-0.615998 0.32199,-1.147997 0.966,-1.596 0.64399,-0.457329 1.53533,-0.685996 2.674,-0.686 l 0,-0.378 c -1e-5,-0.755995 -0.098,-1.250661 -0.294,-1.484 -0.19601,-0.233327 -0.51334,-0.349994 -0.952,-0.35 -0.38267,6e-6 -0.75601,0.07934 -1.12,0.238 -0.36401,0.158673 -0.69067,0.382672 -0.98,0.672 -0.009,-0.06533 -0.0187,-0.130661 -0.028,-0.196 -0.009,-0.07466 -0.014,-0.149328 -0.014,-0.224 -1e-5,-0.447994 0.17733,-0.793327 0.532,-1.036 0.36399,-0.251993 0.95199,-0.377993 1.764,-0.378 0.69999,7e-6 1.25066,0.168007 1.652,0.504 0.40132,0.336006 0.60199,0.793339 0.602,1.372 -1e-5,0.149339 -0.009,0.373338 -0.028,0.672 -0.009,0.289338 -0.0187,0.536671 -0.028,0.742 l -0.042,2.268 c 0.0467,0.121335 0.12132,0.247335 0.224,0.378 0.10266,0.130668 0.21466,0.242668 0.336,0.336 -0.10268,0.121334 -0.24268,0.247334 -0.42,0.378 -0.17734,0.130667 -0.35468,0.242667 -0.532,0.336 -0.13068,-0.084 -0.25201,-0.182 -0.364,-0.294 -0.10268,-0.111999 -0.19601,-0.242666 -0.28,-0.392 -0.19601,0.186667 -0.46667,0.345334 -0.812,0.476 -0.34534,0.130667 -0.70467,0.196 -1.078,0.196 -0.52267,0 -0.95201,-0.144666 -1.288,-0.434 -0.32667,-0.298666 -0.49001,-0.671999 -0.49,-1.12 m 1.204,-0.21 c -1e-5,0.280002 0.0933,0.504001 0.28,0.672 0.18666,0.168001 0.45733,0.252001 0.812,0.252 0.21466,10e-7 0.44799,-0.03733 0.7,-0.112 0.25199,-0.07466 0.46666,-0.163332 0.644,-0.266 l 0,-1.96 c -0.78401,3e-6 -1.38601,0.14467 -1.806,0.434 -0.42001,0.280003 -0.63001,0.606669 -0.63,0.98"
         style="font-size:14px"
         id="path3019" /><path
         d="m 125.73165,46.065105 0,-0.238 c 0.17734,-0.06533 0.34534,-0.163332 0.504,-0.294 0.15867,-0.139999 0.238,-0.293999 0.238,-0.462 l 0,-4.732 -0.91,-0.378 0,-0.308 c 0.31734,-0.09333 0.62534,-0.15866 0.924,-0.196 0.29867,-0.03733 0.55067,-0.05599 0.756,-0.056 l 0.336,0 0,0.756 c 0.23333,-0.233327 0.53667,-0.419993 0.91,-0.56 0.37333,-0.149326 0.76067,-0.223993 1.162,-0.224 0.57867,7e-6 1.05,0.186674 1.414,0.56 0.364,0.364006 0.546,0.905339 0.546,1.624 l 0,3.92 0.728,0.21 0,0.266 c -0.18667,0.07467 -0.406,0.130667 -0.658,0.168 -0.24267,0.04667 -0.51334,0.07 -0.812,0.07 -0.14933,0 -0.30333,-0.0093 -0.462,-0.028 -0.15867,-0.01867 -0.308,-0.05133 -0.448,-0.098 l 0,-0.238 c 0.17733,-0.07467 0.30333,-0.181999 0.378,-0.322 0.084,-0.149332 0.126,-0.349999 0.126,-0.602 l 0,-2.674 c 0,-0.681328 -0.13067,-1.166661 -0.392,-1.456 -0.26133,-0.289327 -0.59733,-0.433994 -1.008,-0.434 -0.28933,6e-6 -0.56467,0.04201 -0.826,0.126 -0.26133,0.08401 -0.46667,0.186673 -0.616,0.308 l 0,4.704 0.784,0.21 0,0.266 c -0.23333,0.084 -0.476,0.144667 -0.728,0.182 -0.252,0.03733 -0.55066,0.056 -0.896,0.056 -0.168,0 -0.34533,-0.0093 -0.532,-0.028 -0.18666,-0.01867 -0.35933,-0.05133 -0.518,-0.098"
         style="font-size:14px"
         id="path3021" /><path
         d="m 136.19097,46.065105 0,-0.266 c 0.23333,-0.056 0.42466,-0.163332 0.574,-0.322 0.15866,-0.158665 0.238,-0.396665 0.238,-0.714 l 0,-6.888 -0.882,-0.294 0,-0.308 c 0.43866,-0.08399 0.84933,-0.135324 1.232,-0.154 0.38266,-0.02799 0.90533,-0.04199 1.568,-0.042 1.00799,9e-6 1.75932,0.182009 2.254,0.546 0.50399,0.354675 0.75599,0.863341 0.756,1.526 -1e-5,0.532007 -0.20534,1.01734 -0.616,1.456 -0.41068,0.429339 -0.88667,0.695339 -1.428,0.798 l 0,0.014 c 0.72799,5e-6 1.31599,0.191338 1.764,0.574 0.44799,0.382671 0.67199,0.896004 0.672,1.54 -1e-5,0.756002 -0.33134,1.400002 -0.994,1.932 -0.65334,0.522667 -1.52134,0.784 -2.604,0.784 -0.49467,0 -0.94734,-0.014 -1.358,-0.042 -0.41067,-0.01867 -0.80267,-0.06533 -1.176,-0.14 m 2.002,-4.858 c 0.75599,5e-6 1.35333,-0.167995 1.792,-0.504 0.44799,-0.345327 0.67199,-0.821327 0.672,-1.428 -1e-5,-0.447992 -0.15401,-0.797992 -0.462,-1.05 -0.30801,-0.261325 -0.76534,-0.391991 -1.372,-0.392 -0.0933,9e-6 -0.19134,0.0047 -0.294,0.014 -0.10267,0.0093 -0.21467,0.01868 -0.336,0.028 l 0,3.332 m 0,4.214 c 0.13999,0.01867 0.26599,0.03267 0.378,0.042 0.11199,0.0093 0.23333,0.014 0.364,0.014 0.55999,10e-7 1.04066,-0.167999 1.442,-0.504 0.41066,-0.345331 0.61599,-0.783998 0.616,-1.316 -1e-5,-0.587997 -0.20068,-1.031329 -0.602,-1.33 -0.40134,-0.298662 -0.98467,-0.447995 -1.75,-0.448 l -0.448,0 0,3.542"
         style="font-size:14px"
         id="path3023" /><path
         d="m 144.97181,38.113105 c -0.20533,8e-6 -0.38267,-0.07466 -0.532,-0.224 -0.14,-0.149325 -0.21,-0.340658 -0.21,-0.574 0,-0.214657 0.07,-0.40599 0.21,-0.574 0.14933,-0.16799 0.34533,-0.25199 0.588,-0.252 0.196,10e-6 0.364,0.07001 0.504,0.21 0.14933,0.130676 0.224,0.312676 0.224,0.546 0,0.242676 -0.0747,0.448009 -0.224,0.616 -0.14934,0.168008 -0.336,0.252008 -0.56,0.252 m -1.33,7.952 0,-0.238 c 0.18667,-0.06533 0.35467,-0.163332 0.504,-0.294 0.15867,-0.139999 0.238,-0.293999 0.238,-0.462 l 0,-4.732 -0.896,-0.378 0,-0.294 c 0.31733,-0.09333 0.62533,-0.15866 0.924,-0.196 0.29867,-0.04666 0.546,-0.06999 0.742,-0.07 l 0.448,0 -0.07,0.756 0,5.32 0.784,0.21 0,0.266 c -0.23334,0.084 -0.476,0.144667 -0.728,0.182 -0.24267,0.03733 -0.54133,0.056 -0.896,0.056 -0.15867,0 -0.336,-0.0093 -0.532,-0.028 -0.18667,-0.01867 -0.35933,-0.05133 -0.518,-0.098"
         style="font-size:14px"
         id="path3025" /><path
         d="m 147.44259,46.065105 0,-0.238 c 0.17733,-0.06533 0.34533,-0.163332 0.504,-0.294 0.15867,-0.139999 0.238,-0.293999 0.238,-0.462 l 0,-4.732 -0.91,-0.378 0,-0.308 c 0.31733,-0.09333 0.62533,-0.15866 0.924,-0.196 0.29867,-0.03733 0.55067,-0.05599 0.756,-0.056 l 0.336,0 0,0.756 c 0.23333,-0.233327 0.53667,-0.419993 0.91,-0.56 0.37333,-0.149326 0.76066,-0.223993 1.162,-0.224 0.57866,7e-6 1.05,0.186674 1.414,0.56 0.364,0.364006 0.546,0.905339 0.546,1.624 l 0,3.92 0.728,0.21 0,0.266 c -0.18667,0.07467 -0.40601,0.130667 -0.658,0.168 -0.24267,0.04667 -0.51334,0.07 -0.812,0.07 -0.14934,0 -0.30334,-0.0093 -0.462,-0.028 -0.15867,-0.01867 -0.308,-0.05133 -0.448,-0.098 l 0,-0.238 c 0.17733,-0.07467 0.30333,-0.181999 0.378,-0.322 0.084,-0.149332 0.126,-0.349999 0.126,-0.602 l 0,-2.674 c 0,-0.681328 -0.13067,-1.166661 -0.392,-1.456 -0.26134,-0.289327 -0.59734,-0.433994 -1.008,-0.434 -0.28934,6e-6 -0.56467,0.04201 -0.826,0.126 -0.26133,0.08401 -0.46667,0.186673 -0.616,0.308 l 0,4.704 0.784,0.21 0,0.266 c -0.23333,0.084 -0.476,0.144667 -0.728,0.182 -0.252,0.03733 -0.55067,0.056 -0.896,0.056 -0.168,0 -0.34533,-0.0093 -0.532,-0.028 -0.18667,-0.01867 -0.35933,-0.05133 -0.518,-0.098"
         style="font-size:14px"
         id="path3027" /><path
         d="m 155.15353,46.065105 0,-0.238 c 0.17733,-0.06533 0.34533,-0.163332 0.504,-0.294 0.15866,-0.139999 0.238,-0.293999 0.238,-0.462 l 0,-4.732 -0.91,-0.378 0,-0.308 c 0.31733,-0.09333 0.62533,-0.15866 0.924,-0.196 0.29866,-0.03733 0.55066,-0.05599 0.756,-0.056 l 0.336,0 0,0.756 c 0.23333,-0.233327 0.53666,-0.419993 0.91,-0.56 0.37333,-0.149326 0.76066,-0.223993 1.162,-0.224 0.57866,7e-6 1.04999,0.186674 1.414,0.56 0.36399,0.364006 0.54599,0.905339 0.546,1.624 l 0,3.92 0.728,0.21 0,0.266 c -0.18667,0.07467 -0.40601,0.130667 -0.658,0.168 -0.24267,0.04667 -0.51334,0.07 -0.812,0.07 -0.14934,0 -0.30334,-0.0093 -0.462,-0.028 -0.15867,-0.01867 -0.30801,-0.05133 -0.448,-0.098 l 0,-0.238 c 0.17733,-0.07467 0.30333,-0.181999 0.378,-0.322 0.084,-0.149332 0.12599,-0.349999 0.126,-0.602 l 0,-2.674 c -10e-6,-0.681328 -0.13067,-1.166661 -0.392,-1.456 -0.26134,-0.289327 -0.59734,-0.433994 -1.008,-0.434 -0.28934,6e-6 -0.56467,0.04201 -0.826,0.126 -0.26134,0.08401 -0.46667,0.186673 -0.616,0.308 l 0,4.704 0.784,0.21 0,0.266 c -0.23334,0.084 -0.476,0.144667 -0.728,0.182 -0.252,0.03733 -0.55067,0.056 -0.896,0.056 -0.168,0 -0.34534,-0.0093 -0.532,-0.028 -0.18667,-0.01867 -0.35933,-0.05133 -0.518,-0.098"
         style="font-size:14px"
         id="path3029" /><path
         d="m 162.73847,43.069105 c 0,-1.213329 0.30333,-2.141994 0.91,-2.786 0.61599,-0.653326 1.28799,-0.979993 2.016,-0.98 0.75599,7e-6 1.34866,0.238007 1.778,0.714 0.42932,0.466673 0.64399,1.101339 0.644,1.904 -1e-5,0.130671 -1e-5,0.270671 0,0.42 -1e-5,0.140004 -0.005,0.298671 -0.014,0.476 l -4.13,0 c -10e-6,0.784003 0.20066,1.395336 0.602,1.834 0.40133,0.429335 0.89133,0.644001 1.47,0.644 0.34533,10e-7 0.69533,-0.056 1.05,-0.168 0.35466,-0.111999 0.66266,-0.256665 0.924,-0.434 0.009,0.03733 0.0187,0.09333 0.028,0.168 0.0187,0.06533 0.028,0.130668 0.028,0.196 -1e-5,0.317334 -0.21934,0.602001 -0.658,0.854 -0.42934,0.242667 -1.01267,0.364 -1.75,0.364 -0.79334,0 -1.47467,-0.289333 -2.044,-0.868 -0.56934,-0.587998 -0.854,-1.367331 -0.854,-2.338 m 1.232,-0.98 2.996,0 c -10e-6,-0.681328 -0.13534,-1.189994 -0.406,-1.526 -0.26134,-0.335994 -0.59734,-0.503994 -1.008,-0.504 -0.38267,6e-6 -0.74201,0.200673 -1.078,0.602 -0.33601,0.401339 -0.50401,0.877338 -0.504,1.428"
         style="font-size:14px"
         id="path3031" /><path
         d="m 169.20822,46.065105 0,-0.238 c 0.17733,-0.06533 0.34533,-0.163332 0.504,-0.294 0.15866,-0.139999 0.238,-0.293999 0.238,-0.462 l 0,-4.732 -0.91,-0.378 0,-0.308 c 0.31733,-0.09333 0.62533,-0.15866 0.924,-0.196 0.29866,-0.03733 0.55066,-0.05599 0.756,-0.056 l 0.336,0 0,0.756 c 0.23333,-0.233327 0.53666,-0.419993 0.91,-0.56 0.37333,-0.149326 0.76066,-0.223993 1.162,-0.224 0.57866,7e-6 1.04999,0.186674 1.414,0.56 0.36399,0.364006 0.54599,0.905339 0.546,1.624 l 0,3.92 0.728,0.21 0,0.266 c -0.18668,0.07467 -0.40601,0.130667 -0.658,0.168 -0.24268,0.04667 -0.51334,0.07 -0.812,0.07 -0.14934,0 -0.30334,-0.0093 -0.462,-0.028 -0.15868,-0.01867 -0.30801,-0.05133 -0.448,-0.098 l 0,-0.238 c 0.17732,-0.07467 0.30332,-0.181999 0.378,-0.322 0.084,-0.149332 0.12599,-0.349999 0.126,-0.602 l 0,-2.674 c -1e-5,-0.681328 -0.13068,-1.166661 -0.392,-1.456 -0.26134,-0.289327 -0.59734,-0.433994 -1.008,-0.434 -0.28934,6e-6 -0.56467,0.04201 -0.826,0.126 -0.26134,0.08401 -0.46667,0.186673 -0.616,0.308 l 0,4.704 0.784,0.21 0,0.266 c -0.23334,0.084 -0.47601,0.144667 -0.728,0.182 -0.25201,0.03733 -0.55067,0.056 -0.896,0.056 -0.168,0 -0.34534,-0.0093 -0.532,-0.028 -0.18667,-0.01867 -0.35934,-0.05133 -0.518,-0.098"
         style="font-size:14px"
         id="path3033" /><path
         d="m 176.91915,46.065105 0,-0.238 c 0.17734,-0.06533 0.34534,-0.163332 0.504,-0.294 0.15867,-0.139999 0.238,-0.293999 0.238,-0.462 l 0,-8.12 -0.91,-0.378 0,-0.308 c 0.31734,-0.09332 0.62534,-0.158656 0.924,-0.196 0.308,-0.03732 0.56,-0.05599 0.756,-0.056 l 0.448,0 -0.07,0.784 0,8.68 0.784,0.21 0,0.266 c -0.23333,0.084 -0.476,0.144667 -0.728,0.182 -0.252,0.03733 -0.55066,0.056 -0.896,0.056 -0.168,0 -0.34533,-0.0093 -0.532,-0.028 -0.18666,-0.01867 -0.35933,-0.05133 -0.518,-0.098"
         style="font-size:14px"
         id="path3035" /><path
         d="m 180.46925,44.721105 c 0,-0.615998 0.322,-1.147997 0.966,-1.596 0.644,-0.457329 1.53533,-0.685996 2.674,-0.686 l 0,-0.378 c -1e-5,-0.755995 -0.098,-1.250661 -0.294,-1.484 -0.19601,-0.233327 -0.51334,-0.349994 -0.952,-0.35 -0.38267,6e-6 -0.756,0.07934 -1.12,0.238 -0.364,0.158673 -0.69067,0.382672 -0.98,0.672 -0.009,-0.06533 -0.0187,-0.130661 -0.028,-0.196 -0.009,-0.07466 -0.014,-0.149328 -0.014,-0.224 0,-0.447994 0.17733,-0.793327 0.532,-1.036 0.364,-0.251993 0.952,-0.377993 1.764,-0.378 0.69999,7e-6 1.25066,0.168007 1.652,0.504 0.40133,0.336006 0.60199,0.793339 0.602,1.372 -1e-5,0.149339 -0.009,0.373338 -0.028,0.672 -0.009,0.289338 -0.0187,0.536671 -0.028,0.742 l -0.042,2.268 c 0.0467,0.121335 0.12133,0.247335 0.224,0.378 0.10266,0.130668 0.21466,0.242668 0.336,0.336 -0.10267,0.121334 -0.24267,0.247334 -0.42,0.378 -0.17734,0.130667 -0.35467,0.242667 -0.532,0.336 -0.13067,-0.084 -0.25201,-0.182 -0.364,-0.294 -0.10267,-0.111999 -0.19601,-0.242666 -0.28,-0.392 -0.19601,0.186667 -0.46667,0.345334 -0.812,0.476 -0.34534,0.130667 -0.70467,0.196 -1.078,0.196 -0.52267,0 -0.952,-0.144666 -1.288,-0.434 -0.32667,-0.298666 -0.49,-0.671999 -0.49,-1.12 m 1.204,-0.21 c 0,0.280002 0.0933,0.504001 0.28,0.672 0.18666,0.168001 0.45733,0.252001 0.812,0.252 0.21466,10e-7 0.44799,-0.03733 0.7,-0.112 0.25199,-0.07466 0.46666,-0.163332 0.644,-0.266 l 0,-1.96 c -0.78401,3e-6 -1.386,0.14467 -1.806,0.434 -0.42,0.280003 -0.63,0.606669 -0.63,0.98"
         style="font-size:14px"
         id="path3037" /><path
         d="m 186.92697,46.065105 0,-0.238 c 0.17733,-0.06533 0.34533,-0.163332 0.504,-0.294 0.15866,-0.139999 0.238,-0.293999 0.238,-0.462 l 0,-4.732 -0.91,-0.378 0,-0.308 c 0.31733,-0.09333 0.62533,-0.15866 0.924,-0.196 0.29866,-0.03733 0.55066,-0.05599 0.756,-0.056 l 0.336,0 0,0.756 c 0.23333,-0.233327 0.53666,-0.419993 0.91,-0.56 0.37333,-0.149326 0.76066,-0.223993 1.162,-0.224 0.57866,7e-6 1.04999,0.186674 1.414,0.56 0.36399,0.364006 0.54599,0.905339 0.546,1.624 l 0,3.92 0.728,0.21 0,0.266 c -0.18668,0.07467 -0.40601,0.130667 -0.658,0.168 -0.24268,0.04667 -0.51334,0.07 -0.812,0.07 -0.14934,0 -0.30334,-0.0093 -0.462,-0.028 -0.15868,-0.01867 -0.30801,-0.05133 -0.448,-0.098 l 0,-0.238 c 0.17732,-0.07467 0.30332,-0.181999 0.378,-0.322 0.084,-0.149332 0.12599,-0.349999 0.126,-0.602 l 0,-2.674 c -1e-5,-0.681328 -0.13068,-1.166661 -0.392,-1.456 -0.26134,-0.289327 -0.59734,-0.433994 -1.008,-0.434 -0.28934,6e-6 -0.56467,0.04201 -0.826,0.126 -0.26134,0.08401 -0.46667,0.186673 -0.616,0.308 l 0,4.704 0.784,0.21 0,0.266 c -0.23334,0.084 -0.47601,0.144667 -0.728,0.182 -0.25201,0.03733 -0.55067,0.056 -0.896,0.056 -0.168,0 -0.34534,-0.0093 -0.532,-0.028 -0.18667,-0.01867 -0.35934,-0.05133 -0.518,-0.098"
         style="font-size:14px"
         id="path3039" /><path
         d="m 194.5119,43.209105 c 0,-1.250662 0.33134,-2.211994 0.994,-2.884 0.66267,-0.671993 1.44667,-1.007993 2.352,-1.008 0.168,7e-6 0.34067,0.0093 0.518,0.028 0.18667,0.01867 0.336,0.04201 0.448,0.07 l 0,-2.464 -0.952,-0.378 0,-0.308 c 0.31733,-0.09332 0.63467,-0.158656 0.952,-0.196 0.31733,-0.03732 0.57867,-0.05599 0.784,-0.056 l 0.448,0 -0.084,0.784 0,8.022 c 0.0467,0.140002 0.112,0.280001 0.196,0.42 0.0933,0.140001 0.20533,0.270668 0.336,0.392 -0.14,0.121334 -0.28934,0.238001 -0.448,0.35 -0.15867,0.102667 -0.336,0.205334 -0.532,0.308 -0.14,-0.112 -0.27067,-0.242666 -0.392,-0.392 -0.12133,-0.149333 -0.21467,-0.298666 -0.28,-0.448 -0.224,0.233334 -0.50867,0.424667 -0.854,0.574 -0.336,0.149334 -0.64867,0.224 -0.938,0.224 -0.7,0 -1.302,-0.275333 -1.806,-0.826 -0.49466,-0.550665 -0.742,-1.287998 -0.742,-2.212 m 2.898,2.128 c 0.26133,10e-7 0.52267,-0.042 0.784,-0.126 0.27067,-0.084 0.48533,-0.191332 0.644,-0.322 l 0,-4.634 c -0.12133,-0.03733 -0.27533,-0.06999 -0.462,-0.098 -0.18667,-0.03733 -0.37333,-0.05599 -0.56,-0.056 -0.588,6e-6 -1.08267,0.238006 -1.484,0.714 -0.40133,0.476005 -0.602,1.199338 -0.602,2.17 0,0.756003 0.168,1.339336 0.504,1.75 0.34533,0.401335 0.73733,0.602001 1.176,0.602"
         style="font-size:14px"
         id="path3041" /><path
         d="m 201.56462,45.127105 c 0,-0.09333 0.009,-0.191332 0.028,-0.294 0.028,-0.111998 0.0607,-0.205331 0.098,-0.28 0.31734,0.289335 0.63,0.508668 0.938,0.658 0.31733,0.149334 0.66267,0.224001 1.036,0.224 0.392,10e-7 0.686,-0.084 0.882,-0.252 0.20533,-0.167999 0.308,-0.373332 0.308,-0.616 0,-0.242664 -0.0887,-0.452664 -0.266,-0.63 -0.168,-0.177331 -0.48067,-0.363997 -0.938,-0.56 l -0.7,-0.294 c -0.40133,-0.17733 -0.714,-0.410663 -0.938,-0.7 -0.21466,-0.289329 -0.322,-0.634662 -0.322,-1.036 0,-0.550661 0.224,-1.031327 0.672,-1.442 0.448,-0.41066 1.036,-0.615993 1.764,-0.616 0.56,7e-6 0.96133,0.07934 1.204,0.238 0.24267,0.158673 0.364,0.368673 0.364,0.63 0,0.102673 -0.009,0.205339 -0.028,0.308 -0.009,0.09334 -0.0233,0.186673 -0.042,0.28 -0.224,-0.149327 -0.48067,-0.275327 -0.77,-0.378 -0.28933,-0.10266 -0.56467,-0.153994 -0.826,-0.154 -0.448,6e-6 -0.77933,0.08867 -0.994,0.266 -0.21467,0.168006 -0.322,0.368672 -0.322,0.602 0,0.252005 0.0747,0.462005 0.224,0.63 0.15867,0.158671 0.448,0.317338 0.868,0.476 l 0.756,0.294 c 0.504,0.196004 0.85867,0.434004 1.064,0.714 0.21466,0.27067 0.322,0.611336 0.322,1.022 0,0.532002 -0.238,1.008001 -0.714,1.428 -0.476,0.42 -1.106,0.63 -1.89,0.63 -0.616,0 -1.06866,-0.098 -1.358,-0.294 -0.28,-0.195999 -0.42,-0.480666 -0.42,-0.854"
         style="font-size:14px"
         id="path3043" /><path
         d="m 206.81659,43.069105 c 0,-1.213329 0.30333,-2.141994 0.91,-2.786 0.616,-0.653326 1.288,-0.979993 2.016,-0.98 0.756,7e-6 1.34866,0.238007 1.778,0.714 0.42933,0.466673 0.644,1.101339 0.644,1.904 0,0.130671 0,0.270671 0,0.42 0,0.140004 -0.005,0.298671 -0.014,0.476 l -4.13,0 c 0,0.784003 0.20067,1.395336 0.602,1.834 0.40133,0.429335 0.89133,0.644001 1.47,0.644 0.34533,10e-7 0.69533,-0.056 1.05,-0.168 0.35466,-0.111999 0.66266,-0.256665 0.924,-0.434 0.009,0.03733 0.0187,0.09333 0.028,0.168 0.0187,0.06533 0.028,0.130668 0.028,0.196 0,0.317334 -0.21934,0.602001 -0.658,0.854 -0.42934,0.242667 -1.01267,0.364 -1.75,0.364 -0.79333,0 -1.47467,-0.289333 -2.044,-0.868 -0.56933,-0.587998 -0.854,-1.367331 -0.854,-2.338 m 1.232,-0.98 2.996,0 c 0,-0.681328 -0.13534,-1.189994 -0.406,-1.526 -0.26134,-0.335994 -0.59734,-0.503994 -1.008,-0.504 -0.38267,6e-6 -0.742,0.200673 -1.078,0.602 -0.336,0.401339 -0.504,0.877338 -0.504,1.428"
         style="font-size:14px"
         id="path3045" /><path
         d="m 215.75472,46.065105 -0.126,-0.35 4.424,-7.728 -2.45,0 c -0.28001,9e-6 -0.51801,0.07934 -0.714,0.238 -0.18667,0.158675 -0.33134,0.396675 -0.434,0.714 l -0.098,0.308 -0.448,0 0.168,-2.086 5.446,0 0.126,0.308 -4.396,7.77 2.478,0 c 0.44799,10e-7 0.76999,-0.07467 0.966,-0.224 0.19599,-0.149332 0.35932,-0.405998 0.49,-0.77 l 0.084,-0.266 0.448,0 -0.224,2.086 -5.74,0"
         style="font-size:14px"
         id="path3047" /><path
         d="m 222.30519,44.721105 c -1e-5,-0.615998 0.32199,-1.147997 0.966,-1.596 0.64399,-0.457329 1.53533,-0.685996 2.674,-0.686 l 0,-0.378 c -1e-5,-0.755995 -0.098,-1.250661 -0.294,-1.484 -0.19601,-0.233327 -0.51334,-0.349994 -0.952,-0.35 -0.38267,6e-6 -0.75601,0.07934 -1.12,0.238 -0.36401,0.158673 -0.69067,0.382672 -0.98,0.672 -0.009,-0.06533 -0.0187,-0.130661 -0.028,-0.196 -0.009,-0.07466 -0.014,-0.149328 -0.014,-0.224 -1e-5,-0.447994 0.17733,-0.793327 0.532,-1.036 0.36399,-0.251993 0.95199,-0.377993 1.764,-0.378 0.69999,7e-6 1.25066,0.168007 1.652,0.504 0.40132,0.336006 0.60199,0.793339 0.602,1.372 -1e-5,0.149339 -0.009,0.373338 -0.028,0.672 -0.009,0.289338 -0.0187,0.536671 -0.028,0.742 l -0.042,2.268 c 0.0467,0.121335 0.12132,0.247335 0.224,0.378 0.10266,0.130668 0.21466,0.242668 0.336,0.336 -0.10268,0.121334 -0.24268,0.247334 -0.42,0.378 -0.17734,0.130667 -0.35468,0.242667 -0.532,0.336 -0.13068,-0.084 -0.25201,-0.182 -0.364,-0.294 -0.10268,-0.111999 -0.19601,-0.242666 -0.28,-0.392 -0.19601,0.186667 -0.46667,0.345334 -0.812,0.476 -0.34534,0.130667 -0.70467,0.196 -1.078,0.196 -0.52267,0 -0.95201,-0.144666 -1.288,-0.434 -0.32667,-0.298666 -0.49001,-0.671999 -0.49,-1.12 m 1.204,-0.21 c -1e-5,0.280002 0.0933,0.504001 0.28,0.672 0.18666,0.168001 0.45733,0.252001 0.812,0.252 0.21466,10e-7 0.44799,-0.03733 0.7,-0.112 0.25199,-0.07466 0.46666,-0.163332 0.644,-0.266 l 0,-1.96 c -0.78401,3e-6 -1.38601,0.14467 -1.806,0.434 -0.42001,0.280003 -0.63001,0.606669 -0.63,0.98"
         style="font-size:14px"
         id="path3049" /><path
         d="m 228.7489,46.065105 0,-0.238 c 0.18667,-0.06533 0.35934,-0.163332 0.518,-0.294 0.15867,-0.139999 0.238,-0.293999 0.238,-0.462 l 0,-8.12 -0.924,-0.378 0,-0.308 c 0.31734,-0.09332 0.62534,-0.158656 0.924,-0.196 0.308,-0.03732 0.56,-0.05599 0.756,-0.056 l 0.476,0 -0.084,0.784 0,5.6 0.77,-0.672 c 0.37333,-0.317328 0.70467,-0.690661 0.994,-1.12 0.29867,-0.429327 0.448,-0.80266 0.448,-1.12 0.12133,-0.03733 0.238,-0.06533 0.35,-0.084 0.12133,-0.01866 0.252,-0.02799 0.392,-0.028 0.10267,7e-6 0.196,0.01401 0.28,0.042 0.0933,0.01867 0.18666,0.04667 0.28,0.084 -0.009,0.298673 -0.17267,0.672006 -0.49,1.12 -0.308,0.438672 -0.77933,0.886672 -1.414,1.344 l -0.49,0.35 2.156,2.618 c 0.196,0.233335 0.378,0.406001 0.546,0.518 0.17733,0.102668 0.34066,0.154001 0.49,0.154 l 0,0.294 c -0.14934,0.102667 -0.308,0.177334 -0.476,0.224 -0.168,0.04667 -0.35467,0.07 -0.56,0.07 -0.196,0 -0.378,-0.042 -0.546,-0.126 -0.168,-0.09333 -0.31733,-0.228666 -0.448,-0.406 l -2.282,-3.01 0,2.828 0.728,0.224 0,0.266 c -0.26133,0.084 -0.50867,0.14 -0.742,0.168 -0.23333,0.03733 -0.51333,0.056 -0.84,0.056 -0.15866,0 -0.336,-0.0093 -0.532,-0.028 -0.18666,-0.01867 -0.35933,-0.05133 -0.518,-0.098"
         style="font-size:14px"
         id="path3051" /><path
         d="m 235.22675,43.069105 c 0,-1.213329 0.30333,-2.141994 0.91,-2.786 0.616,-0.653326 1.288,-0.979993 2.016,-0.98 0.75599,7e-6 1.34866,0.238007 1.778,0.714 0.42933,0.466673 0.64399,1.101339 0.644,1.904 -1e-5,0.130671 -1e-5,0.270671 0,0.42 -1e-5,0.140004 -0.005,0.298671 -0.014,0.476 l -4.13,0 c 0,0.784003 0.20066,1.395336 0.602,1.834 0.40133,0.429335 0.89133,0.644001 1.47,0.644 0.34533,10e-7 0.69533,-0.056 1.05,-0.168 0.35466,-0.111999 0.66266,-0.256665 0.924,-0.434 0.009,0.03733 0.0187,0.09333 0.028,0.168 0.0187,0.06533 0.028,0.130668 0.028,0.196 -1e-5,0.317334 -0.21934,0.602001 -0.658,0.854 -0.42934,0.242667 -1.01267,0.364 -1.75,0.364 -0.79334,0 -1.47467,-0.289333 -2.044,-0.868 -0.56934,-0.587998 -0.854,-1.367331 -0.854,-2.338 m 1.232,-0.98 2.996,0 c -1e-5,-0.681328 -0.13534,-1.189994 -0.406,-1.526 -0.26134,-0.335994 -0.59734,-0.503994 -1.008,-0.504 -0.38267,6e-6 -0.742,0.200673 -1.078,0.602 -0.336,0.401339 -0.504,0.877338 -0.504,1.428"
         style="font-size:14px"
         id="path3053" /><path
         d="m 241.6965,46.065105 0,-0.238 c 0.17733,-0.06533 0.34533,-0.163332 0.504,-0.294 0.15866,-0.139999 0.238,-0.293999 0.238,-0.462 l 0,-4.732 -0.91,-0.378 0,-0.308 c 0.31733,-0.09333 0.62533,-0.15866 0.924,-0.196 0.29866,-0.03733 0.55066,-0.05599 0.756,-0.056 l 0.336,0 0,0.756 c 0.23333,-0.233327 0.53666,-0.419993 0.91,-0.56 0.37333,-0.149326 0.76066,-0.223993 1.162,-0.224 0.57866,7e-6 1.04999,0.186674 1.414,0.56 0.36399,0.364006 0.54599,0.905339 0.546,1.624 l 0,3.92 0.728,0.21 0,0.266 c -0.18668,0.07467 -0.40601,0.130667 -0.658,0.168 -0.24268,0.04667 -0.51334,0.07 -0.812,0.07 -0.14934,0 -0.30334,-0.0093 -0.462,-0.028 -0.15867,-0.01867 -0.30801,-0.05133 -0.448,-0.098 l 0,-0.238 c 0.17733,-0.07467 0.30333,-0.181999 0.378,-0.322 0.084,-0.149332 0.12599,-0.349999 0.126,-0.602 l 0,-2.674 c -1e-5,-0.681328 -0.13067,-1.166661 -0.392,-1.456 -0.26134,-0.289327 -0.59734,-0.433994 -1.008,-0.434 -0.28934,6e-6 -0.56467,0.04201 -0.826,0.126 -0.26134,0.08401 -0.46667,0.186673 -0.616,0.308 l 0,4.704 0.784,0.21 0,0.266 c -0.23334,0.084 -0.476,0.144667 -0.728,0.182 -0.252,0.03733 -0.55067,0.056 -0.896,0.056 -0.168,0 -0.34534,-0.0093 -0.532,-0.028 -0.18667,-0.01867 -0.35934,-0.05133 -0.518,-0.098"
         style="font-size:14px"
         id="path3055" /><path
         d="m 252.01581,43.069105 c 0,-1.213329 0.30333,-2.141994 0.91,-2.786 0.616,-0.653326 1.288,-0.979993 2.016,-0.98 0.756,7e-6 1.34866,0.238007 1.778,0.714 0.42933,0.466673 0.64399,1.101339 0.644,1.904 -10e-6,0.130671 -10e-6,0.270671 0,0.42 -10e-6,0.140004 -0.005,0.298671 -0.014,0.476 l -4.13,0 c 0,0.784003 0.20067,1.395336 0.602,1.834 0.40133,0.429335 0.89133,0.644001 1.47,0.644 0.34533,10e-7 0.69533,-0.056 1.05,-0.168 0.35466,-0.111999 0.66266,-0.256665 0.924,-0.434 0.009,0.03733 0.0187,0.09333 0.028,0.168 0.0187,0.06533 0.028,0.130668 0.028,0.196 -1e-5,0.317334 -0.21934,0.602001 -0.658,0.854 -0.42934,0.242667 -1.01267,0.364 -1.75,0.364 -0.79334,0 -1.47467,-0.289333 -2.044,-0.868 -0.56933,-0.587998 -0.854,-1.367331 -0.854,-2.338 m 1.232,-0.98 2.996,0 c 0,-0.681328 -0.13534,-1.189994 -0.406,-1.526 -0.26134,-0.335994 -0.59734,-0.503994 -1.008,-0.504 -0.38267,6e-6 -0.742,0.200673 -1.078,0.602 -0.336,0.401339 -0.504,0.877338 -0.504,1.428"
         style="font-size:14px"
         id="path3057" /><path
         d="m 258.48556,46.065105 0,-0.238 c 0.17733,-0.06533 0.34533,-0.163332 0.504,-0.294 0.15867,-0.139999 0.238,-0.293999 0.238,-0.462 l 0,-4.732 -0.91,-0.378 0,-0.308 c 0.31733,-0.09333 0.62533,-0.15866 0.924,-0.196 0.29867,-0.03733 0.55067,-0.05599 0.756,-0.056 l 0.336,0 0,0.756 c 0.23333,-0.233327 0.53666,-0.419993 0.91,-0.56 0.37333,-0.149326 0.76066,-0.223993 1.162,-0.224 0.57866,7e-6 1.04999,0.186674 1.414,0.56 0.36399,0.364006 0.54599,0.905339 0.546,1.624 l 0,3.92 0.728,0.21 0,0.266 c -0.18667,0.07467 -0.40601,0.130667 -0.658,0.168 -0.24267,0.04667 -0.51334,0.07 -0.812,0.07 -0.14934,0 -0.30334,-0.0093 -0.462,-0.028 -0.15867,-0.01867 -0.308,-0.05133 -0.448,-0.098 l 0,-0.238 c 0.17733,-0.07467 0.30333,-0.181999 0.378,-0.322 0.084,-0.149332 0.126,-0.349999 0.126,-0.602 l 0,-2.674 c 0,-0.681328 -0.13067,-1.166661 -0.392,-1.456 -0.26134,-0.289327 -0.59734,-0.433994 -1.008,-0.434 -0.28934,6e-6 -0.56467,0.04201 -0.826,0.126 -0.26134,0.08401 -0.46667,0.186673 -0.616,0.308 l 0,4.704 0.784,0.21 0,0.266 c -0.23334,0.084 -0.476,0.144667 -0.728,0.182 -0.252,0.03733 -0.55067,0.056 -0.896,0.056 -0.168,0 -0.34533,-0.0093 -0.532,-0.028 -0.18667,-0.01867 -0.35933,-0.05133 -0.518,-0.098"
         style="font-size:14px"
         id="path3059" /><path
         d="m 54.050342,63.565105 0,-0.266 c 0.298665,-0.09333 0.508665,-0.219332 0.63,-0.378 0.121332,-0.167999 0.181998,-0.401332 0.182,-0.7 l 0,-6.888 -0.882,-0.224 0,-0.308 c 0.261332,-0.07466 0.527332,-0.130657 0.798,-0.168 0.279998,-0.03732 0.545998,-0.05599 0.798,-0.056 0.251997,9e-6 0.480664,0.01401 0.686,0.042 0.214663,0.01868 0.424663,0.05134 0.63,0.098 l 0,0.266 c -0.289337,0.08401 -0.499337,0.200675 -0.63,0.35 -0.121336,0.149342 -0.182003,0.378008 -0.182,0.686 l 0,6.916 0.882,0.224 0,0.308 c -0.261337,0.07467 -0.518003,0.130667 -0.77,0.168 -0.24267,0.04667 -0.541336,0.07 -0.896,0.07 -0.261335,0 -0.494668,-0.014 -0.7,-0.042 -0.196001,-0.01867 -0.378001,-0.05133 -0.546,-0.098 m 2.072,-4.466 0,-0.056 3.318,-3.766 0,-0.014 -0.756,-0.168 0,-0.294 c 0.307994,-0.09332 0.569327,-0.153991 0.784,-0.182 0.223993,-0.02799 0.471326,-0.04199 0.742,-0.042 0.177326,9e-6 0.345326,0.0093 0.504,0.028 0.158659,0.01868 0.312659,0.05134 0.462,0.098 l 0,0.266 c -0.196008,0.09334 -0.373341,0.196009 -0.532,0.308 -0.158674,0.112009 -0.322007,0.256675 -0.49,0.434 l -2.8,3.122 2.492,3.164 c 0.233326,0.298668 0.461993,0.532001 0.686,0.7 0.223992,0.168001 0.513325,0.331334 0.868,0.49 l 0,0.28 c -0.149342,0.09333 -0.298675,0.168 -0.448,0.224 -0.149341,0.056 -0.331341,0.084 -0.546,0.084 -0.336007,0 -0.630007,-0.07467 -0.882,-0.224 -0.242673,-0.158666 -0.532006,-0.471332 -0.868,-0.938 l -2.534,-3.514"
         style="font-size:14px"
         id="path3061" /><path
         d="m 61.73131,60.555105 c 0,-1.138662 0.331333,-2.048661 0.994,-2.73 0.671998,-0.69066 1.437331,-1.035993 2.296,-1.036 0.858662,7e-6 1.581995,0.298674 2.17,0.896 0.587994,0.588006 0.881994,1.367338 0.882,2.338 -6e-6,1.148003 -0.340673,2.062669 -1.022,2.744 -0.672005,0.681334 -1.423337,1.022 -2.254,1.022 -0.840002,0 -1.563335,-0.284666 -2.17,-0.854 -0.597334,-0.569332 -0.896,-1.362664 -0.896,-2.38 m 1.274,-0.14 c -1e-6,0.840003 0.186665,1.479335 0.56,1.918 0.382664,0.429335 0.821331,0.644001 1.316,0.644 0.466663,10e-7 0.900662,-0.233332 1.302,-0.7 0.410662,-0.466664 0.615995,-1.175997 0.616,-2.128 -5e-6,-0.811995 -0.191338,-1.437328 -0.574,-1.876 -0.373338,-0.447994 -0.807337,-0.671994 -1.302,-0.672 -0.476003,6e-6 -0.914669,0.238006 -1.316,0.714 -0.401335,0.476005 -0.602001,1.176005 -0.602,2.1"
         style="font-size:14px"
         id="path3063" /><path
         d="m 69.294154,63.565105 0,-0.238 c 0.177333,-0.06533 0.345333,-0.163332 0.504,-0.294 0.158666,-0.139999 0.237999,-0.293999 0.238,-0.462 l 0,-4.732 -0.91,-0.378 0,-0.308 c 0.317333,-0.09333 0.625332,-0.15866 0.924,-0.196 0.298665,-0.03733 0.550665,-0.05599 0.756,-0.056 l 0.336,0 0,0.756 c 0.233331,-0.233327 0.536664,-0.419993 0.91,-0.56 0.37333,-0.149326 0.760663,-0.223993 1.162,-0.224 0.578662,7e-6 1.049995,0.186674 1.414,0.56 0.363994,0.364006 0.545994,0.905339 0.546,1.624 l 0,3.92 0.728,0.21 0,0.266 c -0.186674,0.07467 -0.406007,0.130667 -0.658,0.168 -0.242673,0.04667 -0.513339,0.07 -0.812,0.07 -0.149339,0 -0.303339,-0.0093 -0.462,-0.028 -0.158672,-0.01867 -0.308005,-0.05133 -0.448,-0.098 l 0,-0.238 c 0.177328,-0.07467 0.303328,-0.181999 0.378,-0.322 0.084,-0.149332 0.125995,-0.349999 0.126,-0.602 l 0,-2.674 c -5e-6,-0.681328 -0.130672,-1.166661 -0.392,-1.456 -0.261338,-0.289327 -0.597338,-0.433994 -1.008,-0.434 -0.289337,6e-6 -0.56467,0.04201 -0.826,0.126 -0.261336,0.08401 -0.466669,0.186673 -0.616,0.308 l 0,4.704 0.784,0.21 0,0.266 c -0.233336,0.084 -0.476003,0.144667 -0.728,0.182 -0.252002,0.03733 -0.550669,0.056 -0.896,0.056 -0.168001,0 -0.345335,-0.0093 -0.532,-0.028 -0.186667,-0.01867 -0.359334,-0.05133 -0.518,-0.098"
         style="font-size:14px"
         id="path3065" /><path
         d="m 78.335092,55.613105 c -0.205335,8e-6 -0.382669,-0.07466 -0.532,-0.224 -0.140002,-0.149325 -0.210002,-0.340658 -0.21,-0.574 -2e-6,-0.214657 0.07,-0.40599 0.21,-0.574 0.149331,-0.16799 0.345331,-0.25199 0.588,-0.252 0.195997,10e-6 0.363997,0.07001 0.504,0.21 0.14933,0.130676 0.223997,0.312676 0.224,0.546 -3e-6,0.242676 -0.07467,0.448009 -0.224,0.616 -0.149336,0.168008 -0.336003,0.252008 -0.56,0.252 m -1.33,7.952 0,-0.238 c 0.186665,-0.06533 0.354665,-0.163332 0.504,-0.294 0.158665,-0.139999 0.237998,-0.293999 0.238,-0.462 l 0,-4.732 -0.896,-0.378 0,-0.294 c 0.317332,-0.09333 0.625332,-0.15866 0.924,-0.196 0.298665,-0.04666 0.545998,-0.06999 0.742,-0.07 l 0.448,0 -0.07,0.756 0,5.32 0.784,0.21 0,0.266 c -0.233337,0.084 -0.476003,0.144667 -0.728,0.182 -0.242669,0.03733 -0.541336,0.056 -0.896,0.056 -0.158669,0 -0.336002,-0.0093 -0.532,-0.028 -0.186668,-0.01867 -0.359334,-0.05133 -0.518,-0.098"
         style="font-size:14px"
         id="path3067" /><path
         d="m 80.805873,63.565105 0,-0.238 c 0.177332,-0.06533 0.345332,-0.163332 0.504,-0.294 0.158665,-0.139999 0.237999,-0.293999 0.238,-0.462 l 0,-4.732 -0.91,-0.378 0,-0.308 c 0.317332,-0.09333 0.625332,-0.15866 0.924,-0.196 0.298665,-0.03733 0.550665,-0.05599 0.756,-0.056 l 0.336,0 0,0.756 c 0.233331,-0.233327 0.536664,-0.419993 0.91,-0.56 0.373329,-0.149326 0.760662,-0.223993 1.162,-0.224 0.578661,7e-6 1.049994,0.186674 1.414,0.56 0.363994,0.364006 0.545993,0.905339 0.546,1.624 l 0,3.92 0.728,0.21 0,0.266 c -0.186674,0.07467 -0.406007,0.130667 -0.658,0.168 -0.242673,0.04667 -0.51334,0.07 -0.812,0.07 -0.149339,0 -0.303339,-0.0093 -0.462,-0.028 -0.158672,-0.01867 -0.308005,-0.05133 -0.448,-0.098 l 0,-0.238 c 0.177328,-0.07467 0.303328,-0.181999 0.378,-0.322 0.084,-0.149332 0.125995,-0.349999 0.126,-0.602 l 0,-2.674 c -5e-6,-0.681328 -0.130672,-1.166661 -0.392,-1.456 -0.261338,-0.289327 -0.597338,-0.433994 -1.008,-0.434 -0.289337,6e-6 -0.56467,0.04201 -0.826,0.126 -0.261336,0.08401 -0.466669,0.186673 -0.616,0.308 l 0,4.704 0.784,0.21 0,0.266 c -0.233337,0.084 -0.476003,0.144667 -0.728,0.182 -0.252002,0.03733 -0.550669,0.056 -0.896,0.056 -0.168002,0 -0.345335,-0.0093 -0.532,-0.028 -0.186668,-0.01867 -0.359334,-0.05133 -0.518,-0.098"
         style="font-size:14px"
         id="path3069" /><path
         d="m 88.50281,63.565105 0,-0.238 c 0.186666,-0.06533 0.359333,-0.163332 0.518,-0.294 0.158666,-0.139999 0.237999,-0.293999 0.238,-0.462 l 0,-8.12 -0.924,-0.378 0,-0.308 c 0.317333,-0.09332 0.625333,-0.158656 0.924,-0.196 0.307999,-0.03732 0.559998,-0.05599 0.756,-0.056 l 0.476,0 -0.084,0.784 0,5.6 0.77,-0.672 c 0.37333,-0.317328 0.704663,-0.690661 0.994,-1.12 0.298662,-0.429327 0.447996,-0.80266 0.448,-1.12 0.121329,-0.03733 0.237995,-0.06533 0.35,-0.084 0.121329,-0.01866 0.251995,-0.02799 0.392,-0.028 0.102661,7e-6 0.195995,0.01401 0.28,0.042 0.09333,0.01867 0.186661,0.04667 0.28,0.084 -0.0093,0.298673 -0.172672,0.672006 -0.49,1.12 -0.308005,0.438672 -0.779338,0.886672 -1.414,1.344 l -0.49,0.35 2.156,2.618 c 0.195994,0.233335 0.377994,0.406001 0.546,0.518 0.177327,0.102668 0.34066,0.154001 0.49,0.154 l 0,0.294 c -0.14934,0.102667 -0.308006,0.177334 -0.476,0.224 -0.168006,0.04667 -0.354672,0.07 -0.56,0.07 -0.196005,0 -0.378005,-0.042 -0.546,-0.126 -0.168005,-0.09333 -0.317338,-0.228666 -0.448,-0.406 l -2.282,-3.01 0,2.828 0.728,0.224 0,0.266 c -0.261336,0.084 -0.508669,0.14 -0.742,0.168 -0.233335,0.03733 -0.513335,0.056 -0.84,0.056 -0.158668,0 -0.336001,-0.0093 -0.532,-0.028 -0.186667,-0.01867 -0.359334,-0.05133 -0.518,-0.098"
         style="font-size:14px"
         id="path3071" /><path
         d="m 95.106654,63.565105 0,-0.238 c 0.177333,-0.06533 0.345333,-0.163332 0.504,-0.294 0.158666,-0.139999 0.237999,-0.293999 0.238,-0.462 l 0,-4.732 -0.91,-0.378 0,-0.308 c 0.317333,-0.09333 0.625332,-0.15866 0.924,-0.196 0.298665,-0.03733 0.550665,-0.05599 0.756,-0.056 l 0.336,0 0,0.98 0.014,0 0.392,-0.434 c 0.186664,-0.205327 0.377997,-0.359326 0.574,-0.462 0.20533,-0.10266 0.424663,-0.153993 0.658,-0.154 0.242662,7e-6 0.424662,0.05134 0.546,0.154 0.121329,0.102674 0.181995,0.252007 0.182,0.448 -5e-6,0.130673 -0.02334,0.270673 -0.07,0.42 -0.03734,0.149339 -0.08867,0.289339 -0.154,0.42 -0.130671,-0.102661 -0.270671,-0.181994 -0.42,-0.238 -0.149337,-0.05599 -0.29867,-0.08399 -0.448,-0.084 -0.21467,6e-6 -0.42467,0.05134 -0.63,0.154 -0.205336,0.09334 -0.406003,0.233339 -0.602,0.42 l 0,4.452 0.966,0.21 0,0.266 c -0.233336,0.084 -0.48067,0.144667 -0.742,0.182 -0.261336,0.03733 -0.592669,0.056 -0.994,0.056 -0.205335,0 -0.406001,-0.0093 -0.602,-0.028 -0.186667,-0.01867 -0.359334,-0.05133 -0.518,-0.098"
         style="font-size:14px"
         id="path3073" /><path
         d="m 101.13978,55.613105 c -0.20534,8e-6 -0.38267,-0.07466 -0.532,-0.224 -0.14,-0.149325 -0.21,-0.340658 -0.21,-0.574 0,-0.214657 0.07,-0.40599 0.21,-0.574 0.14933,-0.16799 0.34533,-0.25199 0.588,-0.252 0.196,10e-6 0.364,0.07001 0.504,0.21 0.14933,0.130676 0.224,0.312676 0.224,0.546 0,0.242676 -0.0747,0.448009 -0.224,0.616 -0.14934,0.168008 -0.336,0.252008 -0.56,0.252 m -1.330001,7.952 0,-0.238 c 0.186666,-0.06533 0.354661,-0.163332 0.504001,-0.294 0.15866,-0.139999 0.238,-0.293999 0.238,-0.462 l 0,-4.732 -0.896001,-0.378 0,-0.294 c 0.317333,-0.09333 0.625331,-0.15866 0.924001,-0.196 0.29866,-0.04666 0.546,-0.06999 0.742,-0.07 l 0.448,0 -0.07,0.756 0,5.32 0.784,0.21 0,0.266 c -0.23334,0.084 -0.476,0.144667 -0.728,0.182 -0.24267,0.03733 -0.54134,0.056 -0.896,0.056 -0.15867,0 -0.336,-0.0093 -0.532,-0.028 -0.18667,-0.01867 -0.359335,-0.05133 -0.518001,-0.098"
         style="font-size:14px"
         id="path3075" /><path
         d="m 104.88456,55.613105 c -0.20533,8e-6 -0.38267,-0.07466 -0.532,-0.224 -0.14,-0.149325 -0.21,-0.340658 -0.21,-0.574 0,-0.214657 0.07,-0.40599 0.21,-0.574 0.14933,-0.16799 0.34533,-0.25199 0.588,-0.252 0.196,10e-6 0.364,0.07001 0.504,0.21 0.14933,0.130676 0.224,0.312676 0.224,0.546 0,0.242676 -0.0747,0.448009 -0.224,0.616 -0.14934,0.168008 -0.336,0.252008 -0.56,0.252 m -0.588,8.68 0,-6.454 -0.896,-0.378 0,-0.294 c 0.31733,-0.09333 0.62533,-0.15866 0.924,-0.196 0.29867,-0.04666 0.55067,-0.06999 0.756,-0.07 l 0.448,0 -0.084,0.784 0,6.286 c 0,1.138666 -0.154,1.922665 -0.462,2.352 -0.29867,0.438664 -0.672,0.657997 -1.12,0.658 -0.14933,-3e-6 -0.29867,-0.028 -0.448,-0.084 -0.14,-0.056 -0.252,-0.140003 -0.336,-0.252 l 0,-0.224 c 0.308,-2e-6 0.588,-0.177336 0.84,-0.532 0.252,-0.354668 0.378,-0.886668 0.378,-1.596"
         style="font-size:14px"
         id="path3077" /><path
         d="m 107.20594,63.565105 0,-0.238 c 0.18666,-0.06533 0.35933,-0.163332 0.518,-0.294 0.15866,-0.139999 0.23799,-0.293999 0.238,-0.462 l 0,-8.12 -0.924,-0.378 0,-0.308 c 0.31733,-0.09332 0.62533,-0.158656 0.924,-0.196 0.30799,-0.03732 0.55999,-0.05599 0.756,-0.056 l 0.476,0 -0.084,0.784 0,5.6 0.77,-0.672 c 0.37333,-0.317328 0.70466,-0.690661 0.994,-1.12 0.29866,-0.429327 0.44799,-0.80266 0.448,-1.12 0.12132,-0.03733 0.23799,-0.06533 0.35,-0.084 0.12132,-0.01866 0.25199,-0.02799 0.392,-0.028 0.10266,7e-6 0.19599,0.01401 0.28,0.042 0.0933,0.01867 0.18666,0.04667 0.28,0.084 -0.009,0.298673 -0.17268,0.672006 -0.49,1.12 -0.30801,0.438672 -0.77934,0.886672 -1.414,1.344 l -0.49,0.35 2.156,2.618 c 0.19599,0.233335 0.37799,0.406001 0.546,0.518 0.17732,0.102668 0.34066,0.154001 0.49,0.154 l 0,0.294 c -0.14934,0.102667 -0.30801,0.177334 -0.476,0.224 -0.16801,0.04667 -0.35468,0.07 -0.56,0.07 -0.19601,0 -0.37801,-0.042 -0.546,-0.126 -0.16801,-0.09333 -0.31734,-0.228666 -0.448,-0.406 l -2.282,-3.01 0,2.828 0.728,0.224 0,0.266 c -0.26134,0.084 -0.50867,0.14 -0.742,0.168 -0.23334,0.03733 -0.51334,0.056 -0.84,0.056 -0.15867,0 -0.33601,-0.0093 -0.532,-0.028 -0.18667,-0.01867 -0.35934,-0.05133 -0.518,-0.098"
         style="font-size:14px"
         id="path3079" /><path
         d="m 113.59978,62.627105 c 0,-0.09333 0.009,-0.191332 0.028,-0.294 0.028,-0.111998 0.0607,-0.205331 0.098,-0.28 0.31733,0.289335 0.63,0.508668 0.938,0.658 0.31733,0.149334 0.66266,0.224001 1.036,0.224 0.392,10e-7 0.686,-0.084 0.882,-0.252 0.20533,-0.167999 0.308,-0.373332 0.308,-0.616 0,-0.242664 -0.0887,-0.452664 -0.266,-0.63 -0.168,-0.177331 -0.48067,-0.363997 -0.938,-0.56 l -0.7,-0.294 c -0.40134,-0.17733 -0.714,-0.410663 -0.938,-0.7 -0.21467,-0.289329 -0.322,-0.634662 -0.322,-1.036 0,-0.550661 0.224,-1.031327 0.672,-1.442 0.448,-0.41066 1.036,-0.615993 1.764,-0.616 0.56,7e-6 0.96133,0.07934 1.204,0.238 0.24266,0.158673 0.36399,0.368673 0.364,0.63 -1e-5,0.102673 -0.009,0.205339 -0.028,0.308 -0.009,0.09334 -0.0233,0.186673 -0.042,0.28 -0.22401,-0.149327 -0.48067,-0.275327 -0.77,-0.378 -0.28934,-0.10266 -0.56467,-0.153994 -0.826,-0.154 -0.448,6e-6 -0.77934,0.08867 -0.994,0.266 -0.21467,0.168006 -0.322,0.368672 -0.322,0.602 0,0.252005 0.0747,0.462005 0.224,0.63 0.15866,0.158671 0.448,0.317338 0.868,0.476 l 0.756,0.294 c 0.504,0.196004 0.85866,0.434004 1.064,0.714 0.21466,0.27067 0.32199,0.611336 0.322,1.022 -1e-5,0.532002 -0.23801,1.008001 -0.714,1.428 -0.476,0.42 -1.106,0.63 -1.89,0.63 -0.616,0 -1.06867,-0.098 -1.358,-0.294 -0.28,-0.195999 -0.42,-0.480666 -0.42,-0.854"
         style="font-size:14px"
         id="path3081" /><path
         d="m 118.97775,63.565105 0,-0.238 c 0.17733,-0.06533 0.34533,-0.163332 0.504,-0.294 0.15866,-0.139999 0.238,-0.293999 0.238,-0.462 l 0,-4.732 -0.91,-0.378 0,-0.308 c 0.31733,-0.09333 0.62533,-0.15866 0.924,-0.196 0.29866,-0.03733 0.55066,-0.05599 0.756,-0.056 l 0.336,0 0,0.98 0.014,0 0.392,-0.434 c 0.18666,-0.205327 0.37799,-0.359326 0.574,-0.462 0.20533,-0.10266 0.42466,-0.153993 0.658,-0.154 0.24266,7e-6 0.42466,0.05134 0.546,0.154 0.12133,0.102674 0.18199,0.252007 0.182,0.448 -1e-5,0.130673 -0.0233,0.270673 -0.07,0.42 -0.0373,0.149339 -0.0887,0.289339 -0.154,0.42 -0.13067,-0.102661 -0.27067,-0.181994 -0.42,-0.238 -0.14934,-0.05599 -0.29867,-0.08399 -0.448,-0.084 -0.21467,6e-6 -0.42467,0.05134 -0.63,0.154 -0.20534,0.09334 -0.406,0.233339 -0.602,0.42 l 0,4.452 0.966,0.21 0,0.266 c -0.23334,0.084 -0.48067,0.144667 -0.742,0.182 -0.26134,0.03733 -0.59267,0.056 -0.994,0.056 -0.20534,0 -0.406,-0.0093 -0.602,-0.028 -0.18667,-0.01867 -0.35934,-0.05133 -0.518,-0.098"
         style="font-size:14px"
         id="path3083" /><path
         d="m 123.55487,60.569105 c 0,-1.213329 0.30334,-2.141994 0.91,-2.786 0.616,-0.653326 1.288,-0.979993 2.016,-0.98 0.756,7e-6 1.34866,0.238007 1.778,0.714 0.42933,0.466673 0.644,1.101339 0.644,1.904 0,0.130671 0,0.270671 0,0.42 0,0.140004 -0.005,0.298671 -0.014,0.476 l -4.13,0 c 0,0.784003 0.20067,1.395336 0.602,1.834 0.40133,0.429335 0.89133,0.644001 1.47,0.644 0.34533,10e-7 0.69533,-0.056 1.05,-0.168 0.35466,-0.111999 0.66266,-0.256665 0.924,-0.434 0.009,0.03733 0.0187,0.09333 0.028,0.168 0.0187,0.06533 0.028,0.130668 0.028,0.196 0,0.317334 -0.21934,0.602001 -0.658,0.854 -0.42934,0.242667 -1.01267,0.364 -1.75,0.364 -0.79333,0 -1.47467,-0.289333 -2.044,-0.868 -0.56933,-0.587998 -0.854,-1.367331 -0.854,-2.338 m 1.232,-0.98 2.996,0 c 0,-0.681328 -0.13534,-1.189994 -0.406,-1.526 -0.26133,-0.335994 -0.59733,-0.503994 -1.008,-0.504 -0.38267,6e-6 -0.742,0.200673 -1.078,0.602 -0.336,0.401339 -0.504,0.877338 -0.504,1.428"
         style="font-size:14px"
         id="path3085" /><path
         d="m 130.02462,63.565105 0,-0.238 c 0.17734,-0.06533 0.34534,-0.163332 0.504,-0.294 0.15867,-0.139999 0.238,-0.293999 0.238,-0.462 l 0,-8.12 -0.91,-0.378 0,-0.308 c 0.31734,-0.09332 0.62534,-0.158656 0.924,-0.196 0.308,-0.03732 0.56,-0.05599 0.756,-0.056 l 0.448,0 -0.07,0.784 0,8.68 0.784,0.21 0,0.266 c -0.23333,0.084 -0.476,0.144667 -0.728,0.182 -0.252,0.03733 -0.55067,0.056 -0.896,0.056 -0.168,0 -0.34533,-0.0093 -0.532,-0.028 -0.18666,-0.01867 -0.35933,-0.05133 -0.518,-0.098"
         style="font-size:14px"
         id="path3087" /><path
         d="m 133.57472,62.221105 c 0,-0.615998 0.322,-1.147997 0.966,-1.596 0.64399,-0.457329 1.53533,-0.685996 2.674,-0.686 l 0,-0.378 c -1e-5,-0.755995 -0.098,-1.250661 -0.294,-1.484 -0.19601,-0.233327 -0.51334,-0.349994 -0.952,-0.35 -0.38267,6e-6 -0.75601,0.07934 -1.12,0.238 -0.364,0.158673 -0.69067,0.382672 -0.98,0.672 -0.009,-0.06533 -0.0187,-0.130661 -0.028,-0.196 -0.009,-0.07466 -0.014,-0.149328 -0.014,-0.224 0,-0.447994 0.17733,-0.793327 0.532,-1.036 0.364,-0.251993 0.95199,-0.377993 1.764,-0.378 0.69999,7e-6 1.25066,0.168007 1.652,0.504 0.40132,0.336006 0.60199,0.793339 0.602,1.372 -1e-5,0.149339 -0.009,0.373338 -0.028,0.672 -0.009,0.289338 -0.0187,0.536671 -0.028,0.742 l -0.042,2.268 c 0.0467,0.121335 0.12132,0.247335 0.224,0.378 0.10266,0.130668 0.21466,0.242668 0.336,0.336 -0.10268,0.121334 -0.24268,0.247334 -0.42,0.378 -0.17734,0.130667 -0.35467,0.242667 -0.532,0.336 -0.13067,-0.084 -0.25201,-0.182 -0.364,-0.294 -0.10267,-0.111999 -0.19601,-0.242666 -0.28,-0.392 -0.19601,0.186667 -0.46667,0.345334 -0.812,0.476 -0.34534,0.130667 -0.70467,0.196 -1.078,0.196 -0.52267,0 -0.952,-0.144666 -1.288,-0.434 -0.32667,-0.298666 -0.49,-0.671999 -0.49,-1.12 m 1.204,-0.21 c 0,0.280002 0.0933,0.504001 0.28,0.672 0.18666,0.168001 0.45733,0.252001 0.812,0.252 0.21466,10e-7 0.44799,-0.03733 0.7,-0.112 0.25199,-0.07466 0.46666,-0.163332 0.644,-0.266 l 0,-1.96 c -0.78401,3e-6 -1.38601,0.14467 -1.806,0.434 -0.42001,0.280003 -0.63,0.606669 -0.63,0.98"
         style="font-size:14px"
         id="path3089" /><path
         d="m 140.59244,61.801105 c -1e-5,-0.335997 0.005,-0.68133 0.014,-1.036 0.009,-0.363996 0.0187,-0.704663 0.028,-1.022 l 0.042,-1.862 -0.77,0 0,-0.462 1.512,-1.498 0.462,-0.056 -0.056,1.26 1.848,0 -0.098,0.756 -1.792,0 -0.028,1.764 c -0.009,0.289337 -0.014,0.569337 -0.014,0.84 -1e-5,0.27067 -1e-5,0.53667 0,0.798 -1e-5,0.560002 0.0747,0.956668 0.224,1.19 0.15866,0.224001 0.36866,0.336001 0.63,0.336 0.20533,10e-7 0.39199,-0.03267 0.56,-0.098 0.17732,-0.06533 0.33599,-0.153999 0.476,-0.266 l 0.14,0.056 c -0.028,0.410668 -0.16801,0.723334 -0.42,0.938 -0.25201,0.205334 -0.61601,0.308 -1.092,0.308 -0.56001,0 -0.98001,-0.154 -1.26,-0.462 -0.27067,-0.317332 -0.40601,-0.811998 -0.406,-1.484"
         style="font-size:14px"
         id="path3091" /><path
         d="m 145.71009,55.613105 c -0.20533,8e-6 -0.38267,-0.07466 -0.532,-0.224 -0.14,-0.149325 -0.21,-0.340658 -0.21,-0.574 0,-0.214657 0.07,-0.40599 0.21,-0.574 0.14933,-0.16799 0.34533,-0.25199 0.588,-0.252 0.196,10e-6 0.364,0.07001 0.504,0.21 0.14933,0.130676 0.224,0.312676 0.224,0.546 0,0.242676 -0.0747,0.448009 -0.224,0.616 -0.14933,0.168008 -0.336,0.252008 -0.56,0.252 m -1.33,7.952 0,-0.238 c 0.18667,-0.06533 0.35467,-0.163332 0.504,-0.294 0.15867,-0.139999 0.238,-0.293999 0.238,-0.462 l 0,-4.732 -0.896,-0.378 0,-0.294 c 0.31733,-0.09333 0.62533,-0.15866 0.924,-0.196 0.29867,-0.04666 0.546,-0.06999 0.742,-0.07 l 0.448,0 -0.07,0.756 0,5.32 0.784,0.21 0,0.266 c -0.23333,0.084 -0.476,0.144667 -0.728,0.182 -0.24267,0.03733 -0.54133,0.056 -0.896,0.056 -0.15867,0 -0.336,-0.0093 -0.532,-0.028 -0.18667,-0.01867 -0.35933,-0.05133 -0.518,-0.098"
         style="font-size:14px"
         id="path3093" /><path
         d="m 148.05487,60.569105 c 0,-1.213329 0.30334,-2.141994 0.91,-2.786 0.616,-0.653326 1.288,-0.979993 2.016,-0.98 0.756,7e-6 1.34866,0.238007 1.778,0.714 0.42933,0.466673 0.644,1.101339 0.644,1.904 0,0.130671 0,0.270671 0,0.42 0,0.140004 -0.005,0.298671 -0.014,0.476 l -4.13,0 c 0,0.784003 0.20067,1.395336 0.602,1.834 0.40133,0.429335 0.89133,0.644001 1.47,0.644 0.34533,10e-7 0.69533,-0.056 1.05,-0.168 0.35466,-0.111999 0.66266,-0.256665 0.924,-0.434 0.009,0.03733 0.0187,0.09333 0.028,0.168 0.0187,0.06533 0.028,0.130668 0.028,0.196 0,0.317334 -0.21934,0.602001 -0.658,0.854 -0.42934,0.242667 -1.01267,0.364 -1.75,0.364 -0.79333,0 -1.47467,-0.289333 -2.044,-0.868 -0.56933,-0.587998 -0.854,-1.367331 -0.854,-2.338 m 1.232,-0.98 2.996,0 c 0,-0.681328 -0.13534,-1.189994 -0.406,-1.526 -0.26133,-0.335994 -0.59733,-0.503994 -1.008,-0.504 -0.38267,6e-6 -0.742,0.200673 -1.078,0.602 -0.336,0.401339 -0.504,0.877338 -0.504,1.428"
         style="font-size:14px"
         id="path3095" /><path
         d="m 154.31462,62.627105 c 0,-0.09333 0.009,-0.191332 0.028,-0.294 0.028,-0.111998 0.0607,-0.205331 0.098,-0.28 0.31734,0.289335 0.63,0.508668 0.938,0.658 0.31733,0.149334 0.66267,0.224001 1.036,0.224 0.392,10e-7 0.686,-0.084 0.882,-0.252 0.20533,-0.167999 0.308,-0.373332 0.308,-0.616 0,-0.242664 -0.0887,-0.452664 -0.266,-0.63 -0.168,-0.177331 -0.48067,-0.363997 -0.938,-0.56 l -0.7,-0.294 c -0.40133,-0.17733 -0.714,-0.410663 -0.938,-0.7 -0.21466,-0.289329 -0.322,-0.634662 -0.322,-1.036 0,-0.550661 0.224,-1.031327 0.672,-1.442 0.448,-0.41066 1.036,-0.615993 1.764,-0.616 0.56,7e-6 0.96133,0.07934 1.204,0.238 0.24267,0.158673 0.364,0.368673 0.364,0.63 0,0.102673 -0.009,0.205339 -0.028,0.308 -0.009,0.09334 -0.0233,0.186673 -0.042,0.28 -0.224,-0.149327 -0.48067,-0.275327 -0.77,-0.378 -0.28933,-0.10266 -0.56467,-0.153994 -0.826,-0.154 -0.448,6e-6 -0.77933,0.08867 -0.994,0.266 -0.21467,0.168006 -0.322,0.368672 -0.322,0.602 0,0.252005 0.0747,0.462005 0.224,0.63 0.15867,0.158671 0.448,0.317338 0.868,0.476 l 0.756,0.294 c 0.504,0.196004 0.85867,0.434004 1.064,0.714 0.21466,0.27067 0.322,0.611336 0.322,1.022 0,0.532002 -0.238,1.008001 -0.714,1.428 -0.476,0.42 -1.106,0.63 -1.89,0.63 -0.616,0 -1.06866,-0.098 -1.358,-0.294 -0.28,-0.195999 -0.42,-0.480666 -0.42,-0.854"
         style="font-size:14px"
         id="path3097" /></g></g></svg>