<?xml version="1.0" encoding="UTF-8" standalone="no"?>
<!-- Created with Inkscape (http://www.inkscape.org/) -->

<svg
   xmlns:ns="http://ns.adobe.com/SaveForWeb/1.0/"
   xmlns:dc="http://purl.org/dc/elements/1.1/"
   xmlns:cc="http://creativecommons.org/ns#"
   xmlns:rdf="http://www.w3.org/1999/02/22-rdf-syntax-ns#"
   xmlns:svg="http://www.w3.org/2000/svg"
   xmlns="http://www.w3.org/2000/svg"
   xmlns:sodipodi="http://sodipodi.sourceforge.net/DTD/sodipodi-0.dtd"
   xmlns:inkscape="http://www.inkscape.org/namespaces/inkscape"
   version="1.2"
   width="300"
   height="97"
   viewBox="0 0 300.00001 97.000003"
   id="logo"
   xml:space="preserve"
   inkscape:version="0.48.4 r9939"
   sodipodi:docname="minienm_bw.svg"><sodipodi:namedview
     pagecolor="#ffffff"
     bordercolor="#666666"
     borderopacity="1"
     objecttolerance="10"
     gridtolerance="10"
     guidetolerance="10"
     inkscape:pageopacity="0"
     inkscape:pageshadow="2"
     inkscape:window-width="1920"
     inkscape:window-height="1056"
     id="namedview18"
     showgrid="false"
     inkscape:zoom="4"
     inkscape:cx="117.29734"
     inkscape:cy="25.025188"
     inkscape:window-x="0"
     inkscape:window-y="24"
     inkscape:window-maximized="1"
     inkscape:current-layer="logo"
     fit-margin-left="10"
     fit-margin-right="10"
     fit-margin-bottom="10"
     fit-margin-top="10" /><defs
     id="defs87" /><style
     xml:space="preserve"
     id="style3"
     type="text/css" /><metadata
     id="metadata5"><ns:sfw><ns:slices /><ns:sliceSourceBounds
         bottomLeftOrigin="true"
         height="77"
         width="243.34"
         x="190.6"
         y="-158.12" /></ns:sfw><rdf:RDF><cc:Work
         rdf:about=""><dc:format>image/svg+xml</dc:format><dc:type
           rdf:resource="http://purl.org/dc/dcmitype/StillImage" /><dc:title /></cc:Work></rdf:RDF></metadata><g
     id="g7"
     transform="translate(10,10)"><g
       id="g9"><g
         id="g11"><g
           id="g13"><g
             id="g15"><g
               id="g17"><g
                 id="g19"><path
                   style="fill:#000000"
                   d="M 0,0 44,0 44,77 0,77 z"
                   id="rect21" /><path
                   style="fill:#ffffff"
                   id="path23"
                   d="M 22.76,57.01 H 22 v -2.12 h 0.76 v 2.12 z m 3.45,-9.35 h -0.76 v -2.12 h 0.76 v 2.12 z M 12.05,44 c -0.06,0 -0.45,0 -0.45,0.08 0,0.08 0.18,0.04 0.45,0.09 0.61,0.1 0.85,0.41 1.28,0.41 0.39,0 0.79,-0.26 0.63,-0.83 -0.03,-0.09 -0.08,-0.07 -0.09,-0.01 -0.06,0.25 -0.37,0.4 -0.7,0.4 -0.4,0 -0.49,-0.14 -1.12,-0.14 z m -4.21,2.12 c 0.07,0.09 0.79,1.03 -0.32,1.39 -0.05,0.02 -0.07,0.06 0.01,0.1 0.82,0.34 1.22,-0.29 1.22,-0.29 0.41,0.94 -0.22,1.46 -0.22,1.46 0.09,0.17 0.48,0.45 1.07,0.59 0.22,-0.12 0.54,-0.35 0.67,-0.71 0,0 0.16,0.41 0.01,0.8 1.67,0.15 2.26,-1.18 3.55,-0.94 0.04,0.01 0.05,-0.02 0.05,-0.06 0,-0.82 -0.5,-2.33 -2.1,-2.64 -1.59,-0.31 -1.16,-0.96 -1.16,-0.96 0.67,-0.03 1.06,0.26 1.06,0.26 0.12,-0.2 -0.05,-0.42 -0.05,-0.42 0.06,-0.08 0.1,-0.35 0.1,-0.35 -0.75,0 -0.95,-0.16 -0.95,-0.16 -0.12,-0.45 0.2,-1.08 1.32,-0.4 0.28,-0.25 0.26,-0.63 0.26,-0.63 0.08,-0.04 0.14,-0.17 0.14,-0.23 0,-0.19 -0.9,-0.69 -1.13,-0.75 -0.06,-0.27 -0.4,-0.66 -1.46,-0.52 -0.5,0.06 -0.86,-0.07 -0.69,-0.36 0.03,-0.05 -0.06,-0.06 -0.11,-0.01 -0.12,0.12 -0.27,0.44 0.16,0.66 0.48,0.24 0.51,0.73 0.52,0.8 0.01,0.1 -0.12,0.11 -0.14,0.01 -0.22,-0.82 -1.34,-0.99 -2,-0.56 0.04,0.44 0.51,0.73 0.77,0.73 0.15,0 0.35,-0.15 0.35,-0.35 0,-0.1 0.05,-0.09 0.08,-0.01 0.11,0.29 -0.32,0.89 -0.96,0.53 -0.65,0.65 -0.39,1.46 -0.33,1.75 0.12,0.53 -0.14,1.05 -0.62,0.81 -0.02,-0.01 -0.05,-0.02 -0.05,0.04 0,0.33 0.43,0.71 0.95,0.42 z m 3.58,-3.28 c -0.3,0.34 -0.8,0.26 -0.92,-0.3 0.63,-0.03 0.9,0.03 0.92,0.3 z m 19.4,1.3 c -0.33,0 -0.64,-0.14 -0.7,-0.4 -0.01,-0.06 -0.07,-0.09 -0.09,0.01 -0.16,0.56 0.24,0.83 0.63,0.83 0.43,0 0.67,-0.31 1.28,-0.41 0.27,-0.05 0.45,0 0.45,-0.09 0,-0.08 -0.4,-0.08 -0.45,-0.08 -0.63,0 -0.71,0.14 -1.12,0.14 z m 6.29,1.56 c 0,-0.06 -0.02,-0.05 -0.05,-0.04 -0.48,0.24 -0.74,-0.28 -0.62,-0.81 0.07,-0.3 0.33,-1.1 -0.33,-1.75 -0.64,0.37 -1.07,-0.24 -0.96,-0.53 0.03,-0.08 0.08,-0.09 0.08,0.01 0,0.2 0.21,0.35 0.35,0.35 0.26,0 0.73,-0.29 0.77,-0.73 -0.66,-0.43 -1.78,-0.26 -2,0.56 -0.03,0.1 -0.15,0.09 -0.14,-0.01 0,-0.07 0.03,-0.56 0.52,-0.8 0.44,-0.22 0.28,-0.54 0.16,-0.66 -0.05,-0.05 -0.14,-0.04 -0.11,0.01 0.17,0.29 -0.19,0.42 -0.69,0.36 -1.05,-0.14 -1.4,0.25 -1.46,0.52 -0.23,0.06 -1.13,0.56 -1.13,0.75 0,0.06 0.05,0.19 0.14,0.23 0,0 -0.02,0.38 0.26,0.63 1.12,-0.68 1.43,-0.04 1.32,0.4 0,0 -0.2,0.16 -0.95,0.16 0,0 0.04,0.27 0.1,0.35 0,0 -0.17,0.22 -0.05,0.42 0,0 0.39,-0.29 1.06,-0.26 0,0 0.43,0.65 -1.16,0.96 -1.59,0.31 -2.1,1.81 -2.1,2.64 0,0.04 0.02,0.06 0.05,0.06 1.29,-0.24 1.88,1.1 3.55,0.94 -0.15,-0.39 0.01,-0.8 0.01,-0.8 0.13,0.35 0.45,0.59 0.67,0.71 0.59,-0.13 0.98,-0.42 1.07,-0.59 0,0 -0.63,-0.52 -0.22,-1.46 0,0 0.4,0.63 1.22,0.29 0.07,-0.03 0.06,-0.08 0.01,-0.1 -1.11,-0.36 -0.39,-1.29 -0.32,-1.39 0.52,0.29 0.95,-0.09 0.95,-0.42 z m -3.62,-3.16 c -0.12,0.56 -0.62,0.64 -0.92,0.3 0.03,-0.27 0.3,-0.33 0.92,-0.3 z M 21.71,33.15 c 0,0.14 0.06,0.26 0.11,0.33 0.1,0.14 0.08,0.22 0.04,0.26 -0.05,0.05 -0.12,0.06 -0.26,-0.04 -0.07,-0.05 -0.19,-0.11 -0.33,-0.11 -0.24,0 -0.36,0.16 -0.36,0.29 0,0.14 0.12,0.29 0.36,0.29 0.14,0 0.26,-0.06 0.33,-0.11 0.14,-0.1 0.22,-0.08 0.26,-0.04 0.05,0.05 -0.02,0.53 -0.08,0.91 -0.4,0.08 -0.59,0.4 -0.59,0.59 0,0.48 0.51,0.76 0.82,0.92 0.3,-0.16 0.82,-0.44 0.82,-0.92 0,-0.19 -0.19,-0.51 -0.59,-0.59 -0.05,-0.38 -0.12,-0.87 -0.08,-0.91 0.05,-0.05 0.12,-0.06 0.26,0.04 0.07,0.05 0.19,0.11 0.33,0.11 0.24,0 0.36,-0.16 0.36,-0.29 0,-0.14 -0.12,-0.29 -0.36,-0.29 -0.14,0 -0.26,0.06 -0.33,0.11 -0.14,0.1 -0.22,0.08 -0.26,0.04 -0.05,-0.05 -0.06,-0.12 0.04,-0.26 0.05,-0.07 0.11,-0.19 0.11,-0.33 0,-0.24 -0.16,-0.36 -0.29,-0.36 -0.16,0 -0.31,0.12 -0.31,0.36 z M 22,36.72 c -0.32,0 -0.59,0.26 -0.59,0.59 0,0.32 0.26,0.59 0.59,0.59 0.32,0 0.59,-0.26 0.59,-0.59 0,-0.33 -0.27,-0.59 -0.59,-0.59 z m 0,5.63 c 2.35,0 3.67,0.45 3.67,0.45 0.01,-1.18 0,-1.85 0.68,-1.75 -0.37,-1 1.23,-1.39 1.23,-2.68 0,-0.85 -0.6,-0.95 -0.78,-0.95 -0.53,0 -0.45,0.35 -0.9,0.35 -0.06,0 -0.11,-0.01 -0.11,0.03 0,0.15 0.13,0.4 0.33,0.4 0.28,0 0.28,-0.28 0.49,-0.28 0.09,0 0.22,0.07 0.22,0.36 0,0.55 -0.36,1.16 -0.79,1.64 -0.1,-0.14 -0.23,-0.22 -0.39,-0.22 -0.25,0 -0.47,0.26 -0.47,0.59 0,0.12 0.02,0.21 0.06,0.31 -0.14,0.08 -0.27,0.12 -0.36,0.12 -0.19,0 -0.48,-0.08 -0.48,-0.5 0,-0.94 1.26,-1.77 1.26,-2.96 0,-0.57 -0.38,-1.14 -1.17,-1.14 -0.85,0 -0.69,0.78 -1.43,0.78 -0.03,0 -0.06,0.01 -0.06,0.04 0,0.05 0.13,0.48 0.51,0.48 0.41,0 0.52,-0.71 0.88,-0.71 0.14,0 0.34,0.08 0.34,0.56 0,0.37 -0.18,0.97 -0.45,1.55 -0.1,-0.1 -0.23,-0.17 -0.37,-0.17 -0.32,0 -0.54,0.31 -0.54,0.67 0,0.23 0.09,0.45 0.25,0.6 -0.19,0.24 -0.38,0.43 -0.63,0.43 -0.51,0 -0.73,-0.29 -0.73,-0.6 0,-0.34 0.62,-0.46 0.62,-1 0,-0.36 -0.23,-0.57 -0.46,-0.57 -0.24,0 -0.37,0.16 -0.39,0.16 -0.03,0 -0.15,-0.16 -0.39,-0.16 -0.23,0 -0.46,0.2 -0.46,0.57 0,0.53 0.62,0.66 0.62,1 0,0.31 -0.22,0.6 -0.73,0.6 -0.26,0 -0.45,-0.19 -0.63,-0.43 0.16,-0.15 0.25,-0.37 0.25,-0.6 0,-0.37 -0.23,-0.67 -0.54,-0.67 -0.15,0 -0.28,0.07 -0.37,0.17 -0.26,-0.58 -0.45,-1.18 -0.45,-1.55 0,-0.48 0.2,-0.56 0.34,-0.56 0.36,0 0.48,0.71 0.88,0.71 0.38,0 0.51,-0.43 0.51,-0.48 0,-0.03 -0.03,-0.04 -0.06,-0.04 -0.74,0 -0.58,-0.78 -1.43,-0.78 -0.79,0 -1.17,0.57 -1.17,1.14 0,1.19 1.26,2.02 1.26,2.96 0,0.42 -0.29,0.5 -0.48,0.5 -0.1,0 -0.22,-0.05 -0.36,-0.12 0.04,-0.1 0.06,-0.19 0.06,-0.31 0,-0.33 -0.22,-0.59 -0.47,-0.59 -0.16,0 -0.29,0.08 -0.39,0.22 -0.43,-0.47 -0.79,-1.09 -0.79,-1.64 0,-0.28 0.13,-0.36 0.22,-0.36 0.21,0 0.21,0.28 0.49,0.28 0.21,0 0.33,-0.26 0.33,-0.4 0,-0.04 -0.06,-0.03 -0.11,-0.03 -0.45,0 -0.37,-0.35 -0.9,-0.35 -0.18,0 -0.78,0.1 -0.78,0.95 0,1.3 1.6,1.69 1.23,2.68 0.68,-0.1 0.67,0.56 0.68,1.75 -0.06,0 1.26,-0.45 3.61,-0.45 z m -4.3,1.75 c -0.64,0.14 -1.1,0.27 -1.3,0.33 0.01,-0.28 0.12,-0.54 0.37,-0.6 0.03,-0.01 0.04,-0.05 0.01,-0.07 -0.57,-0.38 -0.87,0.35 -0.88,0.37 -0.2,-0.02 -0.51,0.05 -0.51,0.32 0,0.82 -1.86,1.27 -2.3,1.33 0.76,0.29 1.08,1.25 1.08,1.25 0.55,-0.55 1.2,-1.04 1.34,-1.04 0.15,0 0.2,0.18 0.21,0.29 0,0.04 0.04,0.05 0.06,0.02 0.29,-0.43 0.15,-0.53 0.13,-0.66 -0.02,-0.1 0.01,-0.48 0.43,-0.43 v 5.44 l -0.22,0.04 c -0.1,0.02 -0.89,-0.66 -1.81,-1.29 -0.91,-0.63 -1.4,-0.25 -2.44,0.31 -1.36,0.74 -2.73,0.07 -2.73,0.07 -1.17,0.84 -1.57,3.26 -1.57,3.26 -0.23,0.1 -0.62,0.21 -0.99,0.21 -0.89,0 -1.06,-0.54 -1.06,-0.87 0,-1.38 1.73,-1.97 1.73,-3.33 0,-0.33 -0.15,-1.67 -1.81,-1.67 -0.21,0 -1.48,0 -1.49,0 -0.62,0 -0.78,-0.45 -0.86,-0.62 C 3.06,46.7 3,46.74 3.02,46.79 c 0.05,0.11 -0.07,0.29 -0.07,0.63 0,0.55 0.32,0.88 0.93,0.88 0.28,0 0.53,-0.08 0.62,-0.13 0.06,-0.03 0.09,0.02 0.06,0.05 -0.26,0.31 -0.28,0.88 -0.18,1.02 0.03,0.03 0.06,0.02 0.06,0 0.15,-0.58 0.69,-1.14 1.43,-1.14 0.9,0 0.9,0.77 0.9,0.95 0,1.11 -1.95,1.92 -1.95,3.44 0,1.55 1.63,1.88 2.58,1.63 -0.06,1.55 -1.83,2.07 -1.88,0.97 0,-0.05 -0.04,-0.07 -0.07,0 -0.22,0.55 -0.14,1.03 0.55,1.18 0.05,0.01 0.02,0.04 -0.02,0.07 -0.67,0.45 -0.3,2.16 -0.27,2.66 0.05,0.72 -0.67,0.64 -0.73,0.62 -0.03,-0.01 -0.06,0 -0.01,0.06 0.51,0.62 1.14,0.05 1.14,0.05 0.48,0.15 0.18,0.56 -0.14,0.77 -0.05,0.03 -0.05,0.07 0.01,0.07 0.07,0 0.81,0.07 0.94,-0.52 0.33,0.39 0.81,0.25 0.91,0.2 0.14,-0.07 0.83,-0.32 0.9,0.45 0,0.06 0.04,0.02 0.06,-0.01 0.52,-0.66 -0.04,-1.06 -0.35,-1.11 0.03,-0.04 0.44,-0.38 0.82,0.1 0.03,0.03 0.05,0.04 0.05,-0.03 C 9.35,58.82 8.68,58.74 8.24,59.1 8.22,59.01 8.07,58.55 8.73,58.56 c 0.02,0 0.05,-0.02 0.01,-0.06 -0.51,-0.54 -0.94,-0.05 -1.03,0.07 -0.23,0.27 -0.8,0.16 -0.85,0.16 0.18,-2.89 2.72,-1.87 3.07,-3.27 0.02,-0.07 0.05,-0.05 0.06,-0.02 0.1,0.34 0.96,0.39 1.12,-0.28 0.01,-0.04 0,-0.07 -0.03,-0.04 -0.74,0.74 -2.4,-1.56 -0.13,-3.43 1.93,-1.59 3.67,-0.71 4.32,-0.18 0.03,0.23 -0.1,0.31 -0.19,0.33 -0.03,0.01 -0.04,0.04 0.01,0.06 0.18,0.07 0.44,0.05 0.57,-0.12 0.42,0.29 0.06,0.66 -0.11,0.76 -0.04,0.03 -0.02,0.05 0.01,0.06 0.38,0.07 0.69,-0.32 0.71,-0.54 l 0.06,0.04 v 1.64 c 0,2.34 2.7,2.66 5.66,4.64 2.96,-1.98 5.66,-2.31 5.66,-4.64 V 52.1 l 0.06,-0.04 c 0.02,0.22 0.33,0.61 0.71,0.54 0.04,-0.01 0.05,-0.03 0.01,-0.06 -0.17,-0.1 -0.52,-0.47 -0.11,-0.76 0.12,0.17 0.38,0.19 0.57,0.12 0.05,-0.02 0.04,-0.05 0.01,-0.06 -0.09,-0.03 -0.23,-0.1 -0.19,-0.33 0.66,-0.52 2.39,-1.41 4.32,0.18 2.26,1.87 0.6,4.17 -0.13,3.43 -0.03,-0.03 -0.04,0 -0.03,0.04 0.16,0.68 1.02,0.63 1.12,0.28 0.01,-0.03 0.04,-0.05 0.06,0.02 0.35,1.4 2.9,0.38 3.07,3.27 -0.05,0.01 -0.62,0.11 -0.85,-0.16 -0.1,-0.12 -0.52,-0.61 -1.03,-0.07 -0.03,0.03 0,0.06 0.01,0.06 0.66,-0.02 0.52,0.45 0.49,0.54 -0.44,-0.36 -1.11,-0.29 -1.07,0.55 0,0.07 0.03,0.06 0.05,0.03 0.38,-0.48 0.79,-0.13 0.82,-0.1 -0.31,0.05 -0.87,0.45 -0.35,1.11 0.02,0.03 0.05,0.07 0.06,0.01 0.07,-0.78 0.76,-0.52 0.9,-0.45 0.1,0.05 0.58,0.19 0.91,-0.2 0.13,0.59 0.87,0.52 0.94,0.52 0.05,0 0.06,-0.04 0.01,-0.07 -0.32,-0.21 -0.61,-0.62 -0.14,-0.77 0,0 0.63,0.57 1.14,-0.05 0.04,-0.06 0.02,-0.07 -0.01,-0.06 -0.06,0.02 -0.78,0.11 -0.73,-0.62 0.03,-0.5 0.4,-2.21 -0.28,-2.64 -0.04,-0.03 -0.07,-0.05 -0.02,-0.07 0.69,-0.15 0.78,-0.63 0.55,-1.18 -0.03,-0.07 -0.07,-0.06 -0.07,0 -0.05,1.11 -1.82,0.58 -1.88,-0.97 0.95,0.24 2.58,-0.09 2.58,-1.63 0,-1.52 -1.95,-2.34 -1.95,-3.44 0,-0.19 0,-0.95 0.9,-0.95 0.74,0 1.28,0.55 1.43,1.14 0.01,0.03 0.04,0.04 0.06,0 0.11,-0.14 0.09,-0.72 -0.18,-1.02 -0.03,-0.03 0,-0.08 0.06,-0.05 0.08,0.05 0.34,0.13 0.62,0.13 0.6,0 0.93,-0.33 0.93,-0.88 0,-0.35 -0.12,-0.52 -0.07,-0.63 0.02,-0.05 -0.04,-0.09 -0.07,-0.02 -0.09,0.17 -0.24,0.62 -0.86,0.62 -0.01,0 -1.27,0 -1.49,0 -1.66,0 -1.81,1.34 -1.81,1.67 0,1.36 1.73,1.95 1.73,3.33 0,0.32 -0.16,0.87 -1.06,0.87 -0.37,0 -0.75,-0.1 -0.99,-0.21 0,0 -0.4,-2.42 -1.57,-3.26 0,0 -1.37,0.67 -2.73,-0.07 -1.04,-0.56 -1.53,-0.94 -2.44,-0.31 -0.91,0.63 -1.71,1.31 -1.8,1.29 l -0.22,-0.04 v -5.44 c 0.42,-0.04 0.45,0.33 0.43,0.43 -0.02,0.13 -0.16,0.23 0.13,0.66 0.02,0.03 0.06,0.02 0.06,-0.02 0.01,-0.11 0.07,-0.29 0.21,-0.29 0.14,0 0.79,0.49 1.34,1.04 0,0 0.32,-0.96 1.08,-1.25 -0.43,-0.07 -2.3,-0.52 -2.3,-1.33 0,-0.27 -0.31,-0.34 -0.51,-0.32 -0.01,-0.02 -0.31,-0.75 -0.88,-0.37 -0.03,0.02 -0.02,0.06 0.01,0.07 0.25,0.06 0.36,0.32 0.37,0.6 -0.54,-0.17 -2.86,-0.82 -5.6,-0.82 -1.33,0 -2.56,0.15 -3.54,0.33 v 1.89 H 17.7 V 44.1 l 0,0 M 12.64,63.42 C 12.44,63.34 12.3,63.21 12.3,62.94 V 61.77 C 11.96,61.65 11.05,61.3 9.22,61.3 c -1.52,0 -2,0.34 -2.02,0.46 l -0.4,2.23 c 0,0 0.62,-0.56 2.82,-0.42 2.66,0.17 5.41,1.74 5.41,0.07 v -0.98 c -2.09,0 -2.39,0.66 -2.39,0.76 z m 16.34,-0.76 v 0.98 c 0,1.67 2.75,0.1 5.41,-0.07 2.2,-0.14 2.82,0.42 2.82,0.42 l -0.4,-2.23 c -0.02,-0.12 -0.5,-0.46 -2.02,-0.46 -1.83,0 -2.75,0.35 -3.08,0.47 v 1.17 c 0,0.27 -0.13,0.4 -0.34,0.48 -0.01,-0.1 -0.31,-0.76 -2.39,-0.76 z M 22,61.65 c 4.28,0 8.62,0.22 9.19,0.87 0.05,0.05 0.06,0 0.06,-0.04 l 0,-2.27 c 0,-0.66 -4.48,-1.05 -9.25,-1.05 -4.77,0 -9.25,0.38 -9.25,1.05 l 0,2.27 c 0,0.04 0.02,0.09 0.06,0.04 0.57,-0.65 4.91,-0.87 9.19,-0.87 z m -3.81,-10.69 -0.43,-0.11 -0.04,0.05 -0.5,-0.22 c 0,0 0.37,0 0.45,0 0.04,0 0.04,-0.03 0.02,-0.05 -0.2,-0.2 -0.38,-0.38 -0.38,-0.38 0,0 0.2,0.08 0.5,0.18 0.03,0.01 0.05,-0.01 0.03,-0.03 -0.14,-0.21 -0.33,-0.48 -0.33,-0.48 0,0 0.4,0.27 0.49,0.33 0.03,0.02 0.05,0 0.04,-0.03 -0.11,-0.27 -0.23,-0.57 -0.23,-0.57 l 0.44,0.42 c 0.02,0.02 0.04,0.01 0.04,-0.02 -0.04,-0.2 -0.12,-0.57 -0.12,-0.57 l 0.33,0.48 c 0.02,0.03 0.04,0.02 0.04,-0.01 0,-0.09 0.01,-0.52 0.01,-0.52 0,0 0.14,0.31 0.21,0.48 0.01,0.03 0.04,0.03 0.06,-0.01 0.02,-0.05 0.17,-0.4 0.17,-0.4 l 0.02,0.54 -0.07,0.01 -0.09,0.65 c 0.65,-0.15 1.45,-1.26 2.07,-1.26 0.73,0 1,0.86 2.36,0.42 0.34,0.51 0.46,0.95 0.59,1.56 0.52,0.49 1.26,0.33 1.26,-0.19 0,-0.7 -0.77,-0.84 -0.77,-1.57 0,-0.33 0.23,-0.8 0.86,-0.8 0.33,0 0.82,0.14 1.1,0.14 0.33,0 0.4,-0.24 0.44,-0.34 0.03,-0.07 0.12,-0.05 0.11,0.01 -0.01,0.07 0.04,0.16 0.04,0.32 0,0.46 -0.68,0.52 -0.76,0.47 -0.03,-0.02 -0.06,0.01 -0.03,0.03 0.1,0.08 0.08,0.36 -0.04,0.53 -0.01,0.02 -0.03,0.02 -0.04,0 -0.07,-0.33 -0.46,-0.74 -0.81,-0.74 -0.13,0 -0.38,0.07 -0.38,0.37 0,0.42 0.84,0.8 0.84,1.66 0,0.9 -0.89,1.11 -1.79,0.89 0.03,0.85 1.3,1.36 1.33,0.75 0,-0.04 0.02,-0.02 0.04,0 0.19,0.26 0.1,0.46 -0.14,0.56 0.22,0.1 0.26,0.55 0.33,0.81 0.1,0.4 0.52,0.18 0.54,0.17 0.02,-0.01 0.03,0 0.02,0.02 -0.16,0.42 -0.59,0.26 -0.59,0.26 -0.22,0.16 0.05,0.3 0.25,0.36 0.03,0.01 0.03,0.03 0,0.04 -0.15,0.05 -0.47,0.15 -0.62,-0.11 -0.11,0.28 -0.35,0.27 -0.44,0.27 -0.16,0 -0.27,0.17 -0.23,0.39 0,0.02 -0.01,0.03 -0.03,0.01 -0.39,-0.26 -0.17,-0.56 -0.01,-0.64 -0.03,-0.02 -0.3,-0.13 -0.41,0.19 -0.01,0.02 -0.02,0.03 -0.03,0 -0.17,-0.45 0.2,-0.59 0.47,-0.47 -0.02,-0.06 -0.16,-0.29 -0.51,-0.21 -0.02,0 -0.03,0 -0.02,-0.02 0.06,-0.14 0.23,-0.34 0.55,-0.14 0.16,0.1 0.45,-0.05 0.47,-0.06 -0.57,-1.13 -1.67,-0.18 -1.92,-1.07 0,-0.02 -0.03,-0.03 -0.04,0.01 -0.06,0.19 -0.54,0.2 -0.63,-0.17 -0.01,-0.03 0,-0.03 0.02,-0.01 0.07,0.07 0.22,0.14 0.42,-0.15 0.13,-0.19 0.15,-0.44 0.15,-0.62 0,-0.69 -0.69,-1.84 -1.76,-1.84 -0.68,0 -1.41,0.26 -1.95,0.66 l 0.5,0.12 c -0.05,0.51 -0.54,0.81 -0.99,0.68 l 0.08,-0.58 c -0.08,0.02 -0.28,0.09 -0.38,0.24 -0.01,0.01 -0.02,0.01 -0.03,0 -0.09,-0.33 0.18,-0.5 0.27,-0.54 0.01,-0.01 0.01,-0.01 -0.01,-0.01 -0.24,-0.01 -0.38,0.17 -0.42,0.23 -0.01,0.01 -0.02,0.01 -0.02,0 -0.05,-0.08 -0.09,-0.25 0.03,-0.37 z m 1.49,3.93 c -0.19,0.24 -0.36,0.01 -0.62,0.01 -0.24,0 -0.28,0.2 -0.28,0.28 0,0.01 -0.01,0.02 -0.02,0 -0.27,-0.37 0.03,-0.57 0.21,-0.6 -0.03,-0.03 -0.29,-0.2 -0.46,0.04 -0.01,0.02 -0.03,0.01 -0.03,-0.01 -0.01,-0.46 0.35,-0.49 0.59,-0.29 0.04,-0.17 -0.07,-0.29 -0.26,-0.3 -0.02,0 -0.03,-0.02 -0.02,-0.03 0.08,-0.09 0.16,-0.13 0.24,-0.13 0.25,0 0.29,0.32 0.45,0.32 0.25,0 0.6,-0.34 0.64,-0.37 -0.01,-0.02 -0.25,-0.66 -0.2,-1.05 0,-0.02 -0.01,-0.02 -0.02,-0.01 -0.12,0.07 -0.43,0.07 -0.43,-0.31 0,-0.03 0.01,-0.03 0.03,-0.01 0.13,0.19 0.35,-0.02 0.46,-0.15 0.12,-0.13 0.75,-1.04 1.58,-1.04 0.18,0 0.42,0.1 0.61,0.23 -0.29,0.35 0,0.69 0.21,0.65 0.03,0 0.03,0.02 0.01,0.03 -1.11,0.42 -1.6,0.58 -1.6,1.51 0,0.48 0.17,0.75 0.45,0.69 0.02,-0.01 0.03,0 0.01,0.02 -0.1,0.12 -0.22,0.16 -0.32,0.16 -0.23,0 -0.27,-0.13 -0.39,-0.13 -0.13,0 -0.54,0.24 -0.54,0.45 0,0.08 0.05,0.18 0.19,0.28 0.01,0.01 0,0.01 0,0.02 -0.09,0.03 -0.41,0.05 -0.49,-0.26 z m 2.92,-9.01 c -0.35,-0.02 -0.57,0.06 -0.56,0.17 0.17,0.18 0.39,0.16 0.56,-0.17 z m -1.28,0.86 c 0.24,-0.06 0.51,-0.03 0.54,-0.02 0.04,0.01 0.04,0.07 -0.01,0.08 -0.51,0.07 -0.53,0.3 -0.86,0.3 -0.21,0 -0.45,-0.22 -0.36,-0.53 0.01,-0.04 0.04,-0.04 0.05,0 0.04,0.12 0.24,0.27 0.64,0.17 z m -6.62,11.3 c 0.34,0.43 0.66,0.03 1.1,0.03 0.22,0 0.48,0.07 0.53,0.51 0,0.02 0.02,0.03 0.04,0 0.48,-0.66 -0.07,-1.03 -0.38,-1.08 0.07,-0.06 0.54,-0.35 0.84,0.08 0.02,0.02 0.05,0.02 0.05,-0.02 0,-0.83 -0.63,-0.89 -1.08,-0.53 -0.09,-0.33 0.16,-0.54 0.48,-0.54 0.04,0 0.05,-0.03 0.03,-0.05 -0.56,-0.6 -0.98,0.15 -1.07,0.27 -0.22,0.3 -1.02,-0.26 -1.34,-0.59 0,0 0.71,-0.74 0.71,-1.42 0,-0.04 0,-0.1 0,-0.12 0,-0.02 0.01,-0.03 0.03,-0.02 0.07,0.04 0.17,0.07 0.26,0.07 0.16,0 0.47,-0.05 0.47,-0.62 0,-0.04 -0.02,-0.04 -0.04,-0.02 -0.08,0.12 -0.18,0.15 -0.25,0.15 -0.57,0 -1.76,-1.9 -3.16,-1.9 -0.37,0 -1.06,0.26 -1.41,0.64 0.17,0.1 0.2,0.31 0.18,0.46 -0.03,0.24 -0.22,0.36 -0.41,0.42 -0.03,0.01 -0.04,0.03 0,0.05 0.71,0.27 2,0.76 2.29,1.01 0.35,0.3 0.28,0.87 0.08,1.65 -0.19,0.75 -0.61,0.65 -0.76,0.62 -0.02,0 -0.03,0.01 -0.02,0.03 0.18,0.23 0.41,0.31 0.6,0.31 0.37,0 0.51,-0.23 0.7,-0.23 0.32,0 0.99,0.46 0.99,0.81 0,0.2 -0.15,0.37 -0.35,0.5 -0.01,0.01 -0.01,0.02 0.01,0.03 0.13,0.01 0.76,0.06 0.88,-0.5 z m 15.5,0.49 c 0.02,0 0.02,-0.02 0.01,-0.03 -0.2,-0.13 -0.35,-0.31 -0.35,-0.5 0,-0.35 0.67,-0.81 0.99,-0.81 0.19,0 0.33,0.23 0.7,0.23 0.19,0 0.41,-0.08 0.6,-0.31 0.01,-0.02 0.01,-0.03 -0.02,-0.03 -0.15,0.02 -0.57,0.13 -0.76,-0.62 -0.2,-0.78 -0.27,-1.35 0.08,-1.65 0.29,-0.25 1.58,-0.74 2.29,-1.01 0.04,-0.02 0.03,-0.04 0,-0.05 -0.2,-0.05 -0.39,-0.17 -0.41,-0.42 -0.02,-0.15 0.01,-0.36 0.18,-0.46 -0.35,-0.38 -1.04,-0.64 -1.41,-0.64 -1.4,0 -2.59,1.9 -3.16,1.9 -0.07,0 -0.16,-0.03 -0.25,-0.15 -0.02,-0.03 -0.04,-0.03 -0.04,0.02 0,0.57 0.3,0.62 0.47,0.62 0.09,0 0.19,-0.03 0.26,-0.07 0.02,-0.01 0.03,0 0.03,0.02 0,0.02 0,0.08 0,0.12 0,0.68 0.71,1.42 0.71,1.42 C 29.8,56.44 29,57 28.78,56.7 c -0.1,-0.12 -0.51,-0.87 -1.07,-0.27 -0.02,0.02 -0.01,0.05 0.03,0.05 0.31,0 0.56,0.21 0.48,0.54 -0.45,-0.36 -1.08,-0.3 -1.08,0.53 0,0.03 0.03,0.04 0.05,0.02 0.3,-0.43 0.77,-0.14 0.84,-0.08 -0.32,0.05 -0.87,0.42 -0.38,1.08 0.02,0.03 0.04,0.02 0.04,0 0.05,-0.43 0.31,-0.51 0.53,-0.51 0.44,0 0.77,0.41 1.1,-0.03 0.1,0.57 0.73,0.52 0.88,0.5 z M 18.85,47.56 c -0.04,0.06 -0.19,0 -0.25,-0.03 -0.01,-0.01 -0.02,0 -0.01,0.01 0.04,0.08 0.18,0.32 0.39,0.32 0.1,0 0.23,-0.06 0.27,-0.12 0,0 0.83,0.27 1.23,0.38 -0.16,0.21 -0.26,0.47 -0.28,0.74 -0.33,-0.2 -1.65,-0.91 -1.65,-0.91 l -0.41,0.56 c -0.07,0.09 -0.39,-0.15 -0.33,-0.24 l 0.31,-0.43 c -0.1,-0.11 -0.35,-0.04 -0.42,-0.02 -0.01,0 -0.02,0 -0.01,-0.02 0.04,-0.08 0.19,-0.34 0.58,-0.23 0,-0.24 -0.35,-0.16 -0.44,-0.14 -0.01,0 -0.01,0 0,-0.01 0.1,-0.1 0.38,-0.33 0.7,-0.14 l 0.14,-0.19 -0.28,-0.3 0.18,-0.24 0.2,0.27 1.52,-2.08 c 0.04,-0.05 0.34,-0.14 0.45,-0.16 0.01,0.12 0.02,0.43 -0.01,0.48 l -1.5,2.1 0.32,0.1 -0.17,0.24 -0.37,-0.17 -0.16,0.23 z m 5.33,-0.34 c 0,0.19 0.12,0.47 0.37,0.39 0.01,-0.01 0.02,0 0.02,0.01 -0.04,0.21 -0.42,0.41 -0.59,0.16 -0.15,0.33 -0.12,0.63 0.21,0.81 0.02,0.01 0.02,0.03 0,0.05 -0.2,0.14 -0.51,0.11 -0.65,-0.17 -0.27,0.21 -0.23,0.64 -0.07,0.79 0,0 -0.76,0.45 -1.44,0.13 -0.45,-0.22 -0.82,-0.5 -1.41,-0.45 0.08,-0.82 0.49,-1.04 1.25,-1.16 0.6,-0.1 0.68,-0.38 0.59,-0.59 -0.21,-0.05 -0.58,0.13 -0.58,0.13 -0.07,-0.11 0.03,-0.23 0.03,-0.23 -0.04,-0.05 -0.06,-0.2 -0.06,-0.2 0.42,0 0.5,-0.09 0.5,-0.09 0.08,-0.44 -0.37,-0.49 -0.71,-0.25 -0.16,-0.14 -0.13,-0.33 -0.13,-0.33 -0.05,-0.02 -0.08,-0.1 -0.08,-0.13 0,-0.1 0.5,-0.39 0.63,-0.42 0.03,-0.15 0.21,-0.35 0.75,-0.3 0.06,-0.14 -0.04,-0.66 -0.1,-0.79 -0.02,-0.04 0.01,-0.07 0.06,-0.04 0.19,0.12 0.37,0.55 0.5,0.56 0,0 0.6,-0.31 0.63,-0.3 0.03,0.02 0.11,0.68 0.11,0.68 0.08,0.1 0.54,0 0.74,0.09 0.05,0.02 0.05,0.06 0,0.07 -0.15,0.03 -0.63,0.23 -0.71,0.37 0.27,0.43 0.14,1.04 0.14,1.21 z"
                   inkscape:connector-curvature="0" /></g></g></g></g></g></g><g
       style="fill:#000000"
       id="g25" /><g
       style="font-size:16px;font-style:normal;font-variant:normal;font-weight:normal;font-stretch:normal;line-height:125%;letter-spacing:0px;word-spacing:0px;fill:#000000;fill-opacity:1;stroke:none;font-family:RijksoverheidSerifWeb;-inkscape-font-specification:RijksoverheidSerifWeb"
       id="text3355"><path
         d="m 53.644342,46.065105 0,-0.252 c 0.261332,-0.07467 0.457332,-0.177332 0.588,-0.308 0.139999,-0.139999 0.219332,-0.312665 0.238,-0.518 l 0.616,-7.154 -0.812,-0.238 0,-0.406 c 0.317332,-0.03732 0.648665,-0.06066 0.994,-0.07 0.354664,-0.01866 0.657997,-0.02799 0.91,-0.028 l 0.504,0 2.198,6.79 0.014,0 2.128,-6.79 0.602,0 c 0.251991,9e-6 0.527324,0.0093 0.826,0.028 0.298657,0.0093 0.58799,0.03268 0.868,0.07 l 0,0.406 -0.868,0.21 0.616,7.7 0.812,0.154 0,0.308 c -0.168011,0.07467 -0.368677,0.130667 -0.602,0.168 -0.233343,0.04667 -0.485343,0.07 -0.756,0.07 -0.317342,0 -0.592676,-0.0093 -0.826,-0.028 -0.233342,-0.01867 -0.471342,-0.056 -0.714,-0.112 l 0,-0.266 c 0.289325,-0.06533 0.499325,-0.186666 0.63,-0.364 0.139991,-0.177332 0.205325,-0.410665 0.196,-0.7 l -0.35,-6.356 -0.028,0 -2.492,7.77 -0.546,0.07 -2.52,-7.826 -0.014,0.014 -0.434,7.014 0.91,0.238 0,0.308 c -0.29867,0.09333 -0.560003,0.154 -0.784,0.182 -0.214669,0.03733 -0.490002,0.056 -0.826,0.056 -0.158668,0 -0.336001,-0.014 -0.532,-0.042 -0.186668,-0.028 -0.368667,-0.06067 -0.546,-0.098"
         style="font-size:14px"
         id="path2996" /><path
         d="m 66.249154,38.113105 c -0.205335,8e-6 -0.382668,-0.07466 -0.532,-0.224 -0.140001,-0.149325 -0.210001,-0.340658 -0.21,-0.574 -10e-7,-0.214657 0.07,-0.40599 0.21,-0.574 0.149332,-0.16799 0.345332,-0.25199 0.588,-0.252 0.195998,10e-6 0.363998,0.07001 0.504,0.21 0.149331,0.130676 0.223997,0.312676 0.224,0.546 -3e-6,0.242676 -0.07467,0.448009 -0.224,0.616 -0.149336,0.168008 -0.336002,0.252008 -0.56,0.252 m -1.33,7.952 0,-0.238 c 0.186666,-0.06533 0.354666,-0.163332 0.504,-0.294 0.158666,-0.139999 0.237999,-0.293999 0.238,-0.462 l 0,-4.732 -0.896,-0.378 0,-0.294 c 0.317333,-0.09333 0.625332,-0.15866 0.924,-0.196 0.298665,-0.04666 0.545998,-0.06999 0.742,-0.07 l 0.448,0 -0.07,0.756 0,5.32 0.784,0.21 0,0.266 c -0.233336,0.084 -0.476003,0.144667 -0.728,0.182 -0.242669,0.03733 -0.541335,0.056 -0.896,0.056 -0.158668,0 -0.336001,-0.0093 -0.532,-0.028 -0.186667,-0.01867 -0.359334,-0.05133 -0.518,-0.098"
         style="font-size:14px"
         id="path2998" /><path
         d="m 68.719935,46.065105 0,-0.238 c 0.177333,-0.06533 0.345333,-0.163332 0.504,-0.294 0.158666,-0.139999 0.237999,-0.293999 0.238,-0.462 l 0,-4.732 -0.91,-0.378 0,-0.308 c 0.317333,-0.09333 0.625333,-0.15866 0.924,-0.196 0.298665,-0.03733 0.550665,-0.05599 0.756,-0.056 l 0.336,0 0,0.756 c 0.233331,-0.233327 0.536664,-0.419993 0.91,-0.56 0.37333,-0.149326 0.760663,-0.223993 1.162,-0.224 0.578662,7e-6 1.049995,0.186674 1.414,0.56 0.363994,0.364006 0.545994,0.905339 0.546,1.624 l 0,3.92 0.728,0.21 0,0.266 c -0.186673,0.07467 -0.406006,0.130667 -0.658,0.168 -0.242673,0.04667 -0.513339,0.07 -0.812,0.07 -0.149339,0 -0.303338,-0.0093 -0.462,-0.028 -0.158671,-0.01867 -0.308005,-0.05133 -0.448,-0.098 l 0,-0.238 c 0.177329,-0.07467 0.303329,-0.181999 0.378,-0.322 0.084,-0.149332 0.125995,-0.349999 0.126,-0.602 l 0,-2.674 c -5e-6,-0.681328 -0.130672,-1.166661 -0.392,-1.456 -0.261338,-0.289327 -0.597337,-0.433994 -1.008,-0.434 -0.289337,6e-6 -0.56467,0.04201 -0.826,0.126 -0.261336,0.08401 -0.466669,0.186673 -0.616,0.308 l 0,4.704 0.784,0.21 0,0.266 c -0.233336,0.084 -0.476002,0.144667 -0.728,0.182 -0.252002,0.03733 -0.550668,0.056 -0.896,0.056 -0.168001,0 -0.345334,-0.0093 -0.532,-0.028 -0.186667,-0.01867 -0.359334,-0.05133 -0.518,-0.098"
         style="font-size:14px"
         id="path3000" /><path
         d="m 77.760873,38.113105 c -0.205335,8e-6 -0.382668,-0.07466 -0.532,-0.224 -0.140001,-0.149325 -0.210001,-0.340658 -0.21,-0.574 -10e-7,-0.214657 0.07,-0.40599 0.21,-0.574 0.149332,-0.16799 0.345331,-0.25199 0.588,-0.252 0.195998,10e-6 0.363998,0.07001 0.504,0.21 0.149331,0.130676 0.223997,0.312676 0.224,0.546 -3e-6,0.242676 -0.07467,0.448009 -0.224,0.616 -0.149336,0.168008 -0.336002,0.252008 -0.56,0.252 m -1.33,7.952 0,-0.238 c 0.186666,-0.06533 0.354666,-0.163332 0.504,-0.294 0.158665,-0.139999 0.237999,-0.293999 0.238,-0.462 l 0,-4.732 -0.896,-0.378 0,-0.294 c 0.317332,-0.09333 0.625332,-0.15866 0.924,-0.196 0.298665,-0.04666 0.545998,-0.06999 0.742,-0.07 l 0.448,0 -0.07,0.756 0,5.32 0.784,0.21 0,0.266 c -0.233337,0.084 -0.476003,0.144667 -0.728,0.182 -0.242669,0.03733 -0.541335,0.056 -0.896,0.056 -0.158668,0 -0.336001,-0.0093 -0.532,-0.028 -0.186668,-0.01867 -0.359334,-0.05133 -0.518,-0.098"
         style="font-size:14px"
         id="path3002" /><path
         d="m 80.021654,45.127105 c 0,-0.09333 0.0093,-0.191332 0.028,-0.294 0.028,-0.111998 0.06067,-0.205331 0.098,-0.28 0.317333,0.289335 0.629999,0.508668 0.938,0.658 0.317332,0.149334 0.662665,0.224001 1.036,0.224 0.391997,10e-7 0.685997,-0.084 0.882,-0.252 0.20533,-0.167999 0.307996,-0.373332 0.308,-0.616 -4e-6,-0.242664 -0.08867,-0.452664 -0.266,-0.63 -0.168003,-0.177331 -0.480669,-0.363997 -0.938,-0.56 l -0.7,-0.294 c -0.401335,-0.17733 -0.714001,-0.410663 -0.938,-0.7 -0.214667,-0.289329 -0.322,-0.634662 -0.322,-1.036 0,-0.550661 0.223999,-1.031327 0.672,-1.442 0.447998,-0.41066 1.035998,-0.615993 1.764,-0.616 0.559997,7e-6 0.96133,0.07934 1.204,0.238 0.242662,0.158673 0.363996,0.368673 0.364,0.63 -4e-6,0.102673 -0.0093,0.205339 -0.028,0.308 -0.0093,0.09334 -0.02334,0.186673 -0.042,0.28 -0.224004,-0.149327 -0.480671,-0.275327 -0.77,-0.378 -0.289337,-0.10266 -0.56467,-0.153994 -0.826,-0.154 -0.448002,6e-6 -0.779335,0.08867 -0.994,0.266 -0.214668,0.168006 -0.322001,0.368672 -0.322,0.602 -10e-7,0.252005 0.07467,0.462005 0.224,0.63 0.158665,0.158671 0.447998,0.317338 0.868,0.476 l 0.756,0.294 c 0.503996,0.196004 0.858663,0.434004 1.064,0.714 0.214662,0.27067 0.321995,0.611336 0.322,1.022 -5e-6,0.532002 -0.238004,1.008001 -0.714,1.428 -0.476003,0.42 -1.106003,0.63 -1.89,0.63 -0.616001,0 -1.068668,-0.098 -1.358,-0.294 -0.28,-0.195999 -0.42,-0.480666 -0.42,-0.854"
         style="font-size:14px"
         id="path3004" /><path
         d="m 85.959623,44.301105 c -10e-7,-0.335997 0.0047,-0.68133 0.014,-1.036 0.0093,-0.363996 0.01866,-0.704663 0.028,-1.022 l 0.042,-1.862 -0.77,0 0,-0.462 1.512,-1.498 0.462,-0.056 -0.056,1.26 1.848,0 -0.098,0.756 -1.792,0 -0.028,1.764 c -0.0093,0.289337 -0.014,0.569337 -0.014,0.84 -2e-6,0.27067 -2e-6,0.53667 0,0.798 -2e-6,0.560002 0.07466,0.956668 0.224,1.19 0.158664,0.224001 0.368664,0.336001 0.63,0.336 0.20533,10e-7 0.391996,-0.03267 0.56,-0.098 0.177329,-0.06533 0.335996,-0.153999 0.476,-0.266 l 0.14,0.056 c -0.028,0.410668 -0.168004,0.723334 -0.42,0.938 -0.252004,0.205334 -0.616003,0.308 -1.092,0.308 -0.560002,0 -0.980002,-0.154 -1.26,-0.462 -0.270668,-0.317332 -0.406001,-0.811998 -0.406,-1.484"
         style="font-size:14px"
         id="path3006" /><path
         d="m 89.621279,43.069105 c 0,-1.213329 0.303333,-2.141994 0.91,-2.786 0.615998,-0.653326 1.287997,-0.979993 2.016,-0.98 0.755996,7e-6 1.348662,0.238007 1.778,0.714 0.429328,0.466673 0.643994,1.101339 0.644,1.904 -6e-6,0.130671 -6e-6,0.270671 0,0.42 -6e-6,0.140004 -0.0047,0.298671 -0.014,0.476 l -4.13,0 c -2e-6,0.784003 0.200665,1.395336 0.602,1.834 0.401331,0.429335 0.89133,0.644001 1.47,0.644 0.345329,10e-7 0.695329,-0.056 1.05,-0.168 0.354662,-0.111999 0.662661,-0.256665 0.924,-0.434 0.0093,0.03733 0.01866,0.09333 0.028,0.168 0.01866,0.06533 0.02799,0.130668 0.028,0.196 -6e-6,0.317334 -0.219339,0.602001 -0.658,0.854 -0.429338,0.242667 -1.012671,0.364 -1.75,0.364 -0.793336,0 -1.474668,-0.289333 -2.044,-0.868 -0.569334,-0.587998 -0.854,-1.367331 -0.854,-2.338 m 1.232,-0.98 2.996,0 c -5e-6,-0.681328 -0.135338,-1.189994 -0.406,-1.526 -0.261337,-0.335994 -0.597337,-0.503994 -1.008,-0.504 -0.382669,6e-6 -0.742002,0.200673 -1.078,0.602 -0.336002,0.401339 -0.504002,0.877338 -0.504,1.428"
         style="font-size:14px"
         id="path3008" /><path
         d="m 96.091029,46.065105 0,-0.238 c 0.177333,-0.06533 0.345333,-0.163332 0.504,-0.294 0.158666,-0.139999 0.237999,-0.293999 0.238,-0.462 l 0,-4.732 -0.91,-0.378 0,-0.308 c 0.317333,-0.09333 0.625332,-0.15866 0.924,-0.196 0.298665,-0.03733 0.550665,-0.05599 0.756,-0.056 l 0.336,0 0,0.98 0.014,0 0.392,-0.434 c 0.186664,-0.205327 0.377997,-0.359326 0.574,-0.462 0.20533,-0.10266 0.424663,-0.153993 0.658,-0.154 0.242662,7e-6 0.424661,0.05134 0.546001,0.154 0.12133,0.102674 0.18199,0.252007 0.182,0.448 -1e-5,0.130673 -0.0233,0.270673 -0.07,0.42 -0.0373,0.149339 -0.0887,0.289339 -0.154,0.42 -0.130672,-0.102661 -0.270672,-0.181994 -0.420001,-0.238 -0.149337,-0.05599 -0.29867,-0.08399 -0.448,-0.084 -0.21467,6e-6 -0.42467,0.05134 -0.63,0.154 -0.205336,0.09334 -0.406003,0.233339 -0.602,0.42 l 0,4.452 0.966,0.21 0,0.266 c -0.233336,0.084 -0.48067,0.144667 -0.742,0.182 -0.261336,0.03733 -0.592669,0.056 -0.994,0.056 -0.205335,0 -0.406001,-0.0093 -0.602,-0.028 -0.186667,-0.01867 -0.359334,-0.05133 -0.518,-0.098"
         style="font-size:14px"
         id="path3010" /><path
         d="m 102.12415,38.113105 c -0.20533,8e-6 -0.38266,-0.07466 -0.532,-0.224 -0.14,-0.149325 -0.21,-0.340658 -0.21,-0.574 0,-0.214657 0.07,-0.40599 0.21,-0.574 0.14934,-0.16799 0.34534,-0.25199 0.588,-0.252 0.196,10e-6 0.364,0.07001 0.504,0.21 0.14933,0.130676 0.224,0.312676 0.224,0.546 0,0.242676 -0.0747,0.448009 -0.224,0.616 -0.14933,0.168008 -0.336,0.252008 -0.56,0.252 m -1.33,7.952 0,-0.238 c 0.18667,-0.06533 0.35467,-0.163332 0.504,-0.294 0.15867,-0.139999 0.238,-0.293999 0.238,-0.462 l 0,-4.732 -0.896,-0.378 0,-0.294 c 0.31734,-0.09333 0.62534,-0.15866 0.924,-0.196 0.29867,-0.04666 0.546,-0.06999 0.742,-0.07 l 0.448,0 -0.07,0.756 0,5.32 0.784,0.21 0,0.266 c -0.23333,0.084 -0.476,0.144667 -0.728,0.182 -0.24266,0.03733 -0.54133,0.056 -0.896,0.056 -0.15866,0 -0.336,-0.0093 -0.532,-0.028 -0.18666,-0.01867 -0.35933,-0.05133 -0.518,-0.098"
         style="font-size:14px"
         id="path3012" /><path
         d="m 104.46894,43.069105 c -1e-5,-1.213329 0.30333,-2.141994 0.91,-2.786 0.61599,-0.653326 1.28799,-0.979993 2.016,-0.98 0.75599,7e-6 1.34866,0.238007 1.778,0.714 0.42932,0.466673 0.64399,1.101339 0.644,1.904 -1e-5,0.130671 -1e-5,0.270671 0,0.42 -1e-5,0.140004 -0.005,0.298671 -0.014,0.476 l -4.13,0 c -1e-5,0.784003 0.20066,1.395336 0.602,1.834 0.40133,0.429335 0.89133,0.644001 1.47,0.644 0.34532,10e-7 0.69532,-0.056 1.05,-0.168 0.35466,-0.111999 0.66266,-0.256665 0.924,-0.434 0.009,0.03733 0.0187,0.09333 0.028,0.168 0.0187,0.06533 0.028,0.130668 0.028,0.196 -1e-5,0.317334 -0.21934,0.602001 -0.658,0.854 -0.42934,0.242667 -1.01268,0.364 -1.75,0.364 -0.79334,0 -1.47467,-0.289333 -2.044,-0.868 -0.56934,-0.587998 -0.85401,-1.367331 -0.854,-2.338 m 1.232,-0.98 2.996,0 c -1e-5,-0.681328 -0.13534,-1.189994 -0.406,-1.526 -0.26134,-0.335994 -0.59734,-0.503994 -1.008,-0.504 -0.38267,6e-6 -0.74201,0.200673 -1.078,0.602 -0.33601,0.401339 -0.50401,0.877338 -0.504,1.428"
         style="font-size:14px"
         id="path3014" /><path
         d="m 115.68906,46.261105 -2.38,-6.118 -0.574,-0.406 0,-0.336 2.674,0 0,0.336 -0.798,0.336 1.512,4.438 0.014,0 1.554,-4.396 -0.798,-0.378 0,-0.336 2.156,0 0,0.336 -0.392,0.322 -2.492,6.174 -0.476,0.028"
         style="font-size:14px"
         id="path3016" /><path
         d="m 119.27394,44.721105 c -1e-5,-0.615998 0.32199,-1.147997 0.966,-1.596 0.64399,-0.457329 1.53533,-0.685996 2.674,-0.686 l 0,-0.378 c -1e-5,-0.755995 -0.098,-1.250661 -0.294,-1.484 -0.19601,-0.233327 -0.51334,-0.349994 -0.952,-0.35 -0.38267,6e-6 -0.75601,0.07934 -1.12,0.238 -0.36401,0.158673 -0.69067,0.382672 -0.98,0.672 -0.009,-0.06533 -0.0187,-0.130661 -0.028,-0.196 -0.009,-0.07466 -0.014,-0.149328 -0.014,-0.224 -1e-5,-0.447994 0.17733,-0.793327 0.532,-1.036 0.36399,-0.251993 0.95199,-0.377993 1.764,-0.378 0.69999,7e-6 1.25066,0.168007 1.652,0.504 0.40132,0.336006 0.60199,0.793339 0.602,1.372 -1e-5,0.149339 -0.009,0.373338 -0.028,0.672 -0.009,0.289338 -0.0187,0.536671 -0.028,0.742 l -0.042,2.268 c 0.0467,0.121335 0.12132,0.247335 0.224,0.378 0.10266,0.130668 0.21466,0.242668 0.336,0.336 -0.10268,0.121334 -0.24268,0.247334 -0.42,0.378 -0.17734,0.130667 -0.35468,0.242667 -0.532,0.336 -0.13068,-0.084 -0.25201,-0.182 -0.364,-0.294 -0.10268,-0.111999 -0.19601,-0.242666 -0.28,-0.392 -0.19601,0.186667 -0.46667,0.345334 -0.812,0.476 -0.34534,0.130667 -0.70467,0.196 -1.078,0.196 -0.52267,0 -0.95201,-0.144666 -1.288,-0.434 -0.32667,-0.298666 -0.49001,-0.671999 -0.49,-1.12 m 1.204,-0.21 c -1e-5,0.280002 0.0933,0.504001 0.28,0.672 0.18666,0.168001 0.45733,0.252001 0.812,0.252 0.21466,10e-7 0.44799,-0.03733 0.7,-0.112 0.25199,-0.07466 0.46666,-0.163332 0.644,-0.266 l 0,-1.96 c -0.78401,3e-6 -1.38601,0.14467 -1.806,0.434 -0.42001,0.280003 -0.63001,0.606669 -0.63,0.98"
         style="font-size:14px"
         id="path3018" /><path
         d="m 125.73165,46.065105 0,-0.238 c 0.17734,-0.06533 0.34534,-0.163332 0.504,-0.294 0.15867,-0.139999 0.238,-0.293999 0.238,-0.462 l 0,-4.732 -0.91,-0.378 0,-0.308 c 0.31734,-0.09333 0.62534,-0.15866 0.924,-0.196 0.29867,-0.03733 0.55067,-0.05599 0.756,-0.056 l 0.336,0 0,0.756 c 0.23333,-0.233327 0.53667,-0.419993 0.91,-0.56 0.37333,-0.149326 0.76067,-0.223993 1.162,-0.224 0.57867,7e-6 1.05,0.186674 1.414,0.56 0.364,0.364006 0.546,0.905339 0.546,1.624 l 0,3.92 0.728,0.21 0,0.266 c -0.18667,0.07467 -0.406,0.130667 -0.658,0.168 -0.24267,0.04667 -0.51334,0.07 -0.812,0.07 -0.14933,0 -0.30333,-0.0093 -0.462,-0.028 -0.15867,-0.01867 -0.308,-0.05133 -0.448,-0.098 l 0,-0.238 c 0.17733,-0.07467 0.30333,-0.181999 0.378,-0.322 0.084,-0.149332 0.126,-0.349999 0.126,-0.602 l 0,-2.674 c 0,-0.681328 -0.13067,-1.166661 -0.392,-1.456 -0.26133,-0.289327 -0.59733,-0.433994 -1.008,-0.434 -0.28933,6e-6 -0.56467,0.04201 -0.826,0.126 -0.26133,0.08401 -0.46667,0.186673 -0.616,0.308 l 0,4.704 0.784,0.21 0,0.266 c -0.23333,0.084 -0.476,0.144667 -0.728,0.182 -0.252,0.03733 -0.55066,0.056 -0.896,0.056 -0.168,0 -0.34533,-0.0093 -0.532,-0.028 -0.18666,-0.01867 -0.35933,-0.05133 -0.518,-0.098"
         style="font-size:14px"
         id="path3020" /><path
         d="m 136.19097,46.065105 0,-0.266 c 0.23333,-0.06533 0.42466,-0.172666 0.574,-0.322 0.15866,-0.158665 0.238,-0.410665 0.238,-0.756 l 0,-6.888 -0.882,-0.224 0,-0.308 c 0.28933,-0.07466 0.56466,-0.130657 0.826,-0.168 0.26133,-0.03732 0.52266,-0.05599 0.784,-0.056 0.26133,9e-6 0.49466,0.01401 0.7,0.042 0.20533,0.01868 0.40599,0.05134 0.602,0.098 l 0,0.266 c -0.29867,0.08401 -0.50867,0.205342 -0.63,0.364 -0.12134,0.149342 -0.18201,0.364008 -0.182,0.644 l 0,6.944 0.882,0.224 0,0.308 c -0.23334,0.06533 -0.48534,0.121334 -0.756,0.168 -0.27067,0.04667 -0.55534,0.07 -0.854,0.07 -0.28001,0 -0.52267,-0.014 -0.728,-0.042 -0.196,-0.01867 -0.38734,-0.05133 -0.574,-0.098"
         style="font-size:14px"
         id="path3022" /><path
         d="m 140.36056,46.065105 0,-0.238 c 0.17733,-0.06533 0.34533,-0.163332 0.504,-0.294 0.15867,-0.139999 0.238,-0.293999 0.238,-0.462 l 0,-4.732 -0.91,-0.378 0,-0.308 c 0.31733,-0.09333 0.62533,-0.15866 0.924,-0.196 0.29867,-0.03733 0.55067,-0.05599 0.756,-0.056 l 0.336,0 0,0.756 c 0.23333,-0.233327 0.53666,-0.419993 0.91,-0.56 0.37333,-0.149326 0.76066,-0.223993 1.162,-0.224 0.57866,7e-6 1.04999,0.186674 1.414,0.56 0.36399,0.364006 0.54599,0.905339 0.546,1.624 l 0,3.92 0.728,0.21 0,0.266 c -0.18667,0.07467 -0.40601,0.130667 -0.658,0.168 -0.24267,0.04667 -0.51334,0.07 -0.812,0.07 -0.14934,0 -0.30334,-0.0093 -0.462,-0.028 -0.15867,-0.01867 -0.308,-0.05133 -0.448,-0.098 l 0,-0.238 c 0.17733,-0.07467 0.30333,-0.181999 0.378,-0.322 0.084,-0.149332 0.126,-0.349999 0.126,-0.602 l 0,-2.674 c 0,-0.681328 -0.13067,-1.166661 -0.392,-1.456 -0.26134,-0.289327 -0.59734,-0.433994 -1.008,-0.434 -0.28934,6e-6 -0.56467,0.04201 -0.826,0.126 -0.26134,0.08401 -0.46667,0.186673 -0.616,0.308 l 0,4.704 0.784,0.21 0,0.266 c -0.23334,0.084 -0.476,0.144667 -0.728,0.182 -0.252,0.03733 -0.55067,0.056 -0.896,0.056 -0.168,0 -0.34533,-0.0093 -0.532,-0.028 -0.18667,-0.01867 -0.35933,-0.05133 -0.518,-0.098"
         style="font-size:14px"
         id="path3024" /><path
         d="m 148.0575,46.065105 0,-0.238 c 0.17733,-0.06533 0.34533,-0.163332 0.504,-0.294 0.15866,-0.139999 0.238,-0.293999 0.238,-0.462 l 0,-4.676 -0.77,0 0,-0.49 0.77,-0.308 0,-1.036 c -0.009,-0.737325 0.21933,-1.343991 0.686,-1.82 0.476,-0.485323 1.14333,-0.72799 2.002,-0.728 0.49466,10e-6 0.84933,0.06068 1.064,0.182 0.21466,0.121344 0.32199,0.284677 0.322,0.49 -1e-5,0.06534 -0.009,0.144676 -0.028,0.238 -0.009,0.08401 -0.0233,0.158676 -0.042,0.224 -0.26134,-0.09332 -0.56934,-0.163324 -0.924,-0.21 -0.34534,-0.05599 -0.65801,-0.08399 -0.938,-0.084 -0.28934,1e-5 -0.53667,0.130676 -0.742,0.392 -0.196,0.261342 -0.294,0.639342 -0.294,1.134 0,0.102675 0.005,0.303341 0.014,0.602 0.0187,0.289341 0.0327,0.508674 0.042,0.658 l 1.792,0 -0.154,0.756 -1.652,0 0,5.082 0.882,0.21 0,0.266 c -0.23334,0.084 -0.48534,0.144667 -0.756,0.182 -0.26134,0.03733 -0.58334,0.056 -0.966,0.056 -0.168,0 -0.34534,-0.0093 -0.532,-0.028 -0.18667,-0.01867 -0.35934,-0.05133 -0.518,-0.098"
         style="font-size:14px"
         id="path3026" /><path
         d="m 152.25509,46.065105 0,-0.238 c 0.17733,-0.06533 0.34533,-0.163332 0.504,-0.294 0.15867,-0.139999 0.238,-0.293999 0.238,-0.462 l 0,-4.732 -0.91,-0.378 0,-0.308 c 0.31733,-0.09333 0.62533,-0.15866 0.924,-0.196 0.29867,-0.03733 0.55067,-0.05599 0.756,-0.056 l 0.336,0 0,0.98 0.014,0 0.392,-0.434 c 0.18667,-0.205327 0.378,-0.359326 0.574,-0.462 0.20533,-0.10266 0.42466,-0.153993 0.658,-0.154 0.24266,7e-6 0.42466,0.05134 0.546,0.154 0.12133,0.102674 0.182,0.252007 0.182,0.448 0,0.130673 -0.0233,0.270673 -0.07,0.42 -0.0373,0.149339 -0.0887,0.289339 -0.154,0.42 -0.13067,-0.102661 -0.27067,-0.181994 -0.42,-0.238 -0.14934,-0.05599 -0.29867,-0.08399 -0.448,-0.084 -0.21467,6e-6 -0.42467,0.05134 -0.63,0.154 -0.20533,0.09334 -0.406,0.233339 -0.602,0.42 l 0,4.452 0.966,0.21 0,0.266 c -0.23333,0.084 -0.48067,0.144667 -0.742,0.182 -0.26133,0.03733 -0.59267,0.056 -0.994,0.056 -0.20533,0 -0.406,-0.0093 -0.602,-0.028 -0.18667,-0.01867 -0.35933,-0.05133 -0.518,-0.098"
         style="font-size:14px"
         id="path3028" /><path
         d="m 156.76222,44.721105 c 0,-0.615998 0.322,-1.147997 0.966,-1.596 0.64399,-0.457329 1.53533,-0.685996 2.674,-0.686 l 0,-0.378 c -1e-5,-0.755995 -0.098,-1.250661 -0.294,-1.484 -0.19601,-0.233327 -0.51334,-0.349994 -0.952,-0.35 -0.38267,6e-6 -0.75601,0.07934 -1.12,0.238 -0.364,0.158673 -0.69067,0.382672 -0.98,0.672 -0.009,-0.06533 -0.0187,-0.130661 -0.028,-0.196 -0.009,-0.07466 -0.014,-0.149328 -0.014,-0.224 0,-0.447994 0.17733,-0.793327 0.532,-1.036 0.364,-0.251993 0.95199,-0.377993 1.764,-0.378 0.69999,7e-6 1.25066,0.168007 1.652,0.504 0.40132,0.336006 0.60199,0.793339 0.602,1.372 -1e-5,0.149339 -0.009,0.373338 -0.028,0.672 -0.009,0.289338 -0.0187,0.536671 -0.028,0.742 l -0.042,2.268 c 0.0467,0.121335 0.12132,0.247335 0.224,0.378 0.10266,0.130668 0.21466,0.242668 0.336,0.336 -0.10268,0.121334 -0.24268,0.247334 -0.42,0.378 -0.17734,0.130667 -0.35467,0.242667 -0.532,0.336 -0.13067,-0.084 -0.25201,-0.182 -0.364,-0.294 -0.10267,-0.111999 -0.19601,-0.242666 -0.28,-0.392 -0.19601,0.186667 -0.46667,0.345334 -0.812,0.476 -0.34534,0.130667 -0.70467,0.196 -1.078,0.196 -0.52267,0 -0.952,-0.144666 -1.288,-0.434 -0.32667,-0.298666 -0.49,-0.671999 -0.49,-1.12 m 1.204,-0.21 c 0,0.280002 0.0933,0.504001 0.28,0.672 0.18666,0.168001 0.45733,0.252001 0.812,0.252 0.21466,10e-7 0.44799,-0.03733 0.7,-0.112 0.25199,-0.07466 0.46666,-0.163332 0.644,-0.266 l 0,-1.96 c -0.78401,3e-6 -1.38601,0.14467 -1.806,0.434 -0.42001,0.280003 -0.63,0.606669 -0.63,0.98"
         style="font-size:14px"
         id="path3030" /><path
         d="m 163.00994,45.127105 c -1e-5,-0.09333 0.009,-0.191332 0.028,-0.294 0.028,-0.111998 0.0607,-0.205331 0.098,-0.28 0.31733,0.289335 0.62999,0.508668 0.938,0.658 0.31733,0.149334 0.66266,0.224001 1.036,0.224 0.39199,10e-7 0.68599,-0.084 0.882,-0.252 0.20533,-0.167999 0.30799,-0.373332 0.308,-0.616 -1e-5,-0.242664 -0.0887,-0.452664 -0.266,-0.63 -0.16801,-0.177331 -0.48067,-0.363997 -0.938,-0.56 l -0.7,-0.294 c -0.40134,-0.17733 -0.71401,-0.410663 -0.938,-0.7 -0.21467,-0.289329 -0.32201,-0.634662 -0.322,-1.036 -1e-5,-0.550661 0.22399,-1.031327 0.672,-1.442 0.44799,-0.41066 1.03599,-0.615993 1.764,-0.616 0.55999,7e-6 0.96132,0.07934 1.204,0.238 0.24266,0.158673 0.36399,0.368673 0.364,0.63 -1e-5,0.102673 -0.009,0.205339 -0.028,0.308 -0.009,0.09334 -0.0233,0.186673 -0.042,0.28 -0.22401,-0.149327 -0.48068,-0.275327 -0.77,-0.378 -0.28934,-0.10266 -0.56467,-0.153994 -0.826,-0.154 -0.44801,6e-6 -0.77934,0.08867 -0.994,0.266 -0.21467,0.168006 -0.32201,0.368672 -0.322,0.602 -1e-5,0.252005 0.0747,0.462005 0.224,0.63 0.15866,0.158671 0.44799,0.317338 0.868,0.476 l 0.756,0.294 c 0.50399,0.196004 0.85866,0.434004 1.064,0.714 0.21466,0.27067 0.32199,0.611336 0.322,1.022 -1e-5,0.532002 -0.23801,1.008001 -0.714,1.428 -0.47601,0.42 -1.10601,0.63 -1.89,0.63 -0.61601,0 -1.06867,-0.098 -1.358,-0.294 -0.28001,-0.195999 -0.42001,-0.480666 -0.42,-0.854"
         style="font-size:14px"
         id="path3032" /><path
         d="m 168.9479,44.301105 c 0,-0.335997 0.005,-0.68133 0.014,-1.036 0.009,-0.363996 0.0187,-0.704663 0.028,-1.022 l 0.042,-1.862 -0.77,0 0,-0.462 1.512,-1.498 0.462,-0.056 -0.056,1.26 1.848,0 -0.098,0.756 -1.792,0 -0.028,1.764 c -0.009,0.289337 -0.014,0.569337 -0.014,0.84 0,0.27067 0,0.53667 0,0.798 0,0.560002 0.0747,0.956668 0.224,1.19 0.15867,0.224001 0.36867,0.336001 0.63,0.336 0.20533,10e-7 0.392,-0.03267 0.56,-0.098 0.17733,-0.06533 0.336,-0.153999 0.476,-0.266 l 0.14,0.056 c -0.028,0.410668 -0.168,0.723334 -0.42,0.938 -0.252,0.205334 -0.616,0.308 -1.092,0.308 -0.56,0 -0.98,-0.154 -1.26,-0.462 -0.27066,-0.317332 -0.406,-0.811998 -0.406,-1.484"
         style="font-size:14px"
         id="path3034" /><path
         d="m 172.73556,46.065105 0,-0.238 c 0.17733,-0.06533 0.34533,-0.163332 0.504,-0.294 0.15867,-0.139999 0.238,-0.293999 0.238,-0.462 l 0,-4.732 -0.91,-0.378 0,-0.308 c 0.31733,-0.09333 0.62533,-0.15866 0.924,-0.196 0.29867,-0.03733 0.55067,-0.05599 0.756,-0.056 l 0.336,0 0,0.98 0.014,0 0.392,-0.434 c 0.18666,-0.205327 0.378,-0.359326 0.574,-0.462 0.20533,-0.10266 0.42466,-0.153993 0.658,-0.154 0.24266,7e-6 0.42466,0.05134 0.546,0.154 0.12133,0.102674 0.182,0.252007 0.182,0.448 0,0.130673 -0.0233,0.270673 -0.07,0.42 -0.0373,0.149339 -0.0887,0.289339 -0.154,0.42 -0.13067,-0.102661 -0.27067,-0.181994 -0.42,-0.238 -0.14934,-0.05599 -0.29867,-0.08399 -0.448,-0.084 -0.21467,6e-6 -0.42467,0.05134 -0.63,0.154 -0.20534,0.09334 -0.406,0.233339 -0.602,0.42 l 0,4.452 0.966,0.21 0,0.266 c -0.23334,0.084 -0.48067,0.144667 -0.742,0.182 -0.26134,0.03733 -0.59267,0.056 -0.994,0.056 -0.20533,0 -0.406,-0.0093 -0.602,-0.028 -0.18667,-0.01867 -0.35933,-0.05133 -0.518,-0.098"
         style="font-size:14px"
         id="path3036" /><path
         d="m 178.04069,43.923105 0,-3.584 -0.798,-0.392 0,-0.294 c 0.31733,-0.09333 0.60666,-0.15866 0.868,-0.196 0.27066,-0.04666 0.50399,-0.06999 0.7,-0.07 l 0.462,0 -0.084,0.784 0,3.164 c -1e-5,0.728002 0.11199,1.236669 0.336,1.526 0.23333,0.280001 0.57399,0.420001 1.022,0.42 0.26132,1e-6 0.51332,-0.042 0.756,-0.126 0.25199,-0.084 0.45732,-0.177332 0.616,-0.28 l 0,-4.536 -0.812,-0.392 0,-0.294 c 0.31732,-0.09333 0.61132,-0.15866 0.882,-0.196 0.27066,-0.04666 0.50399,-0.06999 0.7,-0.07 l 0.462,0 -0.084,0.784 0,4.732 c 0.0467,0.121335 0.11666,0.242668 0.21,0.364 0.10266,0.121334 0.20999,0.242668 0.322,0.364 -0.10268,0.112001 -0.24268,0.228667 -0.42,0.35 -0.17734,0.121334 -0.35468,0.224 -0.532,0.308 -0.14001,-0.09333 -0.27068,-0.21 -0.392,-0.35 -0.11201,-0.149333 -0.20068,-0.303332 -0.266,-0.462 -0.17734,0.158668 -0.45268,0.322001 -0.826,0.49 -0.36401,0.168 -0.76067,0.252 -1.19,0.252 -0.58801,0 -1.05934,-0.182 -1.414,-0.546 -0.34534,-0.363999 -0.51801,-0.947332 -0.518,-1.75"
         style="font-size:14px"
         id="path3038" /><path
         d="m 184.75019,43.055105 c -1e-5,-1.138662 0.31733,-2.043995 0.952,-2.716 0.63466,-0.681326 1.41399,-1.021993 2.338,-1.022 0.55999,7e-6 0.95199,0.07934 1.176,0.238 0.22399,0.158673 0.33599,0.354673 0.336,0.588 -1e-5,0.130673 -0.0187,0.256673 -0.056,0.378 -0.028,0.121339 -0.0653,0.238006 -0.112,0.35 -0.26134,-0.205327 -0.52734,-0.363994 -0.798,-0.476 -0.26134,-0.111994 -0.53668,-0.167994 -0.826,-0.168 -0.47601,6e-6 -0.89601,0.228673 -1.26,0.686 -0.35467,0.448005 -0.53201,1.078005 -0.532,1.89 -1e-5,0.83067 0.19133,1.456002 0.574,1.876 0.39199,0.420001 0.85866,0.630001 1.4,0.63 0.27066,10e-7 0.55066,-0.05133 0.84,-0.154 0.28932,-0.111999 0.54132,-0.247332 0.756,-0.406 0.0187,0.03733 0.0327,0.08867 0.042,0.154 0.0187,0.06534 0.028,0.130668 0.028,0.196 -1e-5,0.326668 -0.17734,0.606667 -0.532,0.84 -0.34534,0.224 -0.84934,0.336 -1.512,0.336 -0.75601,0 -1.41401,-0.293999 -1.974,-0.882 -0.56001,-0.587998 -0.84001,-1.367331 -0.84,-2.338"
         style="font-size:14px"
         id="path3040" /><path
         d="m 191.069,44.301105 c 0,-0.335997 0.005,-0.68133 0.014,-1.036 0.009,-0.363996 0.0187,-0.704663 0.028,-1.022 l 0.042,-1.862 -0.77,0 0,-0.462 1.512,-1.498 0.462,-0.056 -0.056,1.26 1.848,0 -0.098,0.756 -1.792,0 -0.028,1.764 c -0.009,0.289337 -0.014,0.569337 -0.014,0.84 0,0.27067 0,0.53667 0,0.798 0,0.560002 0.0747,0.956668 0.224,1.19 0.15866,0.224001 0.36866,0.336001 0.63,0.336 0.20533,10e-7 0.39199,-0.03267 0.56,-0.098 0.17733,-0.06533 0.33599,-0.153999 0.476,-0.266 l 0.14,0.056 c -0.028,0.410668 -0.16801,0.723334 -0.42,0.938 -0.25201,0.205334 -0.61601,0.308 -1.092,0.308 -0.56,0 -0.98,-0.154 -1.26,-0.462 -0.27067,-0.317332 -0.406,-0.811998 -0.406,-1.484"
         style="font-size:14px"
         id="path3042" /><path
         d="m 195.45865,43.923105 0,-3.584 -0.798,-0.392 0,-0.294 c 0.31734,-0.09333 0.60667,-0.15866 0.868,-0.196 0.27067,-0.04666 0.504,-0.06999 0.7,-0.07 l 0.462,0 -0.084,0.784 0,3.164 c 0,0.728002 0.112,1.236669 0.336,1.526 0.23333,0.280001 0.574,0.420001 1.022,0.42 0.26133,1e-6 0.51333,-0.042 0.756,-0.126 0.252,-0.084 0.45733,-0.177332 0.616,-0.28 l 0,-4.536 -0.812,-0.392 0,-0.294 c 0.31733,-0.09333 0.61133,-0.15866 0.882,-0.196 0.27067,-0.04666 0.504,-0.06999 0.7,-0.07 l 0.462,0 -0.084,0.784 0,4.732 c 0.0467,0.121335 0.11666,0.242668 0.21,0.364 0.10266,0.121334 0.21,0.242668 0.322,0.364 -0.10267,0.112001 -0.24267,0.228667 -0.42,0.35 -0.17734,0.121334 -0.35467,0.224 -0.532,0.308 -0.14,-0.09333 -0.27067,-0.21 -0.392,-0.35 -0.112,-0.149333 -0.20067,-0.303332 -0.266,-0.462 -0.17733,0.158668 -0.45267,0.322001 -0.826,0.49 -0.364,0.168 -0.76067,0.252 -1.19,0.252 -0.588,0 -1.05933,-0.182 -1.414,-0.546 -0.34533,-0.363999 -0.518,-0.947332 -0.518,-1.75"
         style="font-size:14px"
         id="path3044" /><path
         d="m 202.89615,43.923105 0,-3.584 -0.798,-0.392 0,-0.294 c 0.31734,-0.09333 0.60667,-0.15866 0.868,-0.196 0.27067,-0.04666 0.504,-0.06999 0.7,-0.07 l 0.462,0 -0.084,0.784 0,3.164 c 0,0.728002 0.112,1.236669 0.336,1.526 0.23333,0.280001 0.574,0.420001 1.022,0.42 0.26133,1e-6 0.51333,-0.042 0.756,-0.126 0.252,-0.084 0.45733,-0.177332 0.616,-0.28 l 0,-4.536 -0.812,-0.392 0,-0.294 c 0.31733,-0.09333 0.61133,-0.15866 0.882,-0.196 0.27067,-0.04666 0.504,-0.06999 0.7,-0.07 l 0.462,0 -0.084,0.784 0,4.732 c 0.0467,0.121335 0.11666,0.242668 0.21,0.364 0.10266,0.121334 0.21,0.242668 0.322,0.364 -0.10267,0.112001 -0.24267,0.228667 -0.42,0.35 -0.17734,0.121334 -0.35467,0.224 -0.532,0.308 -0.14,-0.09333 -0.27067,-0.21 -0.392,-0.35 -0.112,-0.149333 -0.20067,-0.303332 -0.266,-0.462 -0.17733,0.158668 -0.45267,0.322001 -0.826,0.49 -0.364,0.168 -0.76067,0.252 -1.19,0.252 -0.588,0 -1.05933,-0.182 -1.414,-0.546 -0.34533,-0.363999 -0.518,-0.947332 -0.518,-1.75"
         style="font-size:14px"
         id="path3046" /><path
         d="m 209.73165,46.065105 0,-0.238 c 0.17734,-0.06533 0.34534,-0.163332 0.504,-0.294 0.15867,-0.139999 0.238,-0.293999 0.238,-0.462 l 0,-4.732 -0.91,-0.378 0,-0.308 c 0.31734,-0.09333 0.62534,-0.15866 0.924,-0.196 0.29867,-0.03733 0.55067,-0.05599 0.756,-0.056 l 0.336,0 0,0.98 0.014,0 0.392,-0.434 c 0.18667,-0.205327 0.378,-0.359326 0.574,-0.462 0.20533,-0.10266 0.42467,-0.153993 0.658,-0.154 0.24267,7e-6 0.42467,0.05134 0.546,0.154 0.12133,0.102674 0.182,0.252007 0.182,0.448 0,0.130673 -0.0233,0.270673 -0.07,0.42 -0.0373,0.149339 -0.0887,0.289339 -0.154,0.42 -0.13067,-0.102661 -0.27067,-0.181994 -0.42,-0.238 -0.14933,-0.05599 -0.29867,-0.08399 -0.448,-0.084 -0.21467,6e-6 -0.42467,0.05134 -0.63,0.154 -0.20533,0.09334 -0.406,0.233339 -0.602,0.42 l 0,4.452 0.966,0.21 0,0.266 c -0.23333,0.084 -0.48067,0.144667 -0.742,0.182 -0.26133,0.03733 -0.59266,0.056 -0.994,0.056 -0.20533,0 -0.406,-0.0093 -0.602,-0.028 -0.18666,-0.01867 -0.35933,-0.05133 -0.518,-0.098"
         style="font-size:14px"
         id="path3048" /><path
         d="m 217.04315,43.069105 c 0,-1.213329 0.30334,-2.141994 0.91,-2.786 0.616,-0.653326 1.288,-0.979993 2.016,-0.98 0.756,7e-6 1.34867,0.238007 1.778,0.714 0.42933,0.466673 0.644,1.101339 0.644,1.904 0,0.130671 0,0.270671 0,0.42 0,0.140004 -0.005,0.298671 -0.014,0.476 l -4.13,0 c 0,0.784003 0.20067,1.395336 0.602,1.834 0.40133,0.429335 0.89133,0.644001 1.47,0.644 0.34533,10e-7 0.69533,-0.056 1.05,-0.168 0.35467,-0.111999 0.66267,-0.256665 0.924,-0.434 0.009,0.03733 0.0187,0.09333 0.028,0.168 0.0187,0.06533 0.028,0.130668 0.028,0.196 0,0.317334 -0.21933,0.602001 -0.658,0.854 -0.42933,0.242667 -1.01267,0.364 -1.75,0.364 -0.79333,0 -1.47466,-0.289333 -2.044,-0.868 -0.56933,-0.587998 -0.854,-1.367331 -0.854,-2.338 m 1.232,-0.98 2.996,0 c 0,-0.681328 -0.13533,-1.189994 -0.406,-1.526 -0.26133,-0.335994 -0.59733,-0.503994 -1.008,-0.504 -0.38267,6e-6 -0.742,0.200673 -1.078,0.602 -0.336,0.401339 -0.504,0.877338 -0.504,1.428"
         style="font-size:14px"
         id="path3050" /><path
         d="m 223.5129,46.065105 0,-0.238 c 0.17734,-0.06533 0.34534,-0.163332 0.504,-0.294 0.15867,-0.139999 0.238,-0.293999 0.238,-0.462 l 0,-4.732 -0.91,-0.378 0,-0.308 c 0.31734,-0.09333 0.62534,-0.15866 0.924,-0.196 0.29867,-0.03733 0.55067,-0.05599 0.756,-0.056 l 0.336,0 0,0.756 c 0.23333,-0.233327 0.53667,-0.419993 0.91,-0.56 0.37333,-0.149326 0.76067,-0.223993 1.162,-0.224 0.57867,7e-6 1.05,0.186674 1.414,0.56 0.364,0.364006 0.546,0.905339 0.546,1.624 l 0,3.92 0.728,0.21 0,0.266 c -0.18667,0.07467 -0.406,0.130667 -0.658,0.168 -0.24267,0.04667 -0.51334,0.07 -0.812,0.07 -0.14933,0 -0.30333,-0.0093 -0.462,-0.028 -0.15867,-0.01867 -0.308,-0.05133 -0.448,-0.098 l 0,-0.238 c 0.17733,-0.07467 0.30333,-0.181999 0.378,-0.322 0.084,-0.149332 0.126,-0.349999 0.126,-0.602 l 0,-2.674 c 0,-0.681328 -0.13067,-1.166661 -0.392,-1.456 -0.26133,-0.289327 -0.59733,-0.433994 -1.008,-0.434 -0.28933,6e-6 -0.56467,0.04201 -0.826,0.126 -0.26133,0.08401 -0.46667,0.186673 -0.616,0.308 l 0,4.704 0.784,0.21 0,0.266 c -0.23333,0.084 -0.476,0.144667 -0.728,0.182 -0.252,0.03733 -0.55066,0.056 -0.896,0.056 -0.168,0 -0.34533,-0.0093 -0.532,-0.028 -0.18666,-0.01867 -0.35933,-0.05133 -0.518,-0.098"
         style="font-size:14px"
         id="path3052" /><path
         d="m 233.56622,46.065105 0,-0.252 c 0.26133,-0.07467 0.45733,-0.177332 0.588,-0.308 0.14,-0.139999 0.21933,-0.312665 0.238,-0.518 l 0.616,-7.154 -0.812,-0.238 0,-0.406 c 0.31733,-0.03732 0.64866,-0.06066 0.994,-0.07 0.35466,-0.01866 0.65799,-0.02799 0.91,-0.028 l 0.504,0 2.198,6.79 0.014,0 2.128,-6.79 0.602,0 c 0.25199,9e-6 0.52732,0.0093 0.826,0.028 0.29865,0.0093 0.58799,0.03268 0.868,0.07 l 0,0.406 -0.868,0.21 0.616,7.7 0.812,0.154 0,0.308 c -0.16801,0.07467 -0.36868,0.130667 -0.602,0.168 -0.23335,0.04667 -0.48535,0.07 -0.756,0.07 -0.31735,0 -0.59268,-0.0093 -0.826,-0.028 -0.23334,-0.01867 -0.47134,-0.056 -0.714,-0.112 l 0,-0.266 c 0.28932,-0.06533 0.49932,-0.186666 0.63,-0.364 0.13999,-0.177332 0.20532,-0.410665 0.196,-0.7 l -0.35,-6.356 -0.028,0 -2.492,7.77 -0.546,0.07 -2.52,-7.826 -0.014,0.014 -0.434,7.014 0.91,0.238 0,0.308 c -0.29867,0.09333 -0.56001,0.154 -0.784,0.182 -0.21467,0.03733 -0.49001,0.056 -0.826,0.056 -0.15867,0 -0.336,-0.014 -0.532,-0.042 -0.18667,-0.028 -0.36867,-0.06067 -0.546,-0.098"
         style="font-size:14px"
         id="path3054" /><path
         d="m 246.17103,38.113105 c -0.20534,8e-6 -0.38267,-0.07466 -0.532,-0.224 -0.14,-0.149325 -0.21,-0.340658 -0.21,-0.574 0,-0.214657 0.07,-0.40599 0.21,-0.574 0.14933,-0.16799 0.34533,-0.25199 0.588,-0.252 0.196,10e-6 0.364,0.07001 0.504,0.21 0.14933,0.130676 0.224,0.312676 0.224,0.546 0,0.242676 -0.0747,0.448009 -0.224,0.616 -0.14934,0.168008 -0.336,0.252008 -0.56,0.252 m -1.33,7.952 0,-0.238 c 0.18666,-0.06533 0.35466,-0.163332 0.504,-0.294 0.15866,-0.139999 0.238,-0.293999 0.238,-0.462 l 0,-4.732 -0.896,-0.378 0,-0.294 c 0.31733,-0.09333 0.62533,-0.15866 0.924,-0.196 0.29866,-0.04666 0.546,-0.06999 0.742,-0.07 l 0.448,0 -0.07,0.756 0,5.32 0.784,0.21 0,0.266 c -0.23334,0.084 -0.476,0.144667 -0.728,0.182 -0.24267,0.03733 -0.54134,0.056 -0.896,0.056 -0.15867,0 -0.336,-0.0093 -0.532,-0.028 -0.18667,-0.01867 -0.35933,-0.05133 -0.518,-0.098"
         style="font-size:14px"
         id="path3056" /><path
         d="m 248.64181,46.065105 0,-0.238 c 0.17733,-0.06533 0.34533,-0.163332 0.504,-0.294 0.15867,-0.139999 0.238,-0.293999 0.238,-0.462 l 0,-8.12 -0.91,-0.378 0,-0.308 c 0.31733,-0.09332 0.62533,-0.158656 0.924,-0.196 0.308,-0.03732 0.56,-0.05599 0.756,-0.056 l 0.448,0 -0.07,0.784 0,8.68 0.784,0.21 0,0.266 c -0.23334,0.084 -0.476,0.144667 -0.728,0.182 -0.252,0.03733 -0.55067,0.056 -0.896,0.056 -0.168,0 -0.34533,-0.0093 -0.532,-0.028 -0.18667,-0.01867 -0.35933,-0.05133 -0.518,-0.098"
         style="font-size:14px"
         id="path3058" /><path
         d="m 253.7179,38.113105 c -0.20533,8e-6 -0.38266,-0.07466 -0.532,-0.224 -0.14,-0.149325 -0.21,-0.340658 -0.21,-0.574 0,-0.214657 0.07,-0.40599 0.21,-0.574 0.14934,-0.16799 0.34534,-0.25199 0.588,-0.252 0.196,10e-6 0.364,0.07001 0.504,0.21 0.14933,0.130676 0.224,0.312676 0.224,0.546 0,0.242676 -0.0747,0.448009 -0.224,0.616 -0.14933,0.168008 -0.336,0.252008 -0.56,0.252 m -1.33,7.952 0,-0.238 c 0.18667,-0.06533 0.35467,-0.163332 0.504,-0.294 0.15867,-0.139999 0.238,-0.293999 0.238,-0.462 l 0,-4.732 -0.896,-0.378 0,-0.294 c 0.31734,-0.09333 0.62534,-0.15866 0.924,-0.196 0.29867,-0.04666 0.546,-0.06999 0.742,-0.07 l 0.448,0 -0.07,0.756 0,5.32 0.784,0.21 0,0.266 c -0.23333,0.084 -0.476,0.144667 -0.728,0.182 -0.24266,0.03733 -0.54133,0.056 -0.896,0.056 -0.15866,0 -0.336,-0.0093 -0.532,-0.028 -0.18666,-0.01867 -0.35933,-0.05133 -0.518,-0.098"
         style="font-size:14px"
         id="path3060" /><path
         d="m 256.06269,43.069105 c -10e-6,-1.213329 0.30333,-2.141994 0.91,-2.786 0.61599,-0.653326 1.28799,-0.979993 2.016,-0.98 0.75599,7e-6 1.34866,0.238007 1.778,0.714 0.42932,0.466673 0.64399,1.101339 0.644,1.904 -10e-6,0.130671 -10e-6,0.270671 0,0.42 -10e-6,0.140004 -0.005,0.298671 -0.014,0.476 l -4.13,0 c -10e-6,0.784003 0.20066,1.395336 0.602,1.834 0.40133,0.429335 0.89133,0.644001 1.47,0.644 0.34532,10e-7 0.69532,-0.056 1.05,-0.168 0.35466,-0.111999 0.66266,-0.256665 0.924,-0.434 0.009,0.03733 0.0187,0.09333 0.028,0.168 0.0187,0.06533 0.028,0.130668 0.028,0.196 -1e-5,0.317334 -0.21934,0.602001 -0.658,0.854 -0.42934,0.242667 -1.01268,0.364 -1.75,0.364 -0.79334,0 -1.47467,-0.289333 -2.044,-0.868 -0.56934,-0.587998 -0.85401,-1.367331 -0.854,-2.338 m 1.232,-0.98 2.996,0 c -10e-6,-0.681328 -0.13534,-1.189994 -0.406,-1.526 -0.26134,-0.335994 -0.59734,-0.503994 -1.008,-0.504 -0.38267,6e-6 -0.74201,0.200673 -1.078,0.602 -0.33601,0.401339 -0.50401,0.877338 -0.504,1.428"
         style="font-size:14px"
         id="path3062" /><path
         d="m 263.13444,43.923105 0,-3.584 -0.798,-0.392 0,-0.294 c 0.31733,-0.09333 0.60666,-0.15866 0.868,-0.196 0.27066,-0.04666 0.50399,-0.06999 0.7,-0.07 l 0.462,0 -0.084,0.784 0,3.164 c -1e-5,0.728002 0.11199,1.236669 0.336,1.526 0.23333,0.280001 0.57399,0.420001 1.022,0.42 0.26132,1e-6 0.51332,-0.042 0.756,-0.126 0.25199,-0.084 0.45732,-0.177332 0.616,-0.28 l 0,-4.536 -0.812,-0.392 0,-0.294 c 0.31732,-0.09333 0.61132,-0.15866 0.882,-0.196 0.27066,-0.04666 0.50399,-0.06999 0.7,-0.07 l 0.462,0 -0.084,0.784 0,4.732 c 0.0467,0.121335 0.11666,0.242668 0.21,0.364 0.10266,0.121334 0.20999,0.242668 0.322,0.364 -0.10268,0.112001 -0.24268,0.228667 -0.42,0.35 -0.17734,0.121334 -0.35468,0.224 -0.532,0.308 -0.14001,-0.09333 -0.27068,-0.21 -0.392,-0.35 -0.11201,-0.149333 -0.20068,-0.303332 -0.266,-0.462 -0.17734,0.158668 -0.45268,0.322001 -0.826,0.49 -0.36401,0.168 -0.76067,0.252 -1.19,0.252 -0.58801,0 -1.05934,-0.182 -1.414,-0.546 -0.34534,-0.363999 -0.51801,-0.947332 -0.518,-1.75"
         style="font-size:14px"
         id="path3064" /></g></g></svg>